%TF.GenerationSoftware,KiCad,Pcbnew,10.0.3*%
%TF.CreationDate,2026-06-06T21:22:43+02:00*%
%TF.ProjectId,PoE-FanController,506f452d-4661-46e4-936f-6e74726f6c6c,v0.1*%
%TF.SameCoordinates,Original*%
%TF.FileFunction,Other,User*%
%FSLAX46Y46*%
G04 Gerber Fmt 4.6, Leading zero omitted, Abs format (unit mm)*
G04 Created by KiCad (PCBNEW 10.0.3) date 2026-06-06 21:22:43*
%MOMM*%
%LPD*%
G01*
G04 APERTURE LIST*
%ADD10C,0.050000*%
G04 APERTURE END LIST*
%TO.C,J1*%
D10*
X23710000Y-23740000D02*
X23710000Y-5000000D01*
X23710000Y-23740000D02*
X7400000Y-23740000D01*
X7400000Y-5000000D02*
X23710000Y-5000000D01*
X7400000Y-5000000D02*
X7400000Y-23740000D01*
%TO.C,J2*%
X44330000Y-5850000D02*
X47870000Y-5850000D01*
X47870000Y-17010000D01*
X44330000Y-17010000D01*
X44330000Y-5850000D01*
%TO.C,J3*%
X55030000Y-5850000D02*
X58570000Y-5850000D01*
X58570000Y-17010000D01*
X55030000Y-17010000D01*
X55030000Y-5850000D01*
%TO.C,J4*%
X65630000Y-5850000D02*
X69170000Y-5850000D01*
X69170000Y-17010000D01*
X65630000Y-17010000D01*
X65630000Y-5850000D01*
%TO.C,J5*%
X76330000Y-5850000D02*
X79870000Y-5850000D01*
X79870000Y-17010000D01*
X76330000Y-17010000D01*
X76330000Y-5850000D01*
%TO.C,J6*%
X82700000Y-5000000D02*
X82700000Y-15170000D01*
X82700000Y-5000000D02*
X93250000Y-5000000D01*
X82700000Y-15170000D02*
X93250000Y-15170000D01*
X93250000Y-5000000D02*
X93250000Y-15170000D01*
%TO.C,J7*%
X86230000Y-48230000D02*
X94850000Y-48230000D01*
X94850000Y-51770000D01*
X86230000Y-51770000D01*
X86230000Y-48230000D01*
%TO.C,U1*%
X19230000Y-30230000D02*
X25320000Y-30230000D01*
X25320000Y-41390000D01*
X19230000Y-41390000D01*
X19230000Y-30230000D01*
%TO.C,U2*%
X16800000Y-51350000D02*
X33450000Y-51350000D01*
X33450000Y-62650000D01*
X16800000Y-62650000D01*
X16800000Y-51350000D01*
%TO.C,L1*%
X6750000Y-43500000D02*
X24500000Y-43500000D01*
X24500000Y-48500000D01*
X6750000Y-48500000D01*
X6750000Y-43500000D01*
%TO.C,D1*%
X14150000Y-64150000D02*
X30550000Y-64150000D01*
X30550000Y-69850000D01*
X14150000Y-69850000D01*
X14150000Y-64150000D01*
%TO.C,C1*%
X14000000Y-32000000D02*
G75*
G02*
X5500000Y-32000000I-4250000J0D01*
G01*
X5500000Y-32000000D02*
G75*
G02*
X14000000Y-32000000I4250000J0D01*
G01*
%TO.C,C2*%
X13000000Y-62000000D02*
G75*
G02*
X4500000Y-62000000I-4250000J0D01*
G01*
X4500000Y-62000000D02*
G75*
G02*
X13000000Y-62000000I4250000J0D01*
G01*
%TO.C,U3*%
X41000000Y-22260000D02*
X41000000Y-43200000D01*
X41000000Y-43200000D02*
X55250000Y-43200000D01*
X55250000Y-63510000D02*
X55250000Y-43200000D01*
X55250000Y-63510000D02*
X74750000Y-63510000D01*
X74750000Y-43200000D02*
X74750000Y-63510000D01*
X74750000Y-43200000D02*
X89000000Y-43200000D01*
X89000000Y-22260000D02*
X41000000Y-22260000D01*
X89000000Y-43200000D02*
X89000000Y-22260000D01*
%TO.C,U4*%
X78300000Y-53000000D02*
X79800000Y-53000000D01*
X78300000Y-63000000D02*
X78300000Y-53000000D01*
X79800000Y-52800000D02*
X84200000Y-52800000D01*
X79800000Y-53000000D02*
X79800000Y-52800000D01*
X79800000Y-63000000D02*
X78300000Y-63000000D01*
X79800000Y-63200000D02*
X79800000Y-63000000D01*
X84200000Y-52800000D02*
X84200000Y-53000000D01*
X84200000Y-53000000D02*
X85700000Y-53000000D01*
X84200000Y-63000000D02*
X84200000Y-63200000D01*
X84200000Y-63200000D02*
X79800000Y-63200000D01*
X85700000Y-53000000D02*
X85700000Y-63000000D01*
X85700000Y-63000000D02*
X84200000Y-63000000D01*
%TO.C,R5*%
X50570000Y-19030000D02*
X52430000Y-19030000D01*
X52430000Y-19970000D01*
X50570000Y-19970000D01*
X50570000Y-19030000D01*
%TO.C,R6*%
X61170000Y-19030000D02*
X63030000Y-19030000D01*
X63030000Y-19970000D01*
X61170000Y-19970000D01*
X61170000Y-19030000D01*
%TO.C,R7*%
X71870000Y-19030000D02*
X73730000Y-19030000D01*
X73730000Y-19970000D01*
X71870000Y-19970000D01*
X71870000Y-19030000D01*
%TO.C,R8*%
X91070000Y-19030000D02*
X92930000Y-19030000D01*
X92930000Y-19970000D01*
X91070000Y-19970000D01*
X91070000Y-19030000D01*
%TO.C,R1*%
X44070000Y-46530000D02*
X45930000Y-46530000D01*
X45930000Y-47470000D01*
X44070000Y-47470000D01*
X44070000Y-46530000D01*
%TO.C,R2*%
X44070000Y-49530000D02*
X45930000Y-49530000D01*
X45930000Y-50470000D01*
X44070000Y-50470000D01*
X44070000Y-49530000D01*
%TO.C,R3*%
X44070000Y-52530000D02*
X45930000Y-52530000D01*
X45930000Y-53470000D01*
X44070000Y-53470000D01*
X44070000Y-52530000D01*
%TO.C,R4*%
X44070000Y-55530000D02*
X45930000Y-55530000D01*
X45930000Y-56470000D01*
X44070000Y-56470000D01*
X44070000Y-55530000D01*
%TO.C,C3*%
X51090000Y-46540000D02*
X52910000Y-46540000D01*
X52910000Y-47460000D01*
X51090000Y-47460000D01*
X51090000Y-46540000D01*
%TO.C,C4*%
X51090000Y-49540000D02*
X52910000Y-49540000D01*
X52910000Y-50460000D01*
X51090000Y-50460000D01*
X51090000Y-49540000D01*
%TO.C,C5*%
X51090000Y-52540000D02*
X52910000Y-52540000D01*
X52910000Y-53460000D01*
X51090000Y-53460000D01*
X51090000Y-52540000D01*
%TO.C,C6*%
X51090000Y-55540000D02*
X52910000Y-55540000D01*
X52910000Y-56460000D01*
X51090000Y-56460000D01*
X51090000Y-55540000D01*
%TO.C,C7*%
X75090000Y-63040000D02*
X76910000Y-63040000D01*
X76910000Y-63960000D01*
X75090000Y-63960000D01*
X75090000Y-63040000D01*
%TO.C,R9*%
X82070000Y-68030000D02*
X83930000Y-68030000D01*
X83930000Y-68970000D01*
X82070000Y-68970000D01*
X82070000Y-68030000D01*
%TO.C,R10*%
X82070000Y-71030000D02*
X83930000Y-71030000D01*
X83930000Y-71970000D01*
X82070000Y-71970000D01*
X82070000Y-71030000D01*
%TO.C,SW1*%
X42500000Y-67000000D02*
X42750000Y-67000000D01*
X42500000Y-67250000D02*
X42500000Y-67000000D01*
X42500000Y-74250000D02*
X42500000Y-67250000D01*
X42500000Y-74250000D02*
X42500000Y-74500000D01*
X42500000Y-74500000D02*
X42750000Y-74500000D01*
X42750000Y-67000000D02*
X51750000Y-67000000D01*
X51750000Y-67000000D02*
X52000000Y-67000000D01*
X51750000Y-74500000D02*
X42750000Y-74500000D01*
X51750000Y-74500000D02*
X52000000Y-74500000D01*
X52000000Y-67000000D02*
X52000000Y-67250000D01*
X52000000Y-67250000D02*
X52000000Y-74250000D01*
X52000000Y-74500000D02*
X52000000Y-74250000D01*
%TO.C,SW2*%
X52500000Y-67000000D02*
X52750000Y-67000000D01*
X52500000Y-67250000D02*
X52500000Y-67000000D01*
X52500000Y-74250000D02*
X52500000Y-67250000D01*
X52500000Y-74250000D02*
X52500000Y-74500000D01*
X52500000Y-74500000D02*
X52750000Y-74500000D01*
X52750000Y-67000000D02*
X61750000Y-67000000D01*
X61750000Y-67000000D02*
X62000000Y-67000000D01*
X61750000Y-74500000D02*
X52750000Y-74500000D01*
X61750000Y-74500000D02*
X62000000Y-74500000D01*
X62000000Y-67000000D02*
X62000000Y-67250000D01*
X62000000Y-67250000D02*
X62000000Y-74250000D01*
X62000000Y-74500000D02*
X62000000Y-74250000D01*
%TO.C,LED1*%
X62850000Y-66290000D02*
X67690000Y-66290000D01*
X67690000Y-70710000D01*
X62850000Y-70710000D01*
X62850000Y-66290000D01*
%TO.C,NTC1*%
X68950000Y-67000000D02*
X81210000Y-67000000D01*
X81210000Y-70000000D01*
X68950000Y-70000000D01*
X68950000Y-67000000D01*
%TD*%
M02*
