%TF.GenerationSoftware,KiCad,Pcbnew,10.0.3*%
%TF.CreationDate,2026-06-06T19:20:42+02:00*%
%TF.ProjectId,PoE-FanController,506f452d-4661-46e4-936f-6e74726f6c6c,v0.1*%
%TF.SameCoordinates,Original*%
%TF.FileFunction,Legend,Top*%
%TF.FilePolarity,Positive*%
%FSLAX46Y46*%
G04 Gerber Fmt 4.6, Leading zero omitted, Abs format (unit mm)*
G04 Created by KiCad (PCBNEW 10.0.3) date 2026-06-06 19:20:42*
%MOMM*%
%LPD*%
G01*
G04 APERTURE LIST*
%ADD10C,0.150000*%
%ADD11C,0.100000*%
%ADD12C,0.120000*%
G04 APERTURE END LIST*
D10*
X37178572Y-4186128D02*
X37178572Y-2686128D01*
X37178572Y-2686128D02*
X37750001Y-2686128D01*
X37750001Y-2686128D02*
X37892858Y-2757557D01*
X37892858Y-2757557D02*
X37964287Y-2828985D01*
X37964287Y-2828985D02*
X38035715Y-2971842D01*
X38035715Y-2971842D02*
X38035715Y-3186128D01*
X38035715Y-3186128D02*
X37964287Y-3328985D01*
X37964287Y-3328985D02*
X37892858Y-3400414D01*
X37892858Y-3400414D02*
X37750001Y-3471842D01*
X37750001Y-3471842D02*
X37178572Y-3471842D01*
X38892858Y-4186128D02*
X38750001Y-4114700D01*
X38750001Y-4114700D02*
X38678572Y-4043271D01*
X38678572Y-4043271D02*
X38607144Y-3900414D01*
X38607144Y-3900414D02*
X38607144Y-3471842D01*
X38607144Y-3471842D02*
X38678572Y-3328985D01*
X38678572Y-3328985D02*
X38750001Y-3257557D01*
X38750001Y-3257557D02*
X38892858Y-3186128D01*
X38892858Y-3186128D02*
X39107144Y-3186128D01*
X39107144Y-3186128D02*
X39250001Y-3257557D01*
X39250001Y-3257557D02*
X39321430Y-3328985D01*
X39321430Y-3328985D02*
X39392858Y-3471842D01*
X39392858Y-3471842D02*
X39392858Y-3900414D01*
X39392858Y-3900414D02*
X39321430Y-4043271D01*
X39321430Y-4043271D02*
X39250001Y-4114700D01*
X39250001Y-4114700D02*
X39107144Y-4186128D01*
X39107144Y-4186128D02*
X38892858Y-4186128D01*
X40035715Y-3400414D02*
X40535715Y-3400414D01*
X40750001Y-4186128D02*
X40035715Y-4186128D01*
X40035715Y-4186128D02*
X40035715Y-2686128D01*
X40035715Y-2686128D02*
X40750001Y-2686128D01*
X43035715Y-3400414D02*
X42535715Y-3400414D01*
X42535715Y-4186128D02*
X42535715Y-2686128D01*
X42535715Y-2686128D02*
X43250001Y-2686128D01*
X44464287Y-4186128D02*
X44464287Y-3400414D01*
X44464287Y-3400414D02*
X44392858Y-3257557D01*
X44392858Y-3257557D02*
X44250001Y-3186128D01*
X44250001Y-3186128D02*
X43964287Y-3186128D01*
X43964287Y-3186128D02*
X43821429Y-3257557D01*
X44464287Y-4114700D02*
X44321429Y-4186128D01*
X44321429Y-4186128D02*
X43964287Y-4186128D01*
X43964287Y-4186128D02*
X43821429Y-4114700D01*
X43821429Y-4114700D02*
X43750001Y-3971842D01*
X43750001Y-3971842D02*
X43750001Y-3828985D01*
X43750001Y-3828985D02*
X43821429Y-3686128D01*
X43821429Y-3686128D02*
X43964287Y-3614700D01*
X43964287Y-3614700D02*
X44321429Y-3614700D01*
X44321429Y-3614700D02*
X44464287Y-3543271D01*
X45178572Y-3186128D02*
X45178572Y-4186128D01*
X45178572Y-3328985D02*
X45250001Y-3257557D01*
X45250001Y-3257557D02*
X45392858Y-3186128D01*
X45392858Y-3186128D02*
X45607144Y-3186128D01*
X45607144Y-3186128D02*
X45750001Y-3257557D01*
X45750001Y-3257557D02*
X45821430Y-3400414D01*
X45821430Y-3400414D02*
X45821430Y-4186128D01*
X47392858Y-4043271D02*
X47321430Y-4114700D01*
X47321430Y-4114700D02*
X47107144Y-4186128D01*
X47107144Y-4186128D02*
X46964287Y-4186128D01*
X46964287Y-4186128D02*
X46750001Y-4114700D01*
X46750001Y-4114700D02*
X46607144Y-3971842D01*
X46607144Y-3971842D02*
X46535715Y-3828985D01*
X46535715Y-3828985D02*
X46464287Y-3543271D01*
X46464287Y-3543271D02*
X46464287Y-3328985D01*
X46464287Y-3328985D02*
X46535715Y-3043271D01*
X46535715Y-3043271D02*
X46607144Y-2900414D01*
X46607144Y-2900414D02*
X46750001Y-2757557D01*
X46750001Y-2757557D02*
X46964287Y-2686128D01*
X46964287Y-2686128D02*
X47107144Y-2686128D01*
X47107144Y-2686128D02*
X47321430Y-2757557D01*
X47321430Y-2757557D02*
X47392858Y-2828985D01*
X48250001Y-4186128D02*
X48107144Y-4114700D01*
X48107144Y-4114700D02*
X48035715Y-4043271D01*
X48035715Y-4043271D02*
X47964287Y-3900414D01*
X47964287Y-3900414D02*
X47964287Y-3471842D01*
X47964287Y-3471842D02*
X48035715Y-3328985D01*
X48035715Y-3328985D02*
X48107144Y-3257557D01*
X48107144Y-3257557D02*
X48250001Y-3186128D01*
X48250001Y-3186128D02*
X48464287Y-3186128D01*
X48464287Y-3186128D02*
X48607144Y-3257557D01*
X48607144Y-3257557D02*
X48678573Y-3328985D01*
X48678573Y-3328985D02*
X48750001Y-3471842D01*
X48750001Y-3471842D02*
X48750001Y-3900414D01*
X48750001Y-3900414D02*
X48678573Y-4043271D01*
X48678573Y-4043271D02*
X48607144Y-4114700D01*
X48607144Y-4114700D02*
X48464287Y-4186128D01*
X48464287Y-4186128D02*
X48250001Y-4186128D01*
X49392858Y-3186128D02*
X49392858Y-4186128D01*
X49392858Y-3328985D02*
X49464287Y-3257557D01*
X49464287Y-3257557D02*
X49607144Y-3186128D01*
X49607144Y-3186128D02*
X49821430Y-3186128D01*
X49821430Y-3186128D02*
X49964287Y-3257557D01*
X49964287Y-3257557D02*
X50035716Y-3400414D01*
X50035716Y-3400414D02*
X50035716Y-4186128D01*
X50535716Y-3186128D02*
X51107144Y-3186128D01*
X50750001Y-2686128D02*
X50750001Y-3971842D01*
X50750001Y-3971842D02*
X50821430Y-4114700D01*
X50821430Y-4114700D02*
X50964287Y-4186128D01*
X50964287Y-4186128D02*
X51107144Y-4186128D01*
X51607144Y-4186128D02*
X51607144Y-3186128D01*
X51607144Y-3471842D02*
X51678573Y-3328985D01*
X51678573Y-3328985D02*
X51750002Y-3257557D01*
X51750002Y-3257557D02*
X51892859Y-3186128D01*
X51892859Y-3186128D02*
X52035716Y-3186128D01*
X52750001Y-4186128D02*
X52607144Y-4114700D01*
X52607144Y-4114700D02*
X52535715Y-4043271D01*
X52535715Y-4043271D02*
X52464287Y-3900414D01*
X52464287Y-3900414D02*
X52464287Y-3471842D01*
X52464287Y-3471842D02*
X52535715Y-3328985D01*
X52535715Y-3328985D02*
X52607144Y-3257557D01*
X52607144Y-3257557D02*
X52750001Y-3186128D01*
X52750001Y-3186128D02*
X52964287Y-3186128D01*
X52964287Y-3186128D02*
X53107144Y-3257557D01*
X53107144Y-3257557D02*
X53178573Y-3328985D01*
X53178573Y-3328985D02*
X53250001Y-3471842D01*
X53250001Y-3471842D02*
X53250001Y-3900414D01*
X53250001Y-3900414D02*
X53178573Y-4043271D01*
X53178573Y-4043271D02*
X53107144Y-4114700D01*
X53107144Y-4114700D02*
X52964287Y-4186128D01*
X52964287Y-4186128D02*
X52750001Y-4186128D01*
X54107144Y-4186128D02*
X53964287Y-4114700D01*
X53964287Y-4114700D02*
X53892858Y-3971842D01*
X53892858Y-3971842D02*
X53892858Y-2686128D01*
X54892858Y-4186128D02*
X54750001Y-4114700D01*
X54750001Y-4114700D02*
X54678572Y-3971842D01*
X54678572Y-3971842D02*
X54678572Y-2686128D01*
X56035715Y-4114700D02*
X55892858Y-4186128D01*
X55892858Y-4186128D02*
X55607144Y-4186128D01*
X55607144Y-4186128D02*
X55464286Y-4114700D01*
X55464286Y-4114700D02*
X55392858Y-3971842D01*
X55392858Y-3971842D02*
X55392858Y-3400414D01*
X55392858Y-3400414D02*
X55464286Y-3257557D01*
X55464286Y-3257557D02*
X55607144Y-3186128D01*
X55607144Y-3186128D02*
X55892858Y-3186128D01*
X55892858Y-3186128D02*
X56035715Y-3257557D01*
X56035715Y-3257557D02*
X56107144Y-3400414D01*
X56107144Y-3400414D02*
X56107144Y-3543271D01*
X56107144Y-3543271D02*
X55392858Y-3686128D01*
X56750000Y-4186128D02*
X56750000Y-3186128D01*
X56750000Y-3471842D02*
X56821429Y-3328985D01*
X56821429Y-3328985D02*
X56892858Y-3257557D01*
X56892858Y-3257557D02*
X57035715Y-3186128D01*
X57035715Y-3186128D02*
X57178572Y-3186128D01*
X58678571Y-3186128D02*
X59035714Y-4186128D01*
X59035714Y-4186128D02*
X59392857Y-3186128D01*
X60250000Y-2686128D02*
X60392857Y-2686128D01*
X60392857Y-2686128D02*
X60535714Y-2757557D01*
X60535714Y-2757557D02*
X60607143Y-2828985D01*
X60607143Y-2828985D02*
X60678571Y-2971842D01*
X60678571Y-2971842D02*
X60750000Y-3257557D01*
X60750000Y-3257557D02*
X60750000Y-3614700D01*
X60750000Y-3614700D02*
X60678571Y-3900414D01*
X60678571Y-3900414D02*
X60607143Y-4043271D01*
X60607143Y-4043271D02*
X60535714Y-4114700D01*
X60535714Y-4114700D02*
X60392857Y-4186128D01*
X60392857Y-4186128D02*
X60250000Y-4186128D01*
X60250000Y-4186128D02*
X60107143Y-4114700D01*
X60107143Y-4114700D02*
X60035714Y-4043271D01*
X60035714Y-4043271D02*
X59964285Y-3900414D01*
X59964285Y-3900414D02*
X59892857Y-3614700D01*
X59892857Y-3614700D02*
X59892857Y-3257557D01*
X59892857Y-3257557D02*
X59964285Y-2971842D01*
X59964285Y-2971842D02*
X60035714Y-2828985D01*
X60035714Y-2828985D02*
X60107143Y-2757557D01*
X60107143Y-2757557D02*
X60250000Y-2686128D01*
X61392856Y-4043271D02*
X61464285Y-4114700D01*
X61464285Y-4114700D02*
X61392856Y-4186128D01*
X61392856Y-4186128D02*
X61321428Y-4114700D01*
X61321428Y-4114700D02*
X61392856Y-4043271D01*
X61392856Y-4043271D02*
X61392856Y-4186128D01*
X62892857Y-4186128D02*
X62035714Y-4186128D01*
X62464285Y-4186128D02*
X62464285Y-2686128D01*
X62464285Y-2686128D02*
X62321428Y-2900414D01*
X62321428Y-2900414D02*
X62178571Y-3043271D01*
X62178571Y-3043271D02*
X62035714Y-3114700D01*
D11*
X36476189Y-76933609D02*
X36809522Y-76933609D01*
X36952379Y-77457419D02*
X36476189Y-77457419D01*
X36476189Y-77457419D02*
X36476189Y-76457419D01*
X36476189Y-76457419D02*
X36952379Y-76457419D01*
X37333332Y-77409800D02*
X37476189Y-77457419D01*
X37476189Y-77457419D02*
X37714284Y-77457419D01*
X37714284Y-77457419D02*
X37809522Y-77409800D01*
X37809522Y-77409800D02*
X37857141Y-77362180D01*
X37857141Y-77362180D02*
X37904760Y-77266942D01*
X37904760Y-77266942D02*
X37904760Y-77171704D01*
X37904760Y-77171704D02*
X37857141Y-77076466D01*
X37857141Y-77076466D02*
X37809522Y-77028847D01*
X37809522Y-77028847D02*
X37714284Y-76981228D01*
X37714284Y-76981228D02*
X37523808Y-76933609D01*
X37523808Y-76933609D02*
X37428570Y-76885990D01*
X37428570Y-76885990D02*
X37380951Y-76838371D01*
X37380951Y-76838371D02*
X37333332Y-76743133D01*
X37333332Y-76743133D02*
X37333332Y-76647895D01*
X37333332Y-76647895D02*
X37380951Y-76552657D01*
X37380951Y-76552657D02*
X37428570Y-76505038D01*
X37428570Y-76505038D02*
X37523808Y-76457419D01*
X37523808Y-76457419D02*
X37761903Y-76457419D01*
X37761903Y-76457419D02*
X37904760Y-76505038D01*
X38333332Y-77457419D02*
X38333332Y-76457419D01*
X38333332Y-76457419D02*
X38714284Y-76457419D01*
X38714284Y-76457419D02*
X38809522Y-76505038D01*
X38809522Y-76505038D02*
X38857141Y-76552657D01*
X38857141Y-76552657D02*
X38904760Y-76647895D01*
X38904760Y-76647895D02*
X38904760Y-76790752D01*
X38904760Y-76790752D02*
X38857141Y-76885990D01*
X38857141Y-76885990D02*
X38809522Y-76933609D01*
X38809522Y-76933609D02*
X38714284Y-76981228D01*
X38714284Y-76981228D02*
X38333332Y-76981228D01*
X39238094Y-76457419D02*
X39857141Y-76457419D01*
X39857141Y-76457419D02*
X39523808Y-76838371D01*
X39523808Y-76838371D02*
X39666665Y-76838371D01*
X39666665Y-76838371D02*
X39761903Y-76885990D01*
X39761903Y-76885990D02*
X39809522Y-76933609D01*
X39809522Y-76933609D02*
X39857141Y-77028847D01*
X39857141Y-77028847D02*
X39857141Y-77266942D01*
X39857141Y-77266942D02*
X39809522Y-77362180D01*
X39809522Y-77362180D02*
X39761903Y-77409800D01*
X39761903Y-77409800D02*
X39666665Y-77457419D01*
X39666665Y-77457419D02*
X39380951Y-77457419D01*
X39380951Y-77457419D02*
X39285713Y-77409800D01*
X39285713Y-77409800D02*
X39238094Y-77362180D01*
X40238094Y-76552657D02*
X40285713Y-76505038D01*
X40285713Y-76505038D02*
X40380951Y-76457419D01*
X40380951Y-76457419D02*
X40619046Y-76457419D01*
X40619046Y-76457419D02*
X40714284Y-76505038D01*
X40714284Y-76505038D02*
X40761903Y-76552657D01*
X40761903Y-76552657D02*
X40809522Y-76647895D01*
X40809522Y-76647895D02*
X40809522Y-76743133D01*
X40809522Y-76743133D02*
X40761903Y-76885990D01*
X40761903Y-76885990D02*
X40190475Y-77457419D01*
X40190475Y-77457419D02*
X40809522Y-77457419D01*
X42238094Y-77790752D02*
X42238094Y-76362180D01*
X43714285Y-77457419D02*
X43714285Y-76457419D01*
X43714285Y-76457419D02*
X44095237Y-76457419D01*
X44095237Y-76457419D02*
X44190475Y-76505038D01*
X44190475Y-76505038D02*
X44238094Y-76552657D01*
X44238094Y-76552657D02*
X44285713Y-76647895D01*
X44285713Y-76647895D02*
X44285713Y-76790752D01*
X44285713Y-76790752D02*
X44238094Y-76885990D01*
X44238094Y-76885990D02*
X44190475Y-76933609D01*
X44190475Y-76933609D02*
X44095237Y-76981228D01*
X44095237Y-76981228D02*
X43714285Y-76981228D01*
X44857142Y-77457419D02*
X44761904Y-77409800D01*
X44761904Y-77409800D02*
X44714285Y-77362180D01*
X44714285Y-77362180D02*
X44666666Y-77266942D01*
X44666666Y-77266942D02*
X44666666Y-76981228D01*
X44666666Y-76981228D02*
X44714285Y-76885990D01*
X44714285Y-76885990D02*
X44761904Y-76838371D01*
X44761904Y-76838371D02*
X44857142Y-76790752D01*
X44857142Y-76790752D02*
X44999999Y-76790752D01*
X44999999Y-76790752D02*
X45095237Y-76838371D01*
X45095237Y-76838371D02*
X45142856Y-76885990D01*
X45142856Y-76885990D02*
X45190475Y-76981228D01*
X45190475Y-76981228D02*
X45190475Y-77266942D01*
X45190475Y-77266942D02*
X45142856Y-77362180D01*
X45142856Y-77362180D02*
X45095237Y-77409800D01*
X45095237Y-77409800D02*
X44999999Y-77457419D01*
X44999999Y-77457419D02*
X44857142Y-77457419D01*
X45619047Y-76933609D02*
X45952380Y-76933609D01*
X46095237Y-77457419D02*
X45619047Y-77457419D01*
X45619047Y-77457419D02*
X45619047Y-76457419D01*
X45619047Y-76457419D02*
X46095237Y-76457419D01*
X47428571Y-76885990D02*
X47333333Y-76838371D01*
X47333333Y-76838371D02*
X47285714Y-76790752D01*
X47285714Y-76790752D02*
X47238095Y-76695514D01*
X47238095Y-76695514D02*
X47238095Y-76647895D01*
X47238095Y-76647895D02*
X47285714Y-76552657D01*
X47285714Y-76552657D02*
X47333333Y-76505038D01*
X47333333Y-76505038D02*
X47428571Y-76457419D01*
X47428571Y-76457419D02*
X47619047Y-76457419D01*
X47619047Y-76457419D02*
X47714285Y-76505038D01*
X47714285Y-76505038D02*
X47761904Y-76552657D01*
X47761904Y-76552657D02*
X47809523Y-76647895D01*
X47809523Y-76647895D02*
X47809523Y-76695514D01*
X47809523Y-76695514D02*
X47761904Y-76790752D01*
X47761904Y-76790752D02*
X47714285Y-76838371D01*
X47714285Y-76838371D02*
X47619047Y-76885990D01*
X47619047Y-76885990D02*
X47428571Y-76885990D01*
X47428571Y-76885990D02*
X47333333Y-76933609D01*
X47333333Y-76933609D02*
X47285714Y-76981228D01*
X47285714Y-76981228D02*
X47238095Y-77076466D01*
X47238095Y-77076466D02*
X47238095Y-77266942D01*
X47238095Y-77266942D02*
X47285714Y-77362180D01*
X47285714Y-77362180D02*
X47333333Y-77409800D01*
X47333333Y-77409800D02*
X47428571Y-77457419D01*
X47428571Y-77457419D02*
X47619047Y-77457419D01*
X47619047Y-77457419D02*
X47714285Y-77409800D01*
X47714285Y-77409800D02*
X47761904Y-77362180D01*
X47761904Y-77362180D02*
X47809523Y-77266942D01*
X47809523Y-77266942D02*
X47809523Y-77076466D01*
X47809523Y-77076466D02*
X47761904Y-76981228D01*
X47761904Y-76981228D02*
X47714285Y-76933609D01*
X47714285Y-76933609D02*
X47619047Y-76885990D01*
X48428571Y-76457419D02*
X48523809Y-76457419D01*
X48523809Y-76457419D02*
X48619047Y-76505038D01*
X48619047Y-76505038D02*
X48666666Y-76552657D01*
X48666666Y-76552657D02*
X48714285Y-76647895D01*
X48714285Y-76647895D02*
X48761904Y-76838371D01*
X48761904Y-76838371D02*
X48761904Y-77076466D01*
X48761904Y-77076466D02*
X48714285Y-77266942D01*
X48714285Y-77266942D02*
X48666666Y-77362180D01*
X48666666Y-77362180D02*
X48619047Y-77409800D01*
X48619047Y-77409800D02*
X48523809Y-77457419D01*
X48523809Y-77457419D02*
X48428571Y-77457419D01*
X48428571Y-77457419D02*
X48333333Y-77409800D01*
X48333333Y-77409800D02*
X48285714Y-77362180D01*
X48285714Y-77362180D02*
X48238095Y-77266942D01*
X48238095Y-77266942D02*
X48190476Y-77076466D01*
X48190476Y-77076466D02*
X48190476Y-76838371D01*
X48190476Y-76838371D02*
X48238095Y-76647895D01*
X48238095Y-76647895D02*
X48285714Y-76552657D01*
X48285714Y-76552657D02*
X48333333Y-76505038D01*
X48333333Y-76505038D02*
X48428571Y-76457419D01*
X49142857Y-76552657D02*
X49190476Y-76505038D01*
X49190476Y-76505038D02*
X49285714Y-76457419D01*
X49285714Y-76457419D02*
X49523809Y-76457419D01*
X49523809Y-76457419D02*
X49619047Y-76505038D01*
X49619047Y-76505038D02*
X49666666Y-76552657D01*
X49666666Y-76552657D02*
X49714285Y-76647895D01*
X49714285Y-76647895D02*
X49714285Y-76743133D01*
X49714285Y-76743133D02*
X49666666Y-76885990D01*
X49666666Y-76885990D02*
X49095238Y-77457419D01*
X49095238Y-77457419D02*
X49714285Y-77457419D01*
X50142857Y-77362180D02*
X50190476Y-77409800D01*
X50190476Y-77409800D02*
X50142857Y-77457419D01*
X50142857Y-77457419D02*
X50095238Y-77409800D01*
X50095238Y-77409800D02*
X50142857Y-77362180D01*
X50142857Y-77362180D02*
X50142857Y-77457419D01*
X50523809Y-76457419D02*
X51142856Y-76457419D01*
X51142856Y-76457419D02*
X50809523Y-76838371D01*
X50809523Y-76838371D02*
X50952380Y-76838371D01*
X50952380Y-76838371D02*
X51047618Y-76885990D01*
X51047618Y-76885990D02*
X51095237Y-76933609D01*
X51095237Y-76933609D02*
X51142856Y-77028847D01*
X51142856Y-77028847D02*
X51142856Y-77266942D01*
X51142856Y-77266942D02*
X51095237Y-77362180D01*
X51095237Y-77362180D02*
X51047618Y-77409800D01*
X51047618Y-77409800D02*
X50952380Y-77457419D01*
X50952380Y-77457419D02*
X50666666Y-77457419D01*
X50666666Y-77457419D02*
X50571428Y-77409800D01*
X50571428Y-77409800D02*
X50523809Y-77362180D01*
X51999999Y-77457419D02*
X51999999Y-76933609D01*
X51999999Y-76933609D02*
X51952380Y-76838371D01*
X51952380Y-76838371D02*
X51857142Y-76790752D01*
X51857142Y-76790752D02*
X51666666Y-76790752D01*
X51666666Y-76790752D02*
X51571428Y-76838371D01*
X51999999Y-77409800D02*
X51904761Y-77457419D01*
X51904761Y-77457419D02*
X51666666Y-77457419D01*
X51666666Y-77457419D02*
X51571428Y-77409800D01*
X51571428Y-77409800D02*
X51523809Y-77314561D01*
X51523809Y-77314561D02*
X51523809Y-77219323D01*
X51523809Y-77219323D02*
X51571428Y-77124085D01*
X51571428Y-77124085D02*
X51666666Y-77076466D01*
X51666666Y-77076466D02*
X51904761Y-77076466D01*
X51904761Y-77076466D02*
X51999999Y-77028847D01*
X52333333Y-76790752D02*
X52714285Y-76790752D01*
X52476190Y-76457419D02*
X52476190Y-77314561D01*
X52476190Y-77314561D02*
X52523809Y-77409800D01*
X52523809Y-77409800D02*
X52619047Y-77457419D01*
X52619047Y-77457419D02*
X52714285Y-77457419D01*
X54047619Y-77790752D02*
X54047619Y-76362180D01*
X55952381Y-76790752D02*
X55952381Y-77457419D01*
X55714286Y-76409800D02*
X55476191Y-77124085D01*
X55476191Y-77124085D02*
X56095238Y-77124085D01*
X56380953Y-77457419D02*
X56904762Y-76790752D01*
X56380953Y-76790752D02*
X56904762Y-77457419D01*
X57285715Y-77457419D02*
X57285715Y-76457419D01*
X57285715Y-76457419D02*
X57666667Y-76457419D01*
X57666667Y-76457419D02*
X57761905Y-76505038D01*
X57761905Y-76505038D02*
X57809524Y-76552657D01*
X57809524Y-76552657D02*
X57857143Y-76647895D01*
X57857143Y-76647895D02*
X57857143Y-76790752D01*
X57857143Y-76790752D02*
X57809524Y-76885990D01*
X57809524Y-76885990D02*
X57761905Y-76933609D01*
X57761905Y-76933609D02*
X57666667Y-76981228D01*
X57666667Y-76981228D02*
X57285715Y-76981228D01*
X58190477Y-76457419D02*
X58428572Y-77457419D01*
X58428572Y-77457419D02*
X58619048Y-76743133D01*
X58619048Y-76743133D02*
X58809524Y-77457419D01*
X58809524Y-77457419D02*
X59047620Y-76457419D01*
X59428572Y-77457419D02*
X59428572Y-76457419D01*
X59428572Y-76457419D02*
X59761905Y-77171704D01*
X59761905Y-77171704D02*
X60095238Y-76457419D01*
X60095238Y-76457419D02*
X60095238Y-77457419D01*
X61666667Y-76933609D02*
X61333334Y-76933609D01*
X61333334Y-77457419D02*
X61333334Y-76457419D01*
X61333334Y-76457419D02*
X61809524Y-76457419D01*
X62619048Y-77457419D02*
X62619048Y-76933609D01*
X62619048Y-76933609D02*
X62571429Y-76838371D01*
X62571429Y-76838371D02*
X62476191Y-76790752D01*
X62476191Y-76790752D02*
X62285715Y-76790752D01*
X62285715Y-76790752D02*
X62190477Y-76838371D01*
X62619048Y-77409800D02*
X62523810Y-77457419D01*
X62523810Y-77457419D02*
X62285715Y-77457419D01*
X62285715Y-77457419D02*
X62190477Y-77409800D01*
X62190477Y-77409800D02*
X62142858Y-77314561D01*
X62142858Y-77314561D02*
X62142858Y-77219323D01*
X62142858Y-77219323D02*
X62190477Y-77124085D01*
X62190477Y-77124085D02*
X62285715Y-77076466D01*
X62285715Y-77076466D02*
X62523810Y-77076466D01*
X62523810Y-77076466D02*
X62619048Y-77028847D01*
X63095239Y-76790752D02*
X63095239Y-77457419D01*
X63095239Y-76885990D02*
X63142858Y-76838371D01*
X63142858Y-76838371D02*
X63238096Y-76790752D01*
X63238096Y-76790752D02*
X63380953Y-76790752D01*
X63380953Y-76790752D02*
X63476191Y-76838371D01*
X63476191Y-76838371D02*
X63523810Y-76933609D01*
X63523810Y-76933609D02*
X63523810Y-77457419D01*
D10*
X15221666Y-23924819D02*
X15221666Y-24639104D01*
X15221666Y-24639104D02*
X15174047Y-24781961D01*
X15174047Y-24781961D02*
X15078809Y-24877200D01*
X15078809Y-24877200D02*
X14935952Y-24924819D01*
X14935952Y-24924819D02*
X14840714Y-24924819D01*
X16221666Y-24924819D02*
X15650238Y-24924819D01*
X15935952Y-24924819D02*
X15935952Y-23924819D01*
X15935952Y-23924819D02*
X15840714Y-24067676D01*
X15840714Y-24067676D02*
X15745476Y-24162914D01*
X15745476Y-24162914D02*
X15650238Y-24210533D01*
X45766666Y-4694819D02*
X45766666Y-5409104D01*
X45766666Y-5409104D02*
X45719047Y-5551961D01*
X45719047Y-5551961D02*
X45623809Y-5647200D01*
X45623809Y-5647200D02*
X45480952Y-5694819D01*
X45480952Y-5694819D02*
X45385714Y-5694819D01*
X46195238Y-4790057D02*
X46242857Y-4742438D01*
X46242857Y-4742438D02*
X46338095Y-4694819D01*
X46338095Y-4694819D02*
X46576190Y-4694819D01*
X46576190Y-4694819D02*
X46671428Y-4742438D01*
X46671428Y-4742438D02*
X46719047Y-4790057D01*
X46719047Y-4790057D02*
X46766666Y-4885295D01*
X46766666Y-4885295D02*
X46766666Y-4980533D01*
X46766666Y-4980533D02*
X46719047Y-5123390D01*
X46719047Y-5123390D02*
X46147619Y-5694819D01*
X46147619Y-5694819D02*
X46766666Y-5694819D01*
X56466666Y-4694819D02*
X56466666Y-5409104D01*
X56466666Y-5409104D02*
X56419047Y-5551961D01*
X56419047Y-5551961D02*
X56323809Y-5647200D01*
X56323809Y-5647200D02*
X56180952Y-5694819D01*
X56180952Y-5694819D02*
X56085714Y-5694819D01*
X56847619Y-4694819D02*
X57466666Y-4694819D01*
X57466666Y-4694819D02*
X57133333Y-5075771D01*
X57133333Y-5075771D02*
X57276190Y-5075771D01*
X57276190Y-5075771D02*
X57371428Y-5123390D01*
X57371428Y-5123390D02*
X57419047Y-5171009D01*
X57419047Y-5171009D02*
X57466666Y-5266247D01*
X57466666Y-5266247D02*
X57466666Y-5504342D01*
X57466666Y-5504342D02*
X57419047Y-5599580D01*
X57419047Y-5599580D02*
X57371428Y-5647200D01*
X57371428Y-5647200D02*
X57276190Y-5694819D01*
X57276190Y-5694819D02*
X56990476Y-5694819D01*
X56990476Y-5694819D02*
X56895238Y-5647200D01*
X56895238Y-5647200D02*
X56847619Y-5599580D01*
X67066666Y-4694819D02*
X67066666Y-5409104D01*
X67066666Y-5409104D02*
X67019047Y-5551961D01*
X67019047Y-5551961D02*
X66923809Y-5647200D01*
X66923809Y-5647200D02*
X66780952Y-5694819D01*
X66780952Y-5694819D02*
X66685714Y-5694819D01*
X67971428Y-5028152D02*
X67971428Y-5694819D01*
X67733333Y-4647200D02*
X67495238Y-5361485D01*
X67495238Y-5361485D02*
X68114285Y-5361485D01*
X77766666Y-4694819D02*
X77766666Y-5409104D01*
X77766666Y-5409104D02*
X77719047Y-5551961D01*
X77719047Y-5551961D02*
X77623809Y-5647200D01*
X77623809Y-5647200D02*
X77480952Y-5694819D01*
X77480952Y-5694819D02*
X77385714Y-5694819D01*
X78719047Y-4694819D02*
X78242857Y-4694819D01*
X78242857Y-4694819D02*
X78195238Y-5171009D01*
X78195238Y-5171009D02*
X78242857Y-5123390D01*
X78242857Y-5123390D02*
X78338095Y-5075771D01*
X78338095Y-5075771D02*
X78576190Y-5075771D01*
X78576190Y-5075771D02*
X78671428Y-5123390D01*
X78671428Y-5123390D02*
X78719047Y-5171009D01*
X78719047Y-5171009D02*
X78766666Y-5266247D01*
X78766666Y-5266247D02*
X78766666Y-5504342D01*
X78766666Y-5504342D02*
X78719047Y-5599580D01*
X78719047Y-5599580D02*
X78671428Y-5647200D01*
X78671428Y-5647200D02*
X78576190Y-5694819D01*
X78576190Y-5694819D02*
X78338095Y-5694819D01*
X78338095Y-5694819D02*
X78242857Y-5647200D01*
X78242857Y-5647200D02*
X78195238Y-5599580D01*
X87641666Y-3714819D02*
X87641666Y-4429104D01*
X87641666Y-4429104D02*
X87594047Y-4571961D01*
X87594047Y-4571961D02*
X87498809Y-4667200D01*
X87498809Y-4667200D02*
X87355952Y-4714819D01*
X87355952Y-4714819D02*
X87260714Y-4714819D01*
X88546428Y-3714819D02*
X88355952Y-3714819D01*
X88355952Y-3714819D02*
X88260714Y-3762438D01*
X88260714Y-3762438D02*
X88213095Y-3810057D01*
X88213095Y-3810057D02*
X88117857Y-3952914D01*
X88117857Y-3952914D02*
X88070238Y-4143390D01*
X88070238Y-4143390D02*
X88070238Y-4524342D01*
X88070238Y-4524342D02*
X88117857Y-4619580D01*
X88117857Y-4619580D02*
X88165476Y-4667200D01*
X88165476Y-4667200D02*
X88260714Y-4714819D01*
X88260714Y-4714819D02*
X88451190Y-4714819D01*
X88451190Y-4714819D02*
X88546428Y-4667200D01*
X88546428Y-4667200D02*
X88594047Y-4619580D01*
X88594047Y-4619580D02*
X88641666Y-4524342D01*
X88641666Y-4524342D02*
X88641666Y-4286247D01*
X88641666Y-4286247D02*
X88594047Y-4191009D01*
X88594047Y-4191009D02*
X88546428Y-4143390D01*
X88546428Y-4143390D02*
X88451190Y-4095771D01*
X88451190Y-4095771D02*
X88260714Y-4095771D01*
X88260714Y-4095771D02*
X88165476Y-4143390D01*
X88165476Y-4143390D02*
X88117857Y-4191009D01*
X88117857Y-4191009D02*
X88070238Y-4286247D01*
X85286666Y-49454819D02*
X85286666Y-50169104D01*
X85286666Y-50169104D02*
X85239047Y-50311961D01*
X85239047Y-50311961D02*
X85143809Y-50407200D01*
X85143809Y-50407200D02*
X85000952Y-50454819D01*
X85000952Y-50454819D02*
X84905714Y-50454819D01*
X85667619Y-49454819D02*
X86334285Y-49454819D01*
X86334285Y-49454819D02*
X85905714Y-50454819D01*
X21508095Y-29074819D02*
X21508095Y-29884342D01*
X21508095Y-29884342D02*
X21555714Y-29979580D01*
X21555714Y-29979580D02*
X21603333Y-30027200D01*
X21603333Y-30027200D02*
X21698571Y-30074819D01*
X21698571Y-30074819D02*
X21889047Y-30074819D01*
X21889047Y-30074819D02*
X21984285Y-30027200D01*
X21984285Y-30027200D02*
X22031904Y-29979580D01*
X22031904Y-29979580D02*
X22079523Y-29884342D01*
X22079523Y-29884342D02*
X22079523Y-29074819D01*
X23079523Y-30074819D02*
X22508095Y-30074819D01*
X22793809Y-30074819D02*
X22793809Y-29074819D01*
X22793809Y-29074819D02*
X22698571Y-29217676D01*
X22698571Y-29217676D02*
X22603333Y-29312914D01*
X22603333Y-29312914D02*
X22508095Y-29360533D01*
X26238095Y-49804819D02*
X26238095Y-50614342D01*
X26238095Y-50614342D02*
X26285714Y-50709580D01*
X26285714Y-50709580D02*
X26333333Y-50757200D01*
X26333333Y-50757200D02*
X26428571Y-50804819D01*
X26428571Y-50804819D02*
X26619047Y-50804819D01*
X26619047Y-50804819D02*
X26714285Y-50757200D01*
X26714285Y-50757200D02*
X26761904Y-50709580D01*
X26761904Y-50709580D02*
X26809523Y-50614342D01*
X26809523Y-50614342D02*
X26809523Y-49804819D01*
X27238095Y-49900057D02*
X27285714Y-49852438D01*
X27285714Y-49852438D02*
X27380952Y-49804819D01*
X27380952Y-49804819D02*
X27619047Y-49804819D01*
X27619047Y-49804819D02*
X27714285Y-49852438D01*
X27714285Y-49852438D02*
X27761904Y-49900057D01*
X27761904Y-49900057D02*
X27809523Y-49995295D01*
X27809523Y-49995295D02*
X27809523Y-50090533D01*
X27809523Y-50090533D02*
X27761904Y-50233390D01*
X27761904Y-50233390D02*
X27190476Y-50804819D01*
X27190476Y-50804819D02*
X27809523Y-50804819D01*
X15453333Y-43084819D02*
X14977143Y-43084819D01*
X14977143Y-43084819D02*
X14977143Y-42084819D01*
X16310476Y-43084819D02*
X15739048Y-43084819D01*
X16024762Y-43084819D02*
X16024762Y-42084819D01*
X16024762Y-42084819D02*
X15929524Y-42227676D01*
X15929524Y-42227676D02*
X15834286Y-42322914D01*
X15834286Y-42322914D02*
X15739048Y-42370533D01*
X21611905Y-63734819D02*
X21611905Y-62734819D01*
X21611905Y-62734819D02*
X21850000Y-62734819D01*
X21850000Y-62734819D02*
X21992857Y-62782438D01*
X21992857Y-62782438D02*
X22088095Y-62877676D01*
X22088095Y-62877676D02*
X22135714Y-62972914D01*
X22135714Y-62972914D02*
X22183333Y-63163390D01*
X22183333Y-63163390D02*
X22183333Y-63306247D01*
X22183333Y-63306247D02*
X22135714Y-63496723D01*
X22135714Y-63496723D02*
X22088095Y-63591961D01*
X22088095Y-63591961D02*
X21992857Y-63687200D01*
X21992857Y-63687200D02*
X21850000Y-63734819D01*
X21850000Y-63734819D02*
X21611905Y-63734819D01*
X23135714Y-63734819D02*
X22564286Y-63734819D01*
X22850000Y-63734819D02*
X22850000Y-62734819D01*
X22850000Y-62734819D02*
X22754762Y-62877676D01*
X22754762Y-62877676D02*
X22659524Y-62972914D01*
X22659524Y-62972914D02*
X22564286Y-63020533D01*
X15738095Y-64854819D02*
X15738095Y-63854819D01*
X16309523Y-64854819D02*
X15880952Y-64283390D01*
X16309523Y-63854819D02*
X15738095Y-64426247D01*
X9583333Y-27109580D02*
X9535714Y-27157200D01*
X9535714Y-27157200D02*
X9392857Y-27204819D01*
X9392857Y-27204819D02*
X9297619Y-27204819D01*
X9297619Y-27204819D02*
X9154762Y-27157200D01*
X9154762Y-27157200D02*
X9059524Y-27061961D01*
X9059524Y-27061961D02*
X9011905Y-26966723D01*
X9011905Y-26966723D02*
X8964286Y-26776247D01*
X8964286Y-26776247D02*
X8964286Y-26633390D01*
X8964286Y-26633390D02*
X9011905Y-26442914D01*
X9011905Y-26442914D02*
X9059524Y-26347676D01*
X9059524Y-26347676D02*
X9154762Y-26252438D01*
X9154762Y-26252438D02*
X9297619Y-26204819D01*
X9297619Y-26204819D02*
X9392857Y-26204819D01*
X9392857Y-26204819D02*
X9535714Y-26252438D01*
X9535714Y-26252438D02*
X9583333Y-26300057D01*
X10535714Y-27204819D02*
X9964286Y-27204819D01*
X10250000Y-27204819D02*
X10250000Y-26204819D01*
X10250000Y-26204819D02*
X10154762Y-26347676D01*
X10154762Y-26347676D02*
X10059524Y-26442914D01*
X10059524Y-26442914D02*
X9964286Y-26490533D01*
X8583333Y-57109580D02*
X8535714Y-57157200D01*
X8535714Y-57157200D02*
X8392857Y-57204819D01*
X8392857Y-57204819D02*
X8297619Y-57204819D01*
X8297619Y-57204819D02*
X8154762Y-57157200D01*
X8154762Y-57157200D02*
X8059524Y-57061961D01*
X8059524Y-57061961D02*
X8011905Y-56966723D01*
X8011905Y-56966723D02*
X7964286Y-56776247D01*
X7964286Y-56776247D02*
X7964286Y-56633390D01*
X7964286Y-56633390D02*
X8011905Y-56442914D01*
X8011905Y-56442914D02*
X8059524Y-56347676D01*
X8059524Y-56347676D02*
X8154762Y-56252438D01*
X8154762Y-56252438D02*
X8297619Y-56204819D01*
X8297619Y-56204819D02*
X8392857Y-56204819D01*
X8392857Y-56204819D02*
X8535714Y-56252438D01*
X8535714Y-56252438D02*
X8583333Y-56300057D01*
X8964286Y-56300057D02*
X9011905Y-56252438D01*
X9011905Y-56252438D02*
X9107143Y-56204819D01*
X9107143Y-56204819D02*
X9345238Y-56204819D01*
X9345238Y-56204819D02*
X9440476Y-56252438D01*
X9440476Y-56252438D02*
X9488095Y-56300057D01*
X9488095Y-56300057D02*
X9535714Y-56395295D01*
X9535714Y-56395295D02*
X9535714Y-56490533D01*
X9535714Y-56490533D02*
X9488095Y-56633390D01*
X9488095Y-56633390D02*
X8916667Y-57204819D01*
X8916667Y-57204819D02*
X9535714Y-57204819D01*
X53844819Y-62191904D02*
X54654342Y-62191904D01*
X54654342Y-62191904D02*
X54749580Y-62144285D01*
X54749580Y-62144285D02*
X54797200Y-62096666D01*
X54797200Y-62096666D02*
X54844819Y-62001428D01*
X54844819Y-62001428D02*
X54844819Y-61810952D01*
X54844819Y-61810952D02*
X54797200Y-61715714D01*
X54797200Y-61715714D02*
X54749580Y-61668095D01*
X54749580Y-61668095D02*
X54654342Y-61620476D01*
X54654342Y-61620476D02*
X53844819Y-61620476D01*
X53844819Y-61239523D02*
X53844819Y-60620476D01*
X53844819Y-60620476D02*
X54225771Y-60953809D01*
X54225771Y-60953809D02*
X54225771Y-60810952D01*
X54225771Y-60810952D02*
X54273390Y-60715714D01*
X54273390Y-60715714D02*
X54321009Y-60668095D01*
X54321009Y-60668095D02*
X54416247Y-60620476D01*
X54416247Y-60620476D02*
X54654342Y-60620476D01*
X54654342Y-60620476D02*
X54749580Y-60668095D01*
X54749580Y-60668095D02*
X54797200Y-60715714D01*
X54797200Y-60715714D02*
X54844819Y-60810952D01*
X54844819Y-60810952D02*
X54844819Y-61096666D01*
X54844819Y-61096666D02*
X54797200Y-61191904D01*
X54797200Y-61191904D02*
X54749580Y-61239523D01*
X81238095Y-51554819D02*
X81238095Y-52364342D01*
X81238095Y-52364342D02*
X81285714Y-52459580D01*
X81285714Y-52459580D02*
X81333333Y-52507200D01*
X81333333Y-52507200D02*
X81428571Y-52554819D01*
X81428571Y-52554819D02*
X81619047Y-52554819D01*
X81619047Y-52554819D02*
X81714285Y-52507200D01*
X81714285Y-52507200D02*
X81761904Y-52459580D01*
X81761904Y-52459580D02*
X81809523Y-52364342D01*
X81809523Y-52364342D02*
X81809523Y-51554819D01*
X82714285Y-51888152D02*
X82714285Y-52554819D01*
X82476190Y-51507200D02*
X82238095Y-52221485D01*
X82238095Y-52221485D02*
X82857142Y-52221485D01*
%TO.C,J1*%
D12*
X24000000Y-19970000D02*
X24000000Y-18970000D01*
X24000000Y-18970000D02*
X23500000Y-19470000D01*
X23500000Y-19470000D02*
X24000000Y-19970000D01*
X23315000Y-23350000D02*
X23315000Y-5390000D01*
X23315000Y-5390000D02*
X7795000Y-5390000D01*
X7795000Y-23350000D02*
X23315000Y-23350000D01*
X7795000Y-23350000D02*
X7795000Y-5390000D01*
%TO.C,J2*%
X44720000Y-6240000D02*
X46100000Y-6240000D01*
X44720000Y-7620000D02*
X44720000Y-6240000D01*
X44720000Y-8890000D02*
X44720000Y-16620000D01*
X44720000Y-8890000D02*
X47480000Y-8890000D01*
X44720000Y-16620000D02*
X47480000Y-16620000D01*
X47480000Y-8890000D02*
X47480000Y-16620000D01*
%TO.C,J3*%
X55420000Y-6240000D02*
X56800000Y-6240000D01*
X55420000Y-7620000D02*
X55420000Y-6240000D01*
X55420000Y-8890000D02*
X55420000Y-16620000D01*
X55420000Y-8890000D02*
X58180000Y-8890000D01*
X55420000Y-16620000D02*
X58180000Y-16620000D01*
X58180000Y-8890000D02*
X58180000Y-16620000D01*
%TO.C,J4*%
X66020000Y-6240000D02*
X67400000Y-6240000D01*
X66020000Y-7620000D02*
X66020000Y-6240000D01*
X66020000Y-8890000D02*
X66020000Y-16620000D01*
X66020000Y-8890000D02*
X68780000Y-8890000D01*
X66020000Y-16620000D02*
X68780000Y-16620000D01*
X68780000Y-8890000D02*
X68780000Y-16620000D01*
%TO.C,J5*%
X76720000Y-6240000D02*
X78100000Y-6240000D01*
X76720000Y-7620000D02*
X76720000Y-6240000D01*
X76720000Y-8890000D02*
X76720000Y-16620000D01*
X76720000Y-8890000D02*
X79480000Y-8890000D01*
X76720000Y-16620000D02*
X79480000Y-16620000D01*
X79480000Y-8890000D02*
X79480000Y-16620000D01*
%TO.C,J6*%
X83380000Y-8460000D02*
X83380000Y-9360000D01*
X83380000Y-12060000D02*
X83380000Y-14790000D01*
X83380000Y-14790000D02*
X92570000Y-14790000D01*
X83500000Y-5380000D02*
X92450000Y-5380000D01*
X92570000Y-8460000D02*
X92570000Y-9360000D01*
X92570000Y-12060000D02*
X92570000Y-14790000D01*
%TO.C,J7*%
X86620000Y-51380000D02*
X86620000Y-50000000D01*
X88000000Y-51380000D02*
X86620000Y-51380000D01*
X89270000Y-51380000D02*
X94460000Y-51380000D01*
X89270000Y-51380000D02*
X89270000Y-48620000D01*
X94460000Y-51380000D02*
X94460000Y-48620000D01*
X89270000Y-48620000D02*
X94460000Y-48620000D01*
%TO.C,U1*%
X19620000Y-30620000D02*
X21000000Y-30620000D01*
X19620000Y-32000000D02*
X19620000Y-30620000D01*
X19620000Y-33270000D02*
X19620000Y-41000000D01*
X19620000Y-33270000D02*
X22270000Y-33270000D01*
X19620000Y-41000000D02*
X24920000Y-41000000D01*
X22270000Y-30620000D02*
X24920000Y-30620000D01*
X22270000Y-33270000D02*
X22270000Y-30620000D01*
X24920000Y-30620000D02*
X24920000Y-41000000D01*
%TO.C,U2*%
X22175000Y-51800000D02*
X22175000Y-52750000D01*
X22175000Y-62200000D02*
X22175000Y-61250000D01*
X23540000Y-51800000D02*
X22175000Y-51800000D01*
X23540000Y-62200000D02*
X22175000Y-62200000D01*
X19350000Y-52790000D02*
X19010000Y-52320000D01*
X19690000Y-52320000D01*
X19350000Y-52790000D01*
G36*
X19350000Y-52790000D02*
G01*
X19010000Y-52320000D01*
X19690000Y-52320000D01*
X19350000Y-52790000D01*
G37*
%TO.C,L1*%
X9240000Y-46000000D02*
X10000000Y-46000000D01*
X22000000Y-46000000D02*
X21240000Y-46000000D01*
X10000000Y-43630000D02*
X21240000Y-43630000D01*
X21240000Y-48370000D01*
X10000000Y-48370000D01*
X10000000Y-43630000D01*
%TO.C,D1*%
X17480000Y-64280000D02*
X27220000Y-64280000D01*
X17480000Y-65160000D02*
X17480000Y-64280000D01*
X17480000Y-68840000D02*
X17480000Y-69720000D01*
X17480000Y-69720000D02*
X27220000Y-69720000D01*
X18905000Y-64280000D02*
X18905000Y-69720000D01*
X19025000Y-64280000D02*
X19025000Y-69720000D01*
X19145000Y-64280000D02*
X19145000Y-69720000D01*
X27220000Y-64280000D02*
X27220000Y-65160000D01*
X27220000Y-69720000D02*
X27220000Y-68840000D01*
%TO.C,C1*%
X13870000Y-32000000D02*
G75*
G02*
X5630000Y-32000000I-4120000J0D01*
G01*
X5630000Y-32000000D02*
G75*
G02*
X13870000Y-32000000I4120000J0D01*
G01*
%TO.C,C2*%
X12870000Y-62000000D02*
G75*
G02*
X4630000Y-62000000I-4120000J0D01*
G01*
X4630000Y-62000000D02*
G75*
G02*
X12870000Y-62000000I4120000J0D01*
G01*
%TO.C,U3*%
X55880000Y-37140000D02*
X55880000Y-43300000D01*
X55880000Y-37140000D02*
X74120000Y-37140000D01*
X55880000Y-62100000D02*
X55880000Y-62880000D01*
X55880000Y-62880000D02*
X56880000Y-62880000D01*
X74120000Y-37140000D02*
X74120000Y-43555000D01*
X74120000Y-62100000D02*
X74120000Y-62880000D01*
X74120000Y-62880000D02*
X73120000Y-62880000D01*
X55875000Y-44025000D02*
X55375000Y-44025000D01*
X55875000Y-43525000D01*
X55875000Y-44025000D01*
G36*
X55875000Y-44025000D02*
G01*
X55375000Y-44025000D01*
X55875000Y-43525000D01*
X55875000Y-44025000D01*
G37*
%TO.C,U4*%
X79940000Y-52940000D02*
X84060000Y-52940000D01*
X79940000Y-52995000D02*
X79940000Y-52940000D01*
X79940000Y-63060000D02*
X79940000Y-63005000D01*
X84060000Y-52940000D02*
X84060000Y-52995000D01*
X84060000Y-63005000D02*
X84060000Y-63060000D01*
X84060000Y-63060000D02*
X79940000Y-63060000D01*
X79400000Y-52990000D02*
X79160000Y-52660000D01*
X79640000Y-52660000D01*
X79400000Y-52990000D01*
G36*
X79400000Y-52990000D02*
G01*
X79160000Y-52660000D01*
X79640000Y-52660000D01*
X79400000Y-52990000D01*
G37*
%TD*%
M02*
