%TF.GenerationSoftware,KiCad,Pcbnew,10.0.3*%
%TF.CreationDate,2026-06-06T19:20:42+02:00*%
%TF.ProjectId,PoE-FanController,506f452d-4661-46e4-936f-6e74726f6c6c,v0.1*%
%TF.SameCoordinates,Original*%
%TF.FileFunction,Other,User*%
%FSLAX46Y46*%
G04 Gerber Fmt 4.6, Leading zero omitted, Abs format (unit mm)*
G04 Created by KiCad (PCBNEW 10.0.3) date 2026-06-06 19:20:42*
%MOMM*%
%LPD*%
G01*
G04 APERTURE LIST*
%ADD10C,0.050000*%
G04 APERTURE END LIST*
%TO.C,J1*%
D10*
X23710000Y-23740000D02*
X23710000Y-5000000D01*
X23710000Y-23740000D02*
X7400000Y-23740000D01*
X7400000Y-5000000D02*
X23710000Y-5000000D01*
X7400000Y-5000000D02*
X7400000Y-23740000D01*
%TO.C,J2*%
X44330000Y-5850000D02*
X47870000Y-5850000D01*
X47870000Y-17010000D01*
X44330000Y-17010000D01*
X44330000Y-5850000D01*
%TO.C,J3*%
X55030000Y-5850000D02*
X58570000Y-5850000D01*
X58570000Y-17010000D01*
X55030000Y-17010000D01*
X55030000Y-5850000D01*
%TO.C,J4*%
X65630000Y-5850000D02*
X69170000Y-5850000D01*
X69170000Y-17010000D01*
X65630000Y-17010000D01*
X65630000Y-5850000D01*
%TO.C,J5*%
X76330000Y-5850000D02*
X79870000Y-5850000D01*
X79870000Y-17010000D01*
X76330000Y-17010000D01*
X76330000Y-5850000D01*
%TO.C,J6*%
X82700000Y-5000000D02*
X82700000Y-15170000D01*
X82700000Y-5000000D02*
X93250000Y-5000000D01*
X82700000Y-15170000D02*
X93250000Y-15170000D01*
X93250000Y-5000000D02*
X93250000Y-15170000D01*
%TO.C,J7*%
X86230000Y-48230000D02*
X94850000Y-48230000D01*
X94850000Y-51770000D01*
X86230000Y-51770000D01*
X86230000Y-48230000D01*
%TO.C,U1*%
X19230000Y-30230000D02*
X25320000Y-30230000D01*
X25320000Y-41390000D01*
X19230000Y-41390000D01*
X19230000Y-30230000D01*
%TO.C,U2*%
X16800000Y-51350000D02*
X33450000Y-51350000D01*
X33450000Y-62650000D01*
X16800000Y-62650000D01*
X16800000Y-51350000D01*
%TO.C,L1*%
X6750000Y-43500000D02*
X24500000Y-43500000D01*
X24500000Y-48500000D01*
X6750000Y-48500000D01*
X6750000Y-43500000D01*
%TO.C,D1*%
X14150000Y-64150000D02*
X30550000Y-64150000D01*
X30550000Y-69850000D01*
X14150000Y-69850000D01*
X14150000Y-64150000D01*
%TO.C,C1*%
X14000000Y-32000000D02*
G75*
G02*
X5500000Y-32000000I-4250000J0D01*
G01*
X5500000Y-32000000D02*
G75*
G02*
X14000000Y-32000000I4250000J0D01*
G01*
%TO.C,C2*%
X13000000Y-62000000D02*
G75*
G02*
X4500000Y-62000000I-4250000J0D01*
G01*
X4500000Y-62000000D02*
G75*
G02*
X13000000Y-62000000I4250000J0D01*
G01*
%TO.C,U3*%
X41000000Y-22260000D02*
X41000000Y-43200000D01*
X41000000Y-43200000D02*
X55250000Y-43200000D01*
X55250000Y-63510000D02*
X55250000Y-43200000D01*
X55250000Y-63510000D02*
X74750000Y-63510000D01*
X74750000Y-43200000D02*
X74750000Y-63510000D01*
X74750000Y-43200000D02*
X89000000Y-43200000D01*
X89000000Y-22260000D02*
X41000000Y-22260000D01*
X89000000Y-43200000D02*
X89000000Y-22260000D01*
%TO.C,U4*%
X78300000Y-53000000D02*
X79800000Y-53000000D01*
X78300000Y-63000000D02*
X78300000Y-53000000D01*
X79800000Y-52800000D02*
X84200000Y-52800000D01*
X79800000Y-53000000D02*
X79800000Y-52800000D01*
X79800000Y-63000000D02*
X78300000Y-63000000D01*
X79800000Y-63200000D02*
X79800000Y-63000000D01*
X84200000Y-52800000D02*
X84200000Y-53000000D01*
X84200000Y-53000000D02*
X85700000Y-53000000D01*
X84200000Y-63000000D02*
X84200000Y-63200000D01*
X84200000Y-63200000D02*
X79800000Y-63200000D01*
X85700000Y-53000000D02*
X85700000Y-63000000D01*
X85700000Y-63000000D02*
X84200000Y-63000000D01*
%TD*%
M02*
