%TF.GenerationSoftware,KiCad,Pcbnew,10.0.3*%
%TF.CreationDate,2026-06-06T19:20:42+02:00*%
%TF.ProjectId,PoE-FanController,506f452d-4661-46e4-936f-6e74726f6c6c,v0.1*%
%TF.SameCoordinates,Original*%
%TF.FileFunction,Copper,L2,Bot*%
%TF.FilePolarity,Positive*%
%FSLAX46Y46*%
G04 Gerber Fmt 4.6, Leading zero omitted, Abs format (unit mm)*
G04 Created by KiCad (PCBNEW 10.0.3) date 2026-06-06 19:20:42*
%MOMM*%
%LPD*%
G01*
G04 APERTURE LIST*
G04 Aperture macros list*
%AMRoundRect*
0 Rectangle with rounded corners*
0 $1 Rounding radius*
0 $2 $3 $4 $5 $6 $7 $8 $9 X,Y pos of 4 corners*
0 Add a 4 corners polygon primitive as box body*
4,1,4,$2,$3,$4,$5,$6,$7,$8,$9,$2,$3,0*
0 Add four circle primitives for the rounded corners*
1,1,$1+$1,$2,$3*
1,1,$1+$1,$4,$5*
1,1,$1+$1,$6,$7*
1,1,$1+$1,$8,$9*
0 Add four rect primitives between the rounded corners*
20,1,$1+$1,$2,$3,$4,$5,0*
20,1,$1+$1,$4,$5,$6,$7,0*
20,1,$1+$1,$6,$7,$8,$9,0*
20,1,$1+$1,$8,$9,$2,$3,0*%
G04 Aperture macros list end*
%TA.AperFunction,ComponentPad*%
%ADD10R,1.500000X1.500000*%
%TD*%
%TA.AperFunction,ComponentPad*%
%ADD11C,1.500000*%
%TD*%
%TA.AperFunction,ComponentPad*%
%ADD12R,1.700000X1.700000*%
%TD*%
%TA.AperFunction,ComponentPad*%
%ADD13C,1.700000*%
%TD*%
%TA.AperFunction,ComponentPad*%
%ADD14C,0.700000*%
%TD*%
%TA.AperFunction,ComponentPad*%
%ADD15O,0.900000X2.400000*%
%TD*%
%TA.AperFunction,ComponentPad*%
%ADD16O,0.900000X1.700000*%
%TD*%
%TA.AperFunction,ComponentPad*%
%ADD17C,2.000000*%
%TD*%
%TA.AperFunction,ComponentPad*%
%ADD18RoundRect,0.250000X-1.350000X-1.350000X1.350000X-1.350000X1.350000X1.350000X-1.350000X1.350000X0*%
%TD*%
%TA.AperFunction,ComponentPad*%
%ADD19C,3.200000*%
%TD*%
%TA.AperFunction,ComponentPad*%
%ADD20C,1.600000*%
%TD*%
%TA.AperFunction,HeatsinkPad*%
%ADD21C,0.600000*%
%TD*%
G04 APERTURE END LIST*
D10*
%TO.P,J1,1*%
%TO.N,N/C*%
X20000000Y-19470000D03*
D11*
%TO.P,J1,2*%
X18730000Y-22010000D03*
%TO.P,J1,3*%
X17460000Y-19470000D03*
%TO.P,J1,4*%
X16190000Y-22010000D03*
%TO.P,J1,5*%
X14920000Y-19470000D03*
%TO.P,J1,6*%
X13650000Y-22010000D03*
%TO.P,J1,7*%
X12380000Y-19470000D03*
%TO.P,J1,8*%
X11110000Y-22010000D03*
%TD*%
D12*
%TO.P,J2,1*%
%TO.N,N/C*%
X46100000Y-7620000D03*
D13*
%TO.P,J2,2*%
X46100000Y-10160000D03*
%TO.P,J2,3*%
X46100000Y-12700000D03*
%TO.P,J2,4*%
X46100000Y-15240000D03*
%TD*%
D12*
%TO.P,J3,1*%
%TO.N,N/C*%
X56800000Y-7620000D03*
D13*
%TO.P,J3,2*%
X56800000Y-10160000D03*
%TO.P,J3,3*%
X56800000Y-12700000D03*
%TO.P,J3,4*%
X56800000Y-15240000D03*
%TD*%
D12*
%TO.P,J4,1*%
%TO.N,N/C*%
X67400000Y-7620000D03*
D13*
%TO.P,J4,2*%
X67400000Y-10160000D03*
%TO.P,J4,3*%
X67400000Y-12700000D03*
%TO.P,J4,4*%
X67400000Y-15240000D03*
%TD*%
D12*
%TO.P,J5,1*%
%TO.N,N/C*%
X78100000Y-7620000D03*
D13*
%TO.P,J5,2*%
X78100000Y-10160000D03*
%TO.P,J5,3*%
X78100000Y-12700000D03*
%TO.P,J5,4*%
X78100000Y-15240000D03*
%TD*%
D14*
%TO.P,J6,A1*%
%TO.N,N/C*%
X85000000Y-6060000D03*
%TO.P,J6,A4*%
X85850000Y-6060000D03*
%TO.P,J6,A5*%
X86700000Y-6060000D03*
%TO.P,J6,A6*%
X87550000Y-6060000D03*
%TO.P,J6,A7*%
X88400000Y-6060000D03*
%TO.P,J6,A8*%
X89250000Y-6060000D03*
%TO.P,J6,A9*%
X90100000Y-6060000D03*
%TO.P,J6,A12*%
X90950000Y-6060000D03*
%TO.P,J6,B1*%
X90950000Y-7410000D03*
%TO.P,J6,B4*%
X90100000Y-7410000D03*
%TO.P,J6,B5*%
X89250000Y-7410000D03*
%TO.P,J6,B6*%
X88400000Y-7410000D03*
%TO.P,J6,B7*%
X87550000Y-7410000D03*
%TO.P,J6,B8*%
X86700000Y-7410000D03*
%TO.P,J6,B9*%
X85850000Y-7410000D03*
%TO.P,J6,B12*%
X85000000Y-7410000D03*
D15*
%TO.P,J6,SH*%
X83650000Y-7040000D03*
D16*
X83650000Y-10420000D03*
D15*
X92300000Y-7040000D03*
D16*
X92300000Y-10420000D03*
%TD*%
D12*
%TO.P,J7,1*%
%TO.N,N/C*%
X88000000Y-50000000D03*
D13*
%TO.P,J7,2*%
X90540000Y-50000000D03*
%TO.P,J7,3*%
X93080000Y-50000000D03*
%TD*%
D12*
%TO.P,U1,1*%
%TO.N,N/C*%
X21000000Y-32000000D03*
D13*
%TO.P,U1,2*%
X23540000Y-32000000D03*
%TO.P,U1,3*%
X21000000Y-34540000D03*
%TO.P,U1,4*%
X23540000Y-34540000D03*
%TO.P,U1,5*%
X21000000Y-37080000D03*
%TO.P,U1,6*%
X23540000Y-37080000D03*
%TO.P,U1,7*%
X21000000Y-39620000D03*
%TO.P,U1,8*%
X23540000Y-39620000D03*
%TD*%
D17*
%TO.P,L1,1*%
%TO.N,N/C*%
X8000000Y-46000000D03*
%TO.P,L1,2*%
X23240000Y-46000000D03*
%TD*%
D18*
%TO.P,D1,1*%
%TO.N,N/C*%
X16000000Y-67000000D03*
D19*
%TO.P,D1,2*%
X28700000Y-67000000D03*
%TD*%
D20*
%TO.P,C1,1*%
%TO.N,N/C*%
X8000000Y-32000000D03*
%TO.P,C1,2*%
X11500000Y-32000000D03*
%TD*%
%TO.P,C2,1*%
%TO.N,N/C*%
X7000000Y-62000000D03*
%TO.P,C2,2*%
X10500000Y-62000000D03*
%TD*%
D21*
%TO.P,U3,39*%
%TO.N,N/C*%
X62795000Y-51327500D03*
X62795000Y-52852500D03*
X63557500Y-50565000D03*
X63557500Y-52090000D03*
X63557500Y-53615000D03*
X64320000Y-51327500D03*
X64320000Y-52852500D03*
X65082500Y-50565000D03*
X65082500Y-52090000D03*
X65082500Y-53615000D03*
X65845000Y-51327500D03*
X65845000Y-52852500D03*
%TD*%
M02*
