%TF.GenerationSoftware,KiCad,Pcbnew,10.0.3*%
%TF.CreationDate,2026-06-06T19:20:42+02:00*%
%TF.ProjectId,PoE-FanController,506f452d-4661-46e4-936f-6e74726f6c6c,v0.1*%
%TF.SameCoordinates,Original*%
%TF.FileFunction,Soldermask,Top*%
%TF.FilePolarity,Negative*%
%FSLAX46Y46*%
G04 Gerber Fmt 4.6, Leading zero omitted, Abs format (unit mm)*
G04 Created by KiCad (PCBNEW 10.0.3) date 2026-06-06 19:20:42*
%MOMM*%
%LPD*%
G01*
G04 APERTURE LIST*
G04 Aperture macros list*
%AMRoundRect*
0 Rectangle with rounded corners*
0 $1 Rounding radius*
0 $2 $3 $4 $5 $6 $7 $8 $9 X,Y pos of 4 corners*
0 Add a 4 corners polygon primitive as box body*
4,1,4,$2,$3,$4,$5,$6,$7,$8,$9,$2,$3,0*
0 Add four circle primitives for the rounded corners*
1,1,$1+$1,$2,$3*
1,1,$1+$1,$4,$5*
1,1,$1+$1,$6,$7*
1,1,$1+$1,$8,$9*
0 Add four rect primitives between the rounded corners*
20,1,$1+$1,$2,$3,$4,$5,0*
20,1,$1+$1,$4,$5,$6,$7,0*
20,1,$1+$1,$6,$7,$8,$9,0*
20,1,$1+$1,$8,$9,$2,$3,0*%
G04 Aperture macros list end*
%ADD10C,3.400000*%
%ADD11RoundRect,0.100000X-0.750000X-0.750000X0.750000X-0.750000X0.750000X0.750000X-0.750000X0.750000X0*%
%ADD12C,1.700000*%
%ADD13RoundRect,0.100000X-0.850000X-0.850000X0.850000X-0.850000X0.850000X0.850000X-0.850000X0.850000X0*%
%ADD14C,1.900000*%
%ADD15C,0.900000*%
%ADD16O,1.100000X2.600000*%
%ADD17O,1.100000X1.900000*%
%ADD18RoundRect,0.295455X-2.104545X-0.354545X2.104545X-0.354545X2.104545X0.354545X-2.104545X0.354545X0*%
%ADD19RoundRect,0.255322X-4.544678X-5.244678X4.544678X-5.244678X4.544678X5.244678X-4.544678X5.244678X0*%
%ADD20C,2.200000*%
%ADD21RoundRect,0.265625X-1.434375X-1.434375X1.434375X-1.434375X1.434375X1.434375X-1.434375X1.434375X0*%
%ADD22C,1.800000*%
%ADD23RoundRect,0.100000X-0.750000X-0.450000X0.750000X-0.450000X0.750000X0.450000X-0.750000X0.450000X0*%
%ADD24RoundRect,0.100000X0.450000X-0.750000X0.450000X0.750000X-0.450000X0.750000X-0.450000X-0.750000X0*%
%ADD25C,0.800000*%
%ADD26RoundRect,0.100000X-2.100000X-2.100000X2.100000X-2.100000X2.100000X2.100000X-2.100000X2.100000X0*%
%ADD27RoundRect,0.200000X-0.875000X-0.200000X0.875000X-0.200000X0.875000X0.200000X-0.875000X0.200000X0*%
G04 APERTURE END LIST*
D10*
%TO.C,J1*%
X21270000Y-13120000D03*
X9840000Y-13120000D03*
D11*
X20000000Y-19470000D03*
D12*
X18730000Y-22010000D03*
X17460000Y-19470000D03*
X16190000Y-22010000D03*
X14920000Y-19470000D03*
X13650000Y-22010000D03*
X12380000Y-19470000D03*
X11110000Y-22010000D03*
%TD*%
D13*
%TO.C,J2*%
X46100000Y-7620000D03*
D14*
X46100000Y-10160000D03*
X46100000Y-12700000D03*
X46100000Y-15240000D03*
%TD*%
D13*
%TO.C,J3*%
X56800000Y-7620000D03*
D14*
X56800000Y-10160000D03*
X56800000Y-12700000D03*
X56800000Y-15240000D03*
%TD*%
D13*
%TO.C,J4*%
X67400000Y-7620000D03*
D14*
X67400000Y-10160000D03*
X67400000Y-12700000D03*
X67400000Y-15240000D03*
%TD*%
D13*
%TO.C,J5*%
X78100000Y-7620000D03*
D14*
X78100000Y-10160000D03*
X78100000Y-12700000D03*
X78100000Y-15240000D03*
%TD*%
D15*
%TO.C,J6*%
X85000000Y-6060000D03*
X85850000Y-6060000D03*
X86700000Y-6060000D03*
X87550000Y-6060000D03*
X88400000Y-6060000D03*
X89250000Y-6060000D03*
X90100000Y-6060000D03*
X90950000Y-6060000D03*
X90950000Y-7410000D03*
X90100000Y-7410000D03*
X89250000Y-7410000D03*
X88400000Y-7410000D03*
X87550000Y-7410000D03*
X86700000Y-7410000D03*
X85850000Y-7410000D03*
X85000000Y-7410000D03*
D16*
X83650000Y-7040000D03*
D17*
X83650000Y-10420000D03*
D16*
X92300000Y-7040000D03*
D17*
X92300000Y-10420000D03*
%TD*%
D13*
%TO.C,J7*%
X88000000Y-50000000D03*
D14*
X90540000Y-50000000D03*
X93080000Y-50000000D03*
%TD*%
D13*
%TO.C,U1*%
X21000000Y-32000000D03*
D14*
X23540000Y-32000000D03*
X21000000Y-34540000D03*
X23540000Y-34540000D03*
X21000000Y-37080000D03*
X23540000Y-37080000D03*
X21000000Y-39620000D03*
X23540000Y-39620000D03*
%TD*%
D18*
%TO.C,U2*%
X19350000Y-53600000D03*
X19350000Y-55300000D03*
X19350000Y-57000000D03*
D19*
X28500000Y-57000000D03*
D18*
X19350000Y-58700000D03*
X19350000Y-60400000D03*
%TD*%
D20*
%TO.C,L1*%
X8000000Y-46000000D03*
X23240000Y-46000000D03*
%TD*%
D21*
%TO.C,D1*%
X16000000Y-67000000D03*
D10*
X28700000Y-67000000D03*
%TD*%
D22*
%TO.C,C1*%
X8000000Y-32000000D03*
X11500000Y-32000000D03*
%TD*%
%TO.C,C2*%
X7000000Y-62000000D03*
X10500000Y-62000000D03*
%TD*%
D23*
%TO.C,U3*%
X56250000Y-44750000D03*
X56250000Y-46020000D03*
X56250000Y-47290000D03*
X56250000Y-48560000D03*
X56250000Y-49830000D03*
X56250000Y-51100000D03*
X56250000Y-52370000D03*
X56250000Y-53640000D03*
X56250000Y-54910000D03*
X56250000Y-56180000D03*
X56250000Y-57450000D03*
X56250000Y-58720000D03*
X56250000Y-59990000D03*
X56250000Y-61260000D03*
D24*
X59290000Y-62510000D03*
X60560000Y-62510000D03*
X61830000Y-62510000D03*
X63100000Y-62510000D03*
X64370000Y-62510000D03*
X65640000Y-62510000D03*
X66910000Y-62510000D03*
X68180000Y-62510000D03*
X69450000Y-62510000D03*
X70720000Y-62510000D03*
D23*
X73750000Y-61260000D03*
X73750000Y-59990000D03*
X73750000Y-58720000D03*
X73750000Y-57450000D03*
X73750000Y-56180000D03*
X73750000Y-54910000D03*
X73750000Y-53640000D03*
X73750000Y-52370000D03*
X73750000Y-51100000D03*
X73750000Y-49830000D03*
X73750000Y-48560000D03*
X73750000Y-47290000D03*
X73750000Y-46020000D03*
X73750000Y-44750000D03*
D25*
X62795000Y-51327500D03*
X62795000Y-52852500D03*
X63557500Y-50565000D03*
X63557500Y-52090000D03*
X63557500Y-53615000D03*
X64320000Y-51327500D03*
D26*
X64320000Y-52090000D03*
D25*
X64320000Y-52852500D03*
X65082500Y-50565000D03*
X65082500Y-52090000D03*
X65082500Y-53615000D03*
X65845000Y-51327500D03*
X65845000Y-52852500D03*
%TD*%
D27*
%TO.C,U4*%
X79525000Y-53555000D03*
X79525000Y-54825000D03*
X79525000Y-56095000D03*
X79525000Y-57365000D03*
X79525000Y-58635000D03*
X79525000Y-59905000D03*
X79525000Y-61175000D03*
X79525000Y-62445000D03*
X84475000Y-62445000D03*
X84475000Y-61175000D03*
X84475000Y-59905000D03*
X84475000Y-58635000D03*
X84475000Y-57365000D03*
X84475000Y-56095000D03*
X84475000Y-54825000D03*
X84475000Y-53555000D03*
%TD*%
M02*
