M48
; DRILL file KiCad 10.0.3 date 2026-06-06T21:22:49
; FORMAT={-:-/ absolute / metric / decimal}
; #@! TF.CreationDate,2026-06-06T21:22:49+02:00
; #@! TF.GenerationSoftware,Kicad,Pcbnew,10.0.3
; #@! TF.FileFunction,MixedPlating,1,2
FMAT,2
METRIC
; #@! TA.AperFunction,Plated,PTH,ComponentDrill
T1C0.200
; #@! TA.AperFunction,Plated,PTH,ComponentDrill
T2C0.400
; #@! TA.AperFunction,Plated,PTH,ComponentDrill
T3C0.600
; #@! TA.AperFunction,Plated,PTH,ComponentDrill
T4C0.760
; #@! TA.AperFunction,Plated,PTH,ComponentDrill
T5C0.800
; #@! TA.AperFunction,Plated,PTH,ComponentDrill
T6C0.900
; #@! TA.AperFunction,Plated,PTH,ComponentDrill
T7C1.000
; #@! TA.AperFunction,Plated,PTH,ComponentDrill
T8C1.100
; #@! TA.AperFunction,Plated,PTH,ComponentDrill
T9C1.600
; #@! TA.AperFunction,NonPlated,NPTH,ComponentDrill
T10C3.200
%
G90
G05
T1
X62.795Y-51.328
X62.795Y-52.852
X63.557Y-50.565
X63.557Y-52.09
X63.557Y-53.615
X64.32Y-51.328
X64.32Y-52.852
X65.082Y-50.565
X65.082Y-52.09
X65.082Y-53.615
X65.845Y-51.328
X65.845Y-52.852
T2
X85.0Y-6.06
X85.0Y-7.41
X85.85Y-6.06
X85.85Y-7.41
X86.7Y-6.06
X86.7Y-7.41
X87.55Y-6.06
X87.55Y-7.41
X88.4Y-6.06
X88.4Y-7.41
X89.25Y-6.06
X89.25Y-7.41
X90.1Y-6.06
X90.1Y-7.41
X90.95Y-6.06
X90.95Y-7.41
T4
X11.11Y-22.01
X12.38Y-19.47
X13.65Y-22.01
X14.92Y-19.47
X16.19Y-22.01
X17.46Y-19.47
X18.73Y-22.01
X20.0Y-19.47
T5
X7.0Y-62.0
X8.0Y-32.0
X10.5Y-62.0
X11.5Y-32.0
X70.0Y-68.5
X80.16Y-68.5
T6
X64.0Y-68.5
X66.54Y-68.5
T7
X8.0Y-46.0
X21.0Y-32.0
X21.0Y-34.54
X21.0Y-37.08
X21.0Y-39.62
X23.24Y-46.0
X23.54Y-32.0
X23.54Y-34.54
X23.54Y-37.08
X23.54Y-39.62
X46.1Y-7.62
X46.1Y-10.16
X46.1Y-12.7
X46.1Y-15.24
X56.8Y-7.62
X56.8Y-10.16
X56.8Y-12.7
X56.8Y-15.24
X67.4Y-7.62
X67.4Y-10.16
X67.4Y-12.7
X67.4Y-15.24
X78.1Y-7.62
X78.1Y-10.16
X78.1Y-12.7
X78.1Y-15.24
X88.0Y-50.0
X90.54Y-50.0
X93.08Y-50.0
T8
X44.0Y-68.5
X44.0Y-73.0
X50.5Y-68.5
X50.5Y-73.0
X54.0Y-68.5
X54.0Y-73.0
X60.5Y-68.5
X60.5Y-73.0
T9
X16.0Y-67.0
X28.7Y-67.0
T10
X9.84Y-13.12
X21.27Y-13.12
T3
X83.65Y-6.29G85X83.65Y-7.79
G05
X83.65Y-10.02G85X83.65Y-10.82
G05
X92.3Y-6.29G85X92.3Y-7.79
G05
X92.3Y-10.02G85X92.3Y-10.82
G05
M30
