M48
; DRILL file {KiCad 9.0.5} date 2026-05-12T13:11:25+0200
; FORMAT={-:-/ absolute / metric / decimal}
; #@! TF.CreationDate,2026-05-12T13:11:25+02:00
; #@! TF.GenerationSoftware,Kicad,Pcbnew,9.0.5
; #@! TF.FileFunction,Plated,1,2,PTH
FMAT,2
METRIC
; #@! TA.AperFunction,Plated,PTH,ComponentDrill
T1C0.700
; #@! TA.AperFunction,Plated,PTH,ComponentDrill
T2C0.800
; #@! TA.AperFunction,Plated,PTH,ComponentDrill
T3C0.900
; #@! TA.AperFunction,Plated,PTH,ComponentDrill
T4C1.000
; #@! TA.AperFunction,Plated,PTH,ComponentDrill
T5C1.200
; #@! TA.AperFunction,Plated,PTH,ComponentDrill
T6C1.300
; #@! TA.AperFunction,Plated,PTH,ComponentDrill
T7C1.600
%
G90
G05
T1
X8.9Y93.772
X11.44Y93.772
X11.54Y86.022
X11.54Y78.402
X11.59Y103.952
X11.59Y96.332
X12.13Y71.302
X12.13Y63.682
X12.16Y53.342
X12.16Y45.722
X12.18Y44.662
X12.18Y37.042
X18.34Y88.602
X18.34Y80.982
T2
X11.57Y120.352
X11.57Y105.112
X15.51Y127.412
X17.83Y55.802
X25.45Y55.802
X30.75Y127.412
T3
X41.56Y34.472
X41.56Y31.932
X41.58Y127.452
X41.58Y124.912
T4
X7.18Y89.642
X7.18Y87.102
X7.18Y84.562
X7.18Y82.022
X7.18Y79.482
X7.18Y76.942
X7.18Y74.402
X7.18Y71.862
X7.18Y69.322
X7.18Y66.782
X13.008Y130.841
X15.548Y142.315
X15.548Y130.841
X18.088Y142.315
X18.088Y130.841
X20.628Y142.315
X20.628Y130.841
X23.168Y142.315
X23.168Y130.841
X32.58Y89.642
X32.58Y87.102
X32.58Y84.562
X32.58Y82.022
X32.58Y79.482
X32.58Y76.942
X32.58Y74.402
X32.58Y71.862
X32.58Y69.322
X32.58Y66.782
T5
X2.5Y124.882
X15.51Y122.642
X15.51Y92.162
X32.98Y124.882
X41.21Y142.682
X41.21Y109.682
X41.21Y49.682
X41.21Y16.682
X45.025Y149.662
X45.025Y142.682
X45.025Y56.662
X45.025Y49.682
X51.38Y134.432
X51.38Y41.432
T6
X41.203Y21.777
X41.203Y11.617
X41.212Y114.767
X41.212Y104.607
T7
X41.21Y146.492
X41.21Y138.872
X41.21Y53.492
X41.21Y45.872
X45.025Y113.492
X45.025Y20.492
X45.66Y105.872
X45.66Y12.872
M30
