%TF.GenerationSoftware,KiCad,Pcbnew,9.0.5*%
%TF.CreationDate,2026-05-12T13:11:20+02:00*%
%TF.ProjectId,DMX_NODE,444d585f-4e4f-4444-952e-6b696361645f,0.8*%
%TF.SameCoordinates,PX5cfbb60PYb220960*%
%TF.FileFunction,Legend,Bot*%
%TF.FilePolarity,Positive*%
%FSLAX46Y46*%
G04 Gerber Fmt 4.6, Leading zero omitted, Abs format (unit mm)*
G04 Created by KiCad (PCBNEW 9.0.5) date 2026-05-12 13:11:20*
%MOMM*%
%LPD*%
G01*
G04 APERTURE LIST*
%ADD10C,0.150000*%
%ADD11C,0.127000*%
%ADD12C,0.120000*%
G04 APERTURE END LIST*
D10*
X10106904Y57369347D02*
X10106904Y56559824D01*
X10106904Y56559824D02*
X10059285Y56464586D01*
X10059285Y56464586D02*
X10011666Y56416966D01*
X10011666Y56416966D02*
X9916428Y56369347D01*
X9916428Y56369347D02*
X9725952Y56369347D01*
X9725952Y56369347D02*
X9630714Y56416966D01*
X9630714Y56416966D02*
X9583095Y56464586D01*
X9583095Y56464586D02*
X9535476Y56559824D01*
X9535476Y56559824D02*
X9535476Y57369347D01*
X8535476Y56369347D02*
X9106904Y56369347D01*
X8821190Y56369347D02*
X8821190Y57369347D01*
X8821190Y57369347D02*
X8916428Y57226490D01*
X8916428Y57226490D02*
X9011666Y57131252D01*
X9011666Y57131252D02*
X9106904Y57083633D01*
X38054819Y33939761D02*
X37054819Y33939761D01*
X37054819Y33939761D02*
X37054819Y33701666D01*
X37054819Y33701666D02*
X37102438Y33558809D01*
X37102438Y33558809D02*
X37197676Y33463571D01*
X37197676Y33463571D02*
X37292914Y33415952D01*
X37292914Y33415952D02*
X37483390Y33368333D01*
X37483390Y33368333D02*
X37626247Y33368333D01*
X37626247Y33368333D02*
X37816723Y33415952D01*
X37816723Y33415952D02*
X37911961Y33463571D01*
X37911961Y33463571D02*
X38007200Y33558809D01*
X38007200Y33558809D02*
X38054819Y33701666D01*
X38054819Y33701666D02*
X38054819Y33939761D01*
X37150057Y32987380D02*
X37102438Y32939761D01*
X37102438Y32939761D02*
X37054819Y32844523D01*
X37054819Y32844523D02*
X37054819Y32606428D01*
X37054819Y32606428D02*
X37102438Y32511190D01*
X37102438Y32511190D02*
X37150057Y32463571D01*
X37150057Y32463571D02*
X37245295Y32415952D01*
X37245295Y32415952D02*
X37340533Y32415952D01*
X37340533Y32415952D02*
X37483390Y32463571D01*
X37483390Y32463571D02*
X38054819Y33034999D01*
X38054819Y33034999D02*
X38054819Y32415952D01*
X34347319Y110020000D02*
X35061604Y110020000D01*
X35061604Y110020000D02*
X35204461Y110067619D01*
X35204461Y110067619D02*
X35299700Y110162857D01*
X35299700Y110162857D02*
X35347319Y110305714D01*
X35347319Y110305714D02*
X35347319Y110400952D01*
X35347319Y109020000D02*
X35347319Y109591428D01*
X35347319Y109305714D02*
X34347319Y109305714D01*
X34347319Y109305714D02*
X34490176Y109400952D01*
X34490176Y109400952D02*
X34585414Y109496190D01*
X34585414Y109496190D02*
X34633033Y109591428D01*
X34337319Y17030000D02*
X35051604Y17030000D01*
X35051604Y17030000D02*
X35194461Y17077619D01*
X35194461Y17077619D02*
X35289700Y17172857D01*
X35289700Y17172857D02*
X35337319Y17315714D01*
X35337319Y17315714D02*
X35337319Y17410952D01*
X34432557Y16601428D02*
X34384938Y16553809D01*
X34384938Y16553809D02*
X34337319Y16458571D01*
X34337319Y16458571D02*
X34337319Y16220476D01*
X34337319Y16220476D02*
X34384938Y16125238D01*
X34384938Y16125238D02*
X34432557Y16077619D01*
X34432557Y16077619D02*
X34527795Y16030000D01*
X34527795Y16030000D02*
X34623033Y16030000D01*
X34623033Y16030000D02*
X34765890Y16077619D01*
X34765890Y16077619D02*
X35337319Y16649047D01*
X35337319Y16649047D02*
X35337319Y16030000D01*
X13664819Y71511190D02*
X14379104Y71511190D01*
X14379104Y71511190D02*
X14521961Y71558809D01*
X14521961Y71558809D02*
X14617200Y71654047D01*
X14617200Y71654047D02*
X14664819Y71796904D01*
X14664819Y71796904D02*
X14664819Y71892142D01*
X14664819Y71034999D02*
X13664819Y71034999D01*
X13664819Y71034999D02*
X13664819Y70654047D01*
X13664819Y70654047D02*
X13712438Y70558809D01*
X13712438Y70558809D02*
X13760057Y70511190D01*
X13760057Y70511190D02*
X13855295Y70463571D01*
X13855295Y70463571D02*
X13998152Y70463571D01*
X13998152Y70463571D02*
X14093390Y70511190D01*
X14093390Y70511190D02*
X14141009Y70558809D01*
X14141009Y70558809D02*
X14188628Y70654047D01*
X14188628Y70654047D02*
X14188628Y71034999D01*
X14664819Y69511190D02*
X14664819Y70082618D01*
X14664819Y69796904D02*
X13664819Y69796904D01*
X13664819Y69796904D02*
X13807676Y69892142D01*
X13807676Y69892142D02*
X13902914Y69987380D01*
X13902914Y69987380D02*
X13950533Y70082618D01*
X13664819Y69177856D02*
X13664819Y68558809D01*
X13664819Y68558809D02*
X14045771Y68892142D01*
X14045771Y68892142D02*
X14045771Y68749285D01*
X14045771Y68749285D02*
X14093390Y68654047D01*
X14093390Y68654047D02*
X14141009Y68606428D01*
X14141009Y68606428D02*
X14236247Y68558809D01*
X14236247Y68558809D02*
X14474342Y68558809D01*
X14474342Y68558809D02*
X14569580Y68606428D01*
X14569580Y68606428D02*
X14617200Y68654047D01*
X14617200Y68654047D02*
X14664819Y68749285D01*
X14664819Y68749285D02*
X14664819Y69034999D01*
X14664819Y69034999D02*
X14617200Y69130237D01*
X14617200Y69130237D02*
X14569580Y69177856D01*
X13534819Y50841190D02*
X14249104Y50841190D01*
X14249104Y50841190D02*
X14391961Y50888809D01*
X14391961Y50888809D02*
X14487200Y50984047D01*
X14487200Y50984047D02*
X14534819Y51126904D01*
X14534819Y51126904D02*
X14534819Y51222142D01*
X14534819Y50364999D02*
X13534819Y50364999D01*
X13534819Y50364999D02*
X13534819Y49984047D01*
X13534819Y49984047D02*
X13582438Y49888809D01*
X13582438Y49888809D02*
X13630057Y49841190D01*
X13630057Y49841190D02*
X13725295Y49793571D01*
X13725295Y49793571D02*
X13868152Y49793571D01*
X13868152Y49793571D02*
X13963390Y49841190D01*
X13963390Y49841190D02*
X14011009Y49888809D01*
X14011009Y49888809D02*
X14058628Y49984047D01*
X14058628Y49984047D02*
X14058628Y50364999D01*
X14534819Y48841190D02*
X14534819Y49412618D01*
X14534819Y49126904D02*
X13534819Y49126904D01*
X13534819Y49126904D02*
X13677676Y49222142D01*
X13677676Y49222142D02*
X13772914Y49317380D01*
X13772914Y49317380D02*
X13820533Y49412618D01*
X13630057Y48460237D02*
X13582438Y48412618D01*
X13582438Y48412618D02*
X13534819Y48317380D01*
X13534819Y48317380D02*
X13534819Y48079285D01*
X13534819Y48079285D02*
X13582438Y47984047D01*
X13582438Y47984047D02*
X13630057Y47936428D01*
X13630057Y47936428D02*
X13725295Y47888809D01*
X13725295Y47888809D02*
X13820533Y47888809D01*
X13820533Y47888809D02*
X13963390Y47936428D01*
X13963390Y47936428D02*
X14534819Y48507856D01*
X14534819Y48507856D02*
X14534819Y47888809D01*
X50293333Y36416847D02*
X50293333Y35702562D01*
X50293333Y35702562D02*
X50340952Y35559705D01*
X50340952Y35559705D02*
X50436190Y35464466D01*
X50436190Y35464466D02*
X50579047Y35416847D01*
X50579047Y35416847D02*
X50674285Y35416847D01*
X49388571Y36416847D02*
X49579047Y36416847D01*
X49579047Y36416847D02*
X49674285Y36369228D01*
X49674285Y36369228D02*
X49721904Y36321609D01*
X49721904Y36321609D02*
X49817142Y36178752D01*
X49817142Y36178752D02*
X49864761Y35988276D01*
X49864761Y35988276D02*
X49864761Y35607324D01*
X49864761Y35607324D02*
X49817142Y35512086D01*
X49817142Y35512086D02*
X49769523Y35464466D01*
X49769523Y35464466D02*
X49674285Y35416847D01*
X49674285Y35416847D02*
X49483809Y35416847D01*
X49483809Y35416847D02*
X49388571Y35464466D01*
X49388571Y35464466D02*
X49340952Y35512086D01*
X49340952Y35512086D02*
X49293333Y35607324D01*
X49293333Y35607324D02*
X49293333Y35845419D01*
X49293333Y35845419D02*
X49340952Y35940657D01*
X49340952Y35940657D02*
X49388571Y35988276D01*
X49388571Y35988276D02*
X49483809Y36035895D01*
X49483809Y36035895D02*
X49674285Y36035895D01*
X49674285Y36035895D02*
X49769523Y35988276D01*
X49769523Y35988276D02*
X49817142Y35940657D01*
X49817142Y35940657D02*
X49864761Y35845419D01*
X9074819Y83521190D02*
X9789104Y83521190D01*
X9789104Y83521190D02*
X9931961Y83568809D01*
X9931961Y83568809D02*
X10027200Y83664047D01*
X10027200Y83664047D02*
X10074819Y83806904D01*
X10074819Y83806904D02*
X10074819Y83902142D01*
X10074819Y83044999D02*
X9074819Y83044999D01*
X9074819Y83044999D02*
X9074819Y82664047D01*
X9074819Y82664047D02*
X9122438Y82568809D01*
X9122438Y82568809D02*
X9170057Y82521190D01*
X9170057Y82521190D02*
X9265295Y82473571D01*
X9265295Y82473571D02*
X9408152Y82473571D01*
X9408152Y82473571D02*
X9503390Y82521190D01*
X9503390Y82521190D02*
X9551009Y82568809D01*
X9551009Y82568809D02*
X9598628Y82664047D01*
X9598628Y82664047D02*
X9598628Y83044999D01*
X10074819Y81521190D02*
X10074819Y82092618D01*
X10074819Y81806904D02*
X9074819Y81806904D01*
X9074819Y81806904D02*
X9217676Y81902142D01*
X9217676Y81902142D02*
X9312914Y81997380D01*
X9312914Y81997380D02*
X9360533Y82092618D01*
X10074819Y80568809D02*
X10074819Y81140237D01*
X10074819Y80854523D02*
X9074819Y80854523D01*
X9074819Y80854523D02*
X9217676Y80949761D01*
X9217676Y80949761D02*
X9312914Y81044999D01*
X9312914Y81044999D02*
X9360533Y81140237D01*
X17906666Y120806847D02*
X18239999Y121283038D01*
X18478094Y120806847D02*
X18478094Y121806847D01*
X18478094Y121806847D02*
X18097142Y121806847D01*
X18097142Y121806847D02*
X18001904Y121759228D01*
X18001904Y121759228D02*
X17954285Y121711609D01*
X17954285Y121711609D02*
X17906666Y121616371D01*
X17906666Y121616371D02*
X17906666Y121473514D01*
X17906666Y121473514D02*
X17954285Y121378276D01*
X17954285Y121378276D02*
X18001904Y121330657D01*
X18001904Y121330657D02*
X18097142Y121283038D01*
X18097142Y121283038D02*
X18478094Y121283038D01*
X17001904Y121806847D02*
X17478094Y121806847D01*
X17478094Y121806847D02*
X17525713Y121330657D01*
X17525713Y121330657D02*
X17478094Y121378276D01*
X17478094Y121378276D02*
X17382856Y121425895D01*
X17382856Y121425895D02*
X17144761Y121425895D01*
X17144761Y121425895D02*
X17049523Y121378276D01*
X17049523Y121378276D02*
X17001904Y121330657D01*
X17001904Y121330657D02*
X16954285Y121235419D01*
X16954285Y121235419D02*
X16954285Y120997324D01*
X16954285Y120997324D02*
X17001904Y120902086D01*
X17001904Y120902086D02*
X17049523Y120854466D01*
X17049523Y120854466D02*
X17144761Y120806847D01*
X17144761Y120806847D02*
X17382856Y120806847D01*
X17382856Y120806847D02*
X17478094Y120854466D01*
X17478094Y120854466D02*
X17525713Y120902086D01*
X50293333Y96416847D02*
X50293333Y95702562D01*
X50293333Y95702562D02*
X50340952Y95559705D01*
X50340952Y95559705D02*
X50436190Y95464466D01*
X50436190Y95464466D02*
X50579047Y95416847D01*
X50579047Y95416847D02*
X50674285Y95416847D01*
X49912380Y96416847D02*
X49293333Y96416847D01*
X49293333Y96416847D02*
X49626666Y96035895D01*
X49626666Y96035895D02*
X49483809Y96035895D01*
X49483809Y96035895D02*
X49388571Y95988276D01*
X49388571Y95988276D02*
X49340952Y95940657D01*
X49340952Y95940657D02*
X49293333Y95845419D01*
X49293333Y95845419D02*
X49293333Y95607324D01*
X49293333Y95607324D02*
X49340952Y95512086D01*
X49340952Y95512086D02*
X49388571Y95464466D01*
X49388571Y95464466D02*
X49483809Y95416847D01*
X49483809Y95416847D02*
X49769523Y95416847D01*
X49769523Y95416847D02*
X49864761Y95464466D01*
X49864761Y95464466D02*
X49912380Y95512086D01*
X50293333Y129416847D02*
X50293333Y128702562D01*
X50293333Y128702562D02*
X50340952Y128559705D01*
X50340952Y128559705D02*
X50436190Y128464466D01*
X50436190Y128464466D02*
X50579047Y128416847D01*
X50579047Y128416847D02*
X50674285Y128416847D01*
X49388571Y129083514D02*
X49388571Y128416847D01*
X49626666Y129464466D02*
X49864761Y128750181D01*
X49864761Y128750181D02*
X49245714Y128750181D01*
X38074819Y126919761D02*
X37074819Y126919761D01*
X37074819Y126919761D02*
X37074819Y126681666D01*
X37074819Y126681666D02*
X37122438Y126538809D01*
X37122438Y126538809D02*
X37217676Y126443571D01*
X37217676Y126443571D02*
X37312914Y126395952D01*
X37312914Y126395952D02*
X37503390Y126348333D01*
X37503390Y126348333D02*
X37646247Y126348333D01*
X37646247Y126348333D02*
X37836723Y126395952D01*
X37836723Y126395952D02*
X37931961Y126443571D01*
X37931961Y126443571D02*
X38027200Y126538809D01*
X38027200Y126538809D02*
X38074819Y126681666D01*
X38074819Y126681666D02*
X38074819Y126919761D01*
X38074819Y125395952D02*
X38074819Y125967380D01*
X38074819Y125681666D02*
X37074819Y125681666D01*
X37074819Y125681666D02*
X37217676Y125776904D01*
X37217676Y125776904D02*
X37312914Y125872142D01*
X37312914Y125872142D02*
X37360533Y125967380D01*
X11344819Y108235000D02*
X12059104Y108235000D01*
X12059104Y108235000D02*
X12201961Y108282619D01*
X12201961Y108282619D02*
X12297200Y108377857D01*
X12297200Y108377857D02*
X12344819Y108520714D01*
X12344819Y108520714D02*
X12344819Y108615952D01*
X12344819Y107758809D02*
X11344819Y107758809D01*
X11344819Y107758809D02*
X11344819Y107377857D01*
X11344819Y107377857D02*
X11392438Y107282619D01*
X11392438Y107282619D02*
X11440057Y107235000D01*
X11440057Y107235000D02*
X11535295Y107187381D01*
X11535295Y107187381D02*
X11678152Y107187381D01*
X11678152Y107187381D02*
X11773390Y107235000D01*
X11773390Y107235000D02*
X11821009Y107282619D01*
X11821009Y107282619D02*
X11868628Y107377857D01*
X11868628Y107377857D02*
X11868628Y107758809D01*
X11773390Y106615952D02*
X11725771Y106711190D01*
X11725771Y106711190D02*
X11678152Y106758809D01*
X11678152Y106758809D02*
X11582914Y106806428D01*
X11582914Y106806428D02*
X11535295Y106806428D01*
X11535295Y106806428D02*
X11440057Y106758809D01*
X11440057Y106758809D02*
X11392438Y106711190D01*
X11392438Y106711190D02*
X11344819Y106615952D01*
X11344819Y106615952D02*
X11344819Y106425476D01*
X11344819Y106425476D02*
X11392438Y106330238D01*
X11392438Y106330238D02*
X11440057Y106282619D01*
X11440057Y106282619D02*
X11535295Y106235000D01*
X11535295Y106235000D02*
X11582914Y106235000D01*
X11582914Y106235000D02*
X11678152Y106282619D01*
X11678152Y106282619D02*
X11725771Y106330238D01*
X11725771Y106330238D02*
X11773390Y106425476D01*
X11773390Y106425476D02*
X11773390Y106615952D01*
X11773390Y106615952D02*
X11821009Y106711190D01*
X11821009Y106711190D02*
X11868628Y106758809D01*
X11868628Y106758809D02*
X11963866Y106806428D01*
X11963866Y106806428D02*
X12154342Y106806428D01*
X12154342Y106806428D02*
X12249580Y106758809D01*
X12249580Y106758809D02*
X12297200Y106711190D01*
X12297200Y106711190D02*
X12344819Y106615952D01*
X12344819Y106615952D02*
X12344819Y106425476D01*
X12344819Y106425476D02*
X12297200Y106330238D01*
X12297200Y106330238D02*
X12249580Y106282619D01*
X12249580Y106282619D02*
X12154342Y106235000D01*
X12154342Y106235000D02*
X11963866Y106235000D01*
X11963866Y106235000D02*
X11868628Y106282619D01*
X11868628Y106282619D02*
X11821009Y106330238D01*
X11821009Y106330238D02*
X11773390Y106425476D01*
X13394819Y113565000D02*
X14109104Y113565000D01*
X14109104Y113565000D02*
X14251961Y113612619D01*
X14251961Y113612619D02*
X14347200Y113707857D01*
X14347200Y113707857D02*
X14394819Y113850714D01*
X14394819Y113850714D02*
X14394819Y113945952D01*
X14394819Y113088809D02*
X13394819Y113088809D01*
X13394819Y113088809D02*
X13394819Y112707857D01*
X13394819Y112707857D02*
X13442438Y112612619D01*
X13442438Y112612619D02*
X13490057Y112565000D01*
X13490057Y112565000D02*
X13585295Y112517381D01*
X13585295Y112517381D02*
X13728152Y112517381D01*
X13728152Y112517381D02*
X13823390Y112565000D01*
X13823390Y112565000D02*
X13871009Y112612619D01*
X13871009Y112612619D02*
X13918628Y112707857D01*
X13918628Y112707857D02*
X13918628Y113088809D01*
X13394819Y111660238D02*
X13394819Y111850714D01*
X13394819Y111850714D02*
X13442438Y111945952D01*
X13442438Y111945952D02*
X13490057Y111993571D01*
X13490057Y111993571D02*
X13632914Y112088809D01*
X13632914Y112088809D02*
X13823390Y112136428D01*
X13823390Y112136428D02*
X14204342Y112136428D01*
X14204342Y112136428D02*
X14299580Y112088809D01*
X14299580Y112088809D02*
X14347200Y112041190D01*
X14347200Y112041190D02*
X14394819Y111945952D01*
X14394819Y111945952D02*
X14394819Y111755476D01*
X14394819Y111755476D02*
X14347200Y111660238D01*
X14347200Y111660238D02*
X14299580Y111612619D01*
X14299580Y111612619D02*
X14204342Y111565000D01*
X14204342Y111565000D02*
X13966247Y111565000D01*
X13966247Y111565000D02*
X13871009Y111612619D01*
X13871009Y111612619D02*
X13823390Y111660238D01*
X13823390Y111660238D02*
X13775771Y111755476D01*
X13775771Y111755476D02*
X13775771Y111945952D01*
X13775771Y111945952D02*
X13823390Y112041190D01*
X13823390Y112041190D02*
X13871009Y112088809D01*
X13871009Y112088809D02*
X13966247Y112136428D01*
X25003219Y142647900D02*
X25717504Y142647900D01*
X25717504Y142647900D02*
X25860361Y142695519D01*
X25860361Y142695519D02*
X25955600Y142790757D01*
X25955600Y142790757D02*
X26003219Y142933614D01*
X26003219Y142933614D02*
X26003219Y143028852D01*
X25431790Y142028852D02*
X25384171Y142124090D01*
X25384171Y142124090D02*
X25336552Y142171709D01*
X25336552Y142171709D02*
X25241314Y142219328D01*
X25241314Y142219328D02*
X25193695Y142219328D01*
X25193695Y142219328D02*
X25098457Y142171709D01*
X25098457Y142171709D02*
X25050838Y142124090D01*
X25050838Y142124090D02*
X25003219Y142028852D01*
X25003219Y142028852D02*
X25003219Y141838376D01*
X25003219Y141838376D02*
X25050838Y141743138D01*
X25050838Y141743138D02*
X25098457Y141695519D01*
X25098457Y141695519D02*
X25193695Y141647900D01*
X25193695Y141647900D02*
X25241314Y141647900D01*
X25241314Y141647900D02*
X25336552Y141695519D01*
X25336552Y141695519D02*
X25384171Y141743138D01*
X25384171Y141743138D02*
X25431790Y141838376D01*
X25431790Y141838376D02*
X25431790Y142028852D01*
X25431790Y142028852D02*
X25479409Y142124090D01*
X25479409Y142124090D02*
X25527028Y142171709D01*
X25527028Y142171709D02*
X25622266Y142219328D01*
X25622266Y142219328D02*
X25812742Y142219328D01*
X25812742Y142219328D02*
X25907980Y142171709D01*
X25907980Y142171709D02*
X25955600Y142124090D01*
X25955600Y142124090D02*
X26003219Y142028852D01*
X26003219Y142028852D02*
X26003219Y141838376D01*
X26003219Y141838376D02*
X25955600Y141743138D01*
X25955600Y141743138D02*
X25907980Y141695519D01*
X25907980Y141695519D02*
X25812742Y141647900D01*
X25812742Y141647900D02*
X25622266Y141647900D01*
X25622266Y141647900D02*
X25527028Y141695519D01*
X25527028Y141695519D02*
X25479409Y141743138D01*
X25479409Y141743138D02*
X25431790Y141838376D01*
X11634819Y40425000D02*
X12349104Y40425000D01*
X12349104Y40425000D02*
X12491961Y40472619D01*
X12491961Y40472619D02*
X12587200Y40567857D01*
X12587200Y40567857D02*
X12634819Y40710714D01*
X12634819Y40710714D02*
X12634819Y40805952D01*
X12634819Y39948809D02*
X11634819Y39948809D01*
X11634819Y39948809D02*
X11634819Y39567857D01*
X11634819Y39567857D02*
X11682438Y39472619D01*
X11682438Y39472619D02*
X11730057Y39425000D01*
X11730057Y39425000D02*
X11825295Y39377381D01*
X11825295Y39377381D02*
X11968152Y39377381D01*
X11968152Y39377381D02*
X12063390Y39425000D01*
X12063390Y39425000D02*
X12111009Y39472619D01*
X12111009Y39472619D02*
X12158628Y39567857D01*
X12158628Y39567857D02*
X12158628Y39948809D01*
X11634819Y39044047D02*
X11634819Y38425000D01*
X11634819Y38425000D02*
X12015771Y38758333D01*
X12015771Y38758333D02*
X12015771Y38615476D01*
X12015771Y38615476D02*
X12063390Y38520238D01*
X12063390Y38520238D02*
X12111009Y38472619D01*
X12111009Y38472619D02*
X12206247Y38425000D01*
X12206247Y38425000D02*
X12444342Y38425000D01*
X12444342Y38425000D02*
X12539580Y38472619D01*
X12539580Y38472619D02*
X12587200Y38520238D01*
X12587200Y38520238D02*
X12634819Y38615476D01*
X12634819Y38615476D02*
X12634819Y38901190D01*
X12634819Y38901190D02*
X12587200Y38996428D01*
X12587200Y38996428D02*
X12539580Y39044047D01*
X15874819Y85625000D02*
X16589104Y85625000D01*
X16589104Y85625000D02*
X16731961Y85672619D01*
X16731961Y85672619D02*
X16827200Y85767857D01*
X16827200Y85767857D02*
X16874819Y85910714D01*
X16874819Y85910714D02*
X16874819Y86005952D01*
X16874819Y85148809D02*
X15874819Y85148809D01*
X15874819Y85148809D02*
X15874819Y84767857D01*
X15874819Y84767857D02*
X15922438Y84672619D01*
X15922438Y84672619D02*
X15970057Y84625000D01*
X15970057Y84625000D02*
X16065295Y84577381D01*
X16065295Y84577381D02*
X16208152Y84577381D01*
X16208152Y84577381D02*
X16303390Y84625000D01*
X16303390Y84625000D02*
X16351009Y84672619D01*
X16351009Y84672619D02*
X16398628Y84767857D01*
X16398628Y84767857D02*
X16398628Y85148809D01*
X16874819Y84101190D02*
X16874819Y83910714D01*
X16874819Y83910714D02*
X16827200Y83815476D01*
X16827200Y83815476D02*
X16779580Y83767857D01*
X16779580Y83767857D02*
X16636723Y83672619D01*
X16636723Y83672619D02*
X16446247Y83625000D01*
X16446247Y83625000D02*
X16065295Y83625000D01*
X16065295Y83625000D02*
X15970057Y83672619D01*
X15970057Y83672619D02*
X15922438Y83720238D01*
X15922438Y83720238D02*
X15874819Y83815476D01*
X15874819Y83815476D02*
X15874819Y84005952D01*
X15874819Y84005952D02*
X15922438Y84101190D01*
X15922438Y84101190D02*
X15970057Y84148809D01*
X15970057Y84148809D02*
X16065295Y84196428D01*
X16065295Y84196428D02*
X16303390Y84196428D01*
X16303390Y84196428D02*
X16398628Y84148809D01*
X16398628Y84148809D02*
X16446247Y84101190D01*
X16446247Y84101190D02*
X16493866Y84005952D01*
X16493866Y84005952D02*
X16493866Y83815476D01*
X16493866Y83815476D02*
X16446247Y83720238D01*
X16446247Y83720238D02*
X16398628Y83672619D01*
X16398628Y83672619D02*
X16303390Y83625000D01*
X9124819Y100975000D02*
X9839104Y100975000D01*
X9839104Y100975000D02*
X9981961Y101022619D01*
X9981961Y101022619D02*
X10077200Y101117857D01*
X10077200Y101117857D02*
X10124819Y101260714D01*
X10124819Y101260714D02*
X10124819Y101355952D01*
X10124819Y100498809D02*
X9124819Y100498809D01*
X9124819Y100498809D02*
X9124819Y100117857D01*
X9124819Y100117857D02*
X9172438Y100022619D01*
X9172438Y100022619D02*
X9220057Y99975000D01*
X9220057Y99975000D02*
X9315295Y99927381D01*
X9315295Y99927381D02*
X9458152Y99927381D01*
X9458152Y99927381D02*
X9553390Y99975000D01*
X9553390Y99975000D02*
X9601009Y100022619D01*
X9601009Y100022619D02*
X9648628Y100117857D01*
X9648628Y100117857D02*
X9648628Y100498809D01*
X9458152Y99070238D02*
X10124819Y99070238D01*
X9077200Y99308333D02*
X9791485Y99546428D01*
X9791485Y99546428D02*
X9791485Y98927381D01*
X11003333Y96236847D02*
X11003333Y95522562D01*
X11003333Y95522562D02*
X11050952Y95379705D01*
X11050952Y95379705D02*
X11146190Y95284466D01*
X11146190Y95284466D02*
X11289047Y95236847D01*
X11289047Y95236847D02*
X11384285Y95236847D01*
X10527142Y95236847D02*
X10527142Y96236847D01*
X10527142Y96236847D02*
X10146190Y96236847D01*
X10146190Y96236847D02*
X10050952Y96189228D01*
X10050952Y96189228D02*
X10003333Y96141609D01*
X10003333Y96141609D02*
X9955714Y96046371D01*
X9955714Y96046371D02*
X9955714Y95903514D01*
X9955714Y95903514D02*
X10003333Y95808276D01*
X10003333Y95808276D02*
X10050952Y95760657D01*
X10050952Y95760657D02*
X10146190Y95713038D01*
X10146190Y95713038D02*
X10527142Y95713038D01*
X9050952Y96236847D02*
X9527142Y96236847D01*
X9527142Y96236847D02*
X9574761Y95760657D01*
X9574761Y95760657D02*
X9527142Y95808276D01*
X9527142Y95808276D02*
X9431904Y95855895D01*
X9431904Y95855895D02*
X9193809Y95855895D01*
X9193809Y95855895D02*
X9098571Y95808276D01*
X9098571Y95808276D02*
X9050952Y95760657D01*
X9050952Y95760657D02*
X9003333Y95665419D01*
X9003333Y95665419D02*
X9003333Y95427324D01*
X9003333Y95427324D02*
X9050952Y95332086D01*
X9050952Y95332086D02*
X9098571Y95284466D01*
X9098571Y95284466D02*
X9193809Y95236847D01*
X9193809Y95236847D02*
X9431904Y95236847D01*
X9431904Y95236847D02*
X9527142Y95284466D01*
X9527142Y95284466D02*
X9574761Y95332086D01*
X50293333Y3416847D02*
X50293333Y2702562D01*
X50293333Y2702562D02*
X50340952Y2559705D01*
X50340952Y2559705D02*
X50436190Y2464466D01*
X50436190Y2464466D02*
X50579047Y2416847D01*
X50579047Y2416847D02*
X50674285Y2416847D01*
X49340952Y3416847D02*
X49817142Y3416847D01*
X49817142Y3416847D02*
X49864761Y2940657D01*
X49864761Y2940657D02*
X49817142Y2988276D01*
X49817142Y2988276D02*
X49721904Y3035895D01*
X49721904Y3035895D02*
X49483809Y3035895D01*
X49483809Y3035895D02*
X49388571Y2988276D01*
X49388571Y2988276D02*
X49340952Y2940657D01*
X49340952Y2940657D02*
X49293333Y2845419D01*
X49293333Y2845419D02*
X49293333Y2607324D01*
X49293333Y2607324D02*
X49340952Y2512086D01*
X49340952Y2512086D02*
X49388571Y2464466D01*
X49388571Y2464466D02*
X49483809Y2416847D01*
X49483809Y2416847D02*
X49721904Y2416847D01*
X49721904Y2416847D02*
X49817142Y2464466D01*
X49817142Y2464466D02*
X49864761Y2512086D01*
X25003219Y131174500D02*
X25717504Y131174500D01*
X25717504Y131174500D02*
X25860361Y131222119D01*
X25860361Y131222119D02*
X25955600Y131317357D01*
X25955600Y131317357D02*
X26003219Y131460214D01*
X26003219Y131460214D02*
X26003219Y131555452D01*
X25003219Y130793547D02*
X25003219Y130126881D01*
X25003219Y130126881D02*
X26003219Y130555452D01*
X23963333Y125586847D02*
X23963333Y124872562D01*
X23963333Y124872562D02*
X24010952Y124729705D01*
X24010952Y124729705D02*
X24106190Y124634466D01*
X24106190Y124634466D02*
X24249047Y124586847D01*
X24249047Y124586847D02*
X24344285Y124586847D01*
X23487142Y124586847D02*
X23487142Y125586847D01*
X23487142Y125586847D02*
X23106190Y125586847D01*
X23106190Y125586847D02*
X23010952Y125539228D01*
X23010952Y125539228D02*
X22963333Y125491609D01*
X22963333Y125491609D02*
X22915714Y125396371D01*
X22915714Y125396371D02*
X22915714Y125253514D01*
X22915714Y125253514D02*
X22963333Y125158276D01*
X22963333Y125158276D02*
X23010952Y125110657D01*
X23010952Y125110657D02*
X23106190Y125063038D01*
X23106190Y125063038D02*
X23487142Y125063038D01*
X22582380Y125586847D02*
X21915714Y125586847D01*
X21915714Y125586847D02*
X22344285Y124586847D01*
X22949523Y53976847D02*
X22949523Y53262562D01*
X22949523Y53262562D02*
X22997142Y53119705D01*
X22997142Y53119705D02*
X23092380Y53024466D01*
X23092380Y53024466D02*
X23235237Y52976847D01*
X23235237Y52976847D02*
X23330475Y52976847D01*
X22473332Y52976847D02*
X22473332Y53976847D01*
X22473332Y53976847D02*
X22092380Y53976847D01*
X22092380Y53976847D02*
X21997142Y53929228D01*
X21997142Y53929228D02*
X21949523Y53881609D01*
X21949523Y53881609D02*
X21901904Y53786371D01*
X21901904Y53786371D02*
X21901904Y53643514D01*
X21901904Y53643514D02*
X21949523Y53548276D01*
X21949523Y53548276D02*
X21997142Y53500657D01*
X21997142Y53500657D02*
X22092380Y53453038D01*
X22092380Y53453038D02*
X22473332Y53453038D01*
X20949523Y52976847D02*
X21520951Y52976847D01*
X21235237Y52976847D02*
X21235237Y53976847D01*
X21235237Y53976847D02*
X21330475Y53833990D01*
X21330475Y53833990D02*
X21425713Y53738752D01*
X21425713Y53738752D02*
X21520951Y53691133D01*
X20330475Y53976847D02*
X20235237Y53976847D01*
X20235237Y53976847D02*
X20139999Y53929228D01*
X20139999Y53929228D02*
X20092380Y53881609D01*
X20092380Y53881609D02*
X20044761Y53786371D01*
X20044761Y53786371D02*
X19997142Y53595895D01*
X19997142Y53595895D02*
X19997142Y53357800D01*
X19997142Y53357800D02*
X20044761Y53167324D01*
X20044761Y53167324D02*
X20092380Y53072086D01*
X20092380Y53072086D02*
X20139999Y53024466D01*
X20139999Y53024466D02*
X20235237Y52976847D01*
X20235237Y52976847D02*
X20330475Y52976847D01*
X20330475Y52976847D02*
X20425713Y53024466D01*
X20425713Y53024466D02*
X20473332Y53072086D01*
X20473332Y53072086D02*
X20520951Y53167324D01*
X20520951Y53167324D02*
X20568570Y53357800D01*
X20568570Y53357800D02*
X20568570Y53595895D01*
X20568570Y53595895D02*
X20520951Y53786371D01*
X20520951Y53786371D02*
X20473332Y53881609D01*
X20473332Y53881609D02*
X20425713Y53929228D01*
X20425713Y53929228D02*
X20330475Y53976847D01*
D11*
%TO.C,U1*%
X33880000Y113711666D02*
X33880000Y33711666D01*
X33880000Y33711666D02*
X5880000Y33711666D01*
X5880000Y113711666D02*
X33880000Y113711666D01*
X5880000Y33711666D02*
X5880000Y113711666D01*
D12*
%TO.C,D2*%
X44060000Y33201666D02*
G75*
G02*
X39060000Y33201666I-2500000J0D01*
G01*
X39060000Y33201666D02*
G75*
G02*
X44060000Y33201666I2500000J0D01*
G01*
X43104830Y35761666D02*
G75*
G02*
X41560000Y30211666I-1544830J-2560000D01*
G01*
X41560000Y30211666D02*
G75*
G02*
X40015170Y35761666I0J2990000D01*
G01*
X40015000Y35761666D02*
X43105000Y35761666D01*
%TO.C,J1*%
X35892500Y101946666D02*
X45932500Y101946666D01*
X35892500Y117426666D02*
X35892500Y101946666D01*
X38912500Y117426666D02*
X38912500Y101946666D01*
X43812500Y117426666D02*
X43812500Y101946666D01*
X45312500Y117426666D02*
X45312500Y101946666D01*
X45932500Y101946666D02*
X45932500Y114466666D01*
X45932500Y115066666D02*
X45932500Y117426666D01*
X45932500Y117426666D02*
X35892500Y117426666D01*
X46542500Y114326666D02*
X45932500Y114766666D01*
X46542500Y115206666D01*
X46542500Y114326666D01*
G36*
X46542500Y114326666D02*
G01*
X45932500Y114766666D01*
X46542500Y115206666D01*
X46542500Y114326666D01*
G37*
%TO.C,J2*%
X35882500Y8956666D02*
X45922500Y8956666D01*
X35882500Y24436666D02*
X35882500Y8956666D01*
X38902500Y24436666D02*
X38902500Y8956666D01*
X43802500Y24436666D02*
X43802500Y8956666D01*
X45302500Y24436666D02*
X45302500Y8956666D01*
X45922500Y8956666D02*
X45922500Y21476666D01*
X45922500Y22076666D02*
X45922500Y24436666D01*
X45922500Y24436666D02*
X35882500Y24436666D01*
X46532500Y21336666D02*
X45922500Y21776666D01*
X46532500Y22216666D01*
X46532500Y21336666D01*
G36*
X46532500Y21336666D02*
G01*
X45922500Y21776666D01*
X46532500Y22216666D01*
X46532500Y21336666D01*
G37*
%TO.C,JP13*%
X12130000Y64621666D02*
X12130000Y65571666D01*
X12130000Y70361666D02*
X12130000Y69411666D01*
X13050000Y65571666D02*
X11210000Y65571666D01*
X11210000Y69411666D01*
X13050000Y69411666D01*
X13050000Y65571666D01*
%TO.C,JP12*%
X12160000Y46661666D02*
X12160000Y47611666D01*
X12160000Y52401666D02*
X12160000Y51451666D01*
X13080000Y47611666D02*
X11240000Y47611666D01*
X11240000Y51451666D01*
X13080000Y51451666D01*
X13080000Y47611666D01*
%TO.C,J6*%
X38740000Y40761666D02*
X38740000Y58601666D01*
X46240000Y40761666D02*
X38740000Y40761666D01*
X46240000Y40761666D02*
X46240000Y38711666D01*
X46240000Y58601666D02*
X38740000Y58601666D01*
X46240000Y58601666D02*
X46240000Y60651666D01*
X51740000Y38711666D02*
X46240000Y38711666D01*
X51740000Y38711666D02*
X51740000Y37061666D01*
X51740000Y60651666D02*
X46240000Y60651666D01*
X51740000Y62601666D02*
X51740000Y60651666D01*
X58480000Y37061666D02*
X51740000Y37061666D01*
X58480000Y37061666D02*
X58480000Y38561666D01*
X58480000Y38561666D02*
X61180000Y38561666D01*
X58480000Y60801666D02*
X58480000Y62601666D01*
X58480000Y60801666D02*
X61180000Y60801666D01*
X58480000Y62601666D02*
X51740000Y62601666D01*
X61180000Y38561666D02*
X61180000Y60801666D01*
%TO.C,JP11*%
X11540000Y79341666D02*
X11540000Y80291666D01*
X11540000Y85081666D02*
X11540000Y84131666D01*
X10620000Y84131666D02*
X12460000Y84131666D01*
X12460000Y80291666D01*
X10620000Y80291666D01*
X10620000Y84131666D01*
%TO.C,R5*%
X3940000Y124881666D02*
X9870000Y124881666D01*
X31540000Y124881666D02*
X25610000Y124881666D01*
X9870000Y122261666D02*
X25610000Y122261666D01*
X25610000Y127501666D01*
X9870000Y127501666D01*
X9870000Y122261666D01*
%TO.C,J3*%
X38740000Y101561666D02*
X38740000Y117801666D01*
X46240000Y98811666D02*
X46240000Y101561666D01*
X46240000Y101561666D02*
X38740000Y101561666D01*
X46240000Y117801666D02*
X38740000Y117801666D01*
X46240000Y117801666D02*
X46240000Y120551666D01*
X51740000Y98811666D02*
X46240000Y98811666D01*
X51740000Y98811666D02*
X51740000Y97061666D01*
X51740000Y120551666D02*
X46240000Y120551666D01*
X51740000Y122301666D02*
X51740000Y120551666D01*
X58480000Y97061666D02*
X51740000Y97061666D01*
X58480000Y97061666D02*
X58480000Y98561666D01*
X58480000Y98561666D02*
X61180000Y98561666D01*
X58480000Y120801666D02*
X58480000Y122301666D01*
X58480000Y120801666D02*
X61180000Y120801666D01*
X58480000Y122301666D02*
X51740000Y122301666D01*
X61180000Y98561666D02*
X61180000Y120801666D01*
%TO.C,J4*%
X38740000Y133761666D02*
X38740000Y151601666D01*
X46240000Y133761666D02*
X38740000Y133761666D01*
X46240000Y133761666D02*
X46240000Y131711666D01*
X46240000Y151601666D02*
X38740000Y151601666D01*
X46240000Y151601666D02*
X46240000Y153651666D01*
X51740000Y131711666D02*
X46240000Y131711666D01*
X51740000Y131711666D02*
X51740000Y130061666D01*
X51740000Y153651666D02*
X46240000Y153651666D01*
X51740000Y155601666D02*
X51740000Y153651666D01*
X58480000Y130061666D02*
X51740000Y130061666D01*
X58480000Y130061666D02*
X58480000Y131561666D01*
X58480000Y131561666D02*
X61180000Y131561666D01*
X58480000Y153801666D02*
X58480000Y155601666D01*
X58480000Y153801666D02*
X61180000Y153801666D01*
X58480000Y155601666D02*
X51740000Y155601666D01*
X61180000Y131561666D02*
X61180000Y153801666D01*
%TO.C,D1*%
X40035000Y128741666D02*
X43125000Y128741666D01*
X41580000Y123191666D02*
G75*
G02*
X40035170Y128741666I0J2990000D01*
G01*
X43124830Y128741666D02*
G75*
G02*
X41580000Y123191666I-1544830J-2560000D01*
G01*
X44080000Y126181666D02*
G75*
G02*
X39080000Y126181666I-2500000J0D01*
G01*
X39080000Y126181666D02*
G75*
G02*
X44080000Y126181666I2500000J0D01*
G01*
%TO.C,JP8*%
X15510000Y93601666D02*
X15510000Y99531666D01*
X15510000Y121201666D02*
X15510000Y115271666D01*
X12890000Y115271666D02*
X18130000Y115271666D01*
X18130000Y99531666D01*
X12890000Y99531666D01*
X12890000Y115271666D01*
%TO.C,JP6*%
X11570000Y106151666D02*
X11570000Y109461666D01*
X11570000Y119311666D02*
X11570000Y116001666D01*
X12940000Y109461666D02*
X10200000Y109461666D01*
X10200000Y116001666D01*
X12940000Y116001666D01*
X12940000Y109461666D01*
%TO.C,J8*%
X14168400Y140934566D02*
X14168400Y143694566D01*
X21898400Y140934566D02*
X14168400Y140934566D01*
X21898400Y140934566D02*
X21898400Y143694566D01*
X21898400Y143694566D02*
X14168400Y143694566D01*
X23168400Y140934566D02*
X24548400Y140934566D01*
X24548400Y140934566D02*
X24548400Y142314566D01*
%TO.C,JP3*%
X12180000Y37981666D02*
X12180000Y38931666D01*
X12180000Y43721666D02*
X12180000Y42771666D01*
X13100000Y38931666D02*
X11260000Y38931666D01*
X11260000Y42771666D01*
X13100000Y42771666D01*
X13100000Y38931666D01*
%TO.C,JP9*%
X18340000Y81921666D02*
X18340000Y82871666D01*
X18340000Y87661666D02*
X18340000Y86711666D01*
X17420000Y86711666D02*
X19260000Y86711666D01*
X19260000Y82871666D01*
X17420000Y82871666D01*
X17420000Y86711666D01*
%TO.C,JP4*%
X11590000Y97271666D02*
X11590000Y98221666D01*
X11590000Y103011666D02*
X11590000Y102061666D01*
X10670000Y102061666D02*
X12510000Y102061666D01*
X12510000Y98221666D01*
X10670000Y98221666D01*
X10670000Y102061666D01*
%TO.C,JP5*%
X10520000Y93771666D02*
X9900000Y93771666D01*
X12360000Y93771666D02*
G75*
G02*
X10520000Y93771666I-920000J0D01*
G01*
X10520000Y93771666D02*
G75*
G02*
X12360000Y93771666I920000J0D01*
G01*
%TO.C,J5*%
X38740000Y8561666D02*
X38740000Y24801666D01*
X46240000Y5811666D02*
X46240000Y8561666D01*
X46240000Y8561666D02*
X38740000Y8561666D01*
X46240000Y24801666D02*
X38740000Y24801666D01*
X46240000Y24801666D02*
X46240000Y27551666D01*
X51740000Y5811666D02*
X46240000Y5811666D01*
X51740000Y5811666D02*
X51740000Y4061666D01*
X51740000Y27551666D02*
X46240000Y27551666D01*
X51740000Y29301666D02*
X51740000Y27551666D01*
X58480000Y4061666D02*
X51740000Y4061666D01*
X58480000Y4061666D02*
X58480000Y5561666D01*
X58480000Y5561666D02*
X61180000Y5561666D01*
X58480000Y27801666D02*
X58480000Y29301666D01*
X58480000Y27801666D02*
X61180000Y27801666D01*
X58480000Y29301666D02*
X51740000Y29301666D01*
X61180000Y5561666D02*
X61180000Y27801666D01*
%TO.C,J7*%
X11628400Y129461166D02*
X11628400Y132221166D01*
X21898400Y129461166D02*
X11628400Y129461166D01*
X21898400Y129461166D02*
X21898400Y132221166D01*
X21898400Y132221166D02*
X11628400Y132221166D01*
X23168400Y129461166D02*
X24548400Y129461166D01*
X24548400Y129461166D02*
X24548400Y130841166D01*
%TO.C,JP7*%
X16550000Y127411666D02*
X19860000Y127411666D01*
X29710000Y127411666D02*
X26400000Y127411666D01*
X19860000Y126041666D02*
X26400000Y126041666D01*
X26400000Y128781666D01*
X19860000Y128781666D01*
X19860000Y126041666D01*
%TO.C,JP10*%
X18370000Y54431666D02*
X24910000Y54431666D01*
X18370000Y54761666D02*
X18370000Y54431666D01*
X18370000Y56841666D02*
X18370000Y57171666D01*
X18370000Y57171666D02*
X24910000Y57171666D01*
X24910000Y54431666D02*
X24910000Y54761666D01*
X24910000Y57171666D02*
X24910000Y56841666D01*
%TD*%
M02*
