%TF.GenerationSoftware,KiCad,Pcbnew,9.0.5*%
%TF.CreationDate,2026-05-12T13:11:20+02:00*%
%TF.ProjectId,DMX_NODE,444d585f-4e4f-4444-952e-6b696361645f,0.8*%
%TF.SameCoordinates,PX5cfbb60PYb220960*%
%TF.FileFunction,Legend,Top*%
%TF.FilePolarity,Positive*%
%FSLAX46Y46*%
G04 Gerber Fmt 4.6, Leading zero omitted, Abs format (unit mm)*
G04 Created by KiCad (PCBNEW 9.0.5) date 2026-05-12 13:11:20*
%MOMM*%
%LPD*%
G01*
G04 APERTURE LIST*
%ADD10C,0.150000*%
%ADD11C,0.120000*%
G04 APERTURE END LIST*
D10*
X5653333Y108392086D02*
X5605714Y108344466D01*
X5605714Y108344466D02*
X5462857Y108296847D01*
X5462857Y108296847D02*
X5367619Y108296847D01*
X5367619Y108296847D02*
X5224762Y108344466D01*
X5224762Y108344466D02*
X5129524Y108439705D01*
X5129524Y108439705D02*
X5081905Y108534943D01*
X5081905Y108534943D02*
X5034286Y108725419D01*
X5034286Y108725419D02*
X5034286Y108868276D01*
X5034286Y108868276D02*
X5081905Y109058752D01*
X5081905Y109058752D02*
X5129524Y109153990D01*
X5129524Y109153990D02*
X5224762Y109249228D01*
X5224762Y109249228D02*
X5367619Y109296847D01*
X5367619Y109296847D02*
X5462857Y109296847D01*
X5462857Y109296847D02*
X5605714Y109249228D01*
X5605714Y109249228D02*
X5653333Y109201609D01*
X6605714Y108296847D02*
X6034286Y108296847D01*
X6320000Y108296847D02*
X6320000Y109296847D01*
X6320000Y109296847D02*
X6224762Y109153990D01*
X6224762Y109153990D02*
X6129524Y109058752D01*
X6129524Y109058752D02*
X6034286Y109011133D01*
X6293333Y48702086D02*
X6245714Y48654466D01*
X6245714Y48654466D02*
X6102857Y48606847D01*
X6102857Y48606847D02*
X6007619Y48606847D01*
X6007619Y48606847D02*
X5864762Y48654466D01*
X5864762Y48654466D02*
X5769524Y48749705D01*
X5769524Y48749705D02*
X5721905Y48844943D01*
X5721905Y48844943D02*
X5674286Y49035419D01*
X5674286Y49035419D02*
X5674286Y49178276D01*
X5674286Y49178276D02*
X5721905Y49368752D01*
X5721905Y49368752D02*
X5769524Y49463990D01*
X5769524Y49463990D02*
X5864762Y49559228D01*
X5864762Y49559228D02*
X6007619Y49606847D01*
X6007619Y49606847D02*
X6102857Y49606847D01*
X6102857Y49606847D02*
X6245714Y49559228D01*
X6245714Y49559228D02*
X6293333Y49511609D01*
X7198095Y49606847D02*
X6721905Y49606847D01*
X6721905Y49606847D02*
X6674286Y49130657D01*
X6674286Y49130657D02*
X6721905Y49178276D01*
X6721905Y49178276D02*
X6817143Y49225895D01*
X6817143Y49225895D02*
X7055238Y49225895D01*
X7055238Y49225895D02*
X7150476Y49178276D01*
X7150476Y49178276D02*
X7198095Y49130657D01*
X7198095Y49130657D02*
X7245714Y49035419D01*
X7245714Y49035419D02*
X7245714Y48797324D01*
X7245714Y48797324D02*
X7198095Y48702086D01*
X7198095Y48702086D02*
X7150476Y48654466D01*
X7150476Y48654466D02*
X7055238Y48606847D01*
X7055238Y48606847D02*
X6817143Y48606847D01*
X6817143Y48606847D02*
X6721905Y48654466D01*
X6721905Y48654466D02*
X6674286Y48702086D01*
X36873333Y107016847D02*
X36540000Y107493038D01*
X36301905Y107016847D02*
X36301905Y108016847D01*
X36301905Y108016847D02*
X36682857Y108016847D01*
X36682857Y108016847D02*
X36778095Y107969228D01*
X36778095Y107969228D02*
X36825714Y107921609D01*
X36825714Y107921609D02*
X36873333Y107826371D01*
X36873333Y107826371D02*
X36873333Y107683514D01*
X36873333Y107683514D02*
X36825714Y107588276D01*
X36825714Y107588276D02*
X36778095Y107540657D01*
X36778095Y107540657D02*
X36682857Y107493038D01*
X36682857Y107493038D02*
X36301905Y107493038D01*
X37825714Y107016847D02*
X37254286Y107016847D01*
X37540000Y107016847D02*
X37540000Y108016847D01*
X37540000Y108016847D02*
X37444762Y107873990D01*
X37444762Y107873990D02*
X37349524Y107778752D01*
X37349524Y107778752D02*
X37254286Y107731133D01*
X9643333Y48702086D02*
X9595714Y48654466D01*
X9595714Y48654466D02*
X9452857Y48606847D01*
X9452857Y48606847D02*
X9357619Y48606847D01*
X9357619Y48606847D02*
X9214762Y48654466D01*
X9214762Y48654466D02*
X9119524Y48749705D01*
X9119524Y48749705D02*
X9071905Y48844943D01*
X9071905Y48844943D02*
X9024286Y49035419D01*
X9024286Y49035419D02*
X9024286Y49178276D01*
X9024286Y49178276D02*
X9071905Y49368752D01*
X9071905Y49368752D02*
X9119524Y49463990D01*
X9119524Y49463990D02*
X9214762Y49559228D01*
X9214762Y49559228D02*
X9357619Y49606847D01*
X9357619Y49606847D02*
X9452857Y49606847D01*
X9452857Y49606847D02*
X9595714Y49559228D01*
X9595714Y49559228D02*
X9643333Y49511609D01*
X10500476Y49606847D02*
X10310000Y49606847D01*
X10310000Y49606847D02*
X10214762Y49559228D01*
X10214762Y49559228D02*
X10167143Y49511609D01*
X10167143Y49511609D02*
X10071905Y49368752D01*
X10071905Y49368752D02*
X10024286Y49178276D01*
X10024286Y49178276D02*
X10024286Y48797324D01*
X10024286Y48797324D02*
X10071905Y48702086D01*
X10071905Y48702086D02*
X10119524Y48654466D01*
X10119524Y48654466D02*
X10214762Y48606847D01*
X10214762Y48606847D02*
X10405238Y48606847D01*
X10405238Y48606847D02*
X10500476Y48654466D01*
X10500476Y48654466D02*
X10548095Y48702086D01*
X10548095Y48702086D02*
X10595714Y48797324D01*
X10595714Y48797324D02*
X10595714Y49035419D01*
X10595714Y49035419D02*
X10548095Y49130657D01*
X10548095Y49130657D02*
X10500476Y49178276D01*
X10500476Y49178276D02*
X10405238Y49225895D01*
X10405238Y49225895D02*
X10214762Y49225895D01*
X10214762Y49225895D02*
X10119524Y49178276D01*
X10119524Y49178276D02*
X10071905Y49130657D01*
X10071905Y49130657D02*
X10024286Y49035419D01*
X20048095Y48376847D02*
X20048095Y47567324D01*
X20048095Y47567324D02*
X20095714Y47472086D01*
X20095714Y47472086D02*
X20143333Y47424466D01*
X20143333Y47424466D02*
X20238571Y47376847D01*
X20238571Y47376847D02*
X20429047Y47376847D01*
X20429047Y47376847D02*
X20524285Y47424466D01*
X20524285Y47424466D02*
X20571904Y47472086D01*
X20571904Y47472086D02*
X20619523Y47567324D01*
X20619523Y47567324D02*
X20619523Y48376847D01*
X21000476Y48376847D02*
X21619523Y48376847D01*
X21619523Y48376847D02*
X21286190Y47995895D01*
X21286190Y47995895D02*
X21429047Y47995895D01*
X21429047Y47995895D02*
X21524285Y47948276D01*
X21524285Y47948276D02*
X21571904Y47900657D01*
X21571904Y47900657D02*
X21619523Y47805419D01*
X21619523Y47805419D02*
X21619523Y47567324D01*
X21619523Y47567324D02*
X21571904Y47472086D01*
X21571904Y47472086D02*
X21524285Y47424466D01*
X21524285Y47424466D02*
X21429047Y47376847D01*
X21429047Y47376847D02*
X21143333Y47376847D01*
X21143333Y47376847D02*
X21048095Y47424466D01*
X21048095Y47424466D02*
X21000476Y47472086D01*
X29563333Y42982086D02*
X29515714Y42934466D01*
X29515714Y42934466D02*
X29372857Y42886847D01*
X29372857Y42886847D02*
X29277619Y42886847D01*
X29277619Y42886847D02*
X29134762Y42934466D01*
X29134762Y42934466D02*
X29039524Y43029705D01*
X29039524Y43029705D02*
X28991905Y43124943D01*
X28991905Y43124943D02*
X28944286Y43315419D01*
X28944286Y43315419D02*
X28944286Y43458276D01*
X28944286Y43458276D02*
X28991905Y43648752D01*
X28991905Y43648752D02*
X29039524Y43743990D01*
X29039524Y43743990D02*
X29134762Y43839228D01*
X29134762Y43839228D02*
X29277619Y43886847D01*
X29277619Y43886847D02*
X29372857Y43886847D01*
X29372857Y43886847D02*
X29515714Y43839228D01*
X29515714Y43839228D02*
X29563333Y43791609D01*
X29896667Y43886847D02*
X30563333Y43886847D01*
X30563333Y43886847D02*
X30134762Y42886847D01*
X32503333Y107802086D02*
X32455714Y107754466D01*
X32455714Y107754466D02*
X32312857Y107706847D01*
X32312857Y107706847D02*
X32217619Y107706847D01*
X32217619Y107706847D02*
X32074762Y107754466D01*
X32074762Y107754466D02*
X31979524Y107849705D01*
X31979524Y107849705D02*
X31931905Y107944943D01*
X31931905Y107944943D02*
X31884286Y108135419D01*
X31884286Y108135419D02*
X31884286Y108278276D01*
X31884286Y108278276D02*
X31931905Y108468752D01*
X31931905Y108468752D02*
X31979524Y108563990D01*
X31979524Y108563990D02*
X32074762Y108659228D01*
X32074762Y108659228D02*
X32217619Y108706847D01*
X32217619Y108706847D02*
X32312857Y108706847D01*
X32312857Y108706847D02*
X32455714Y108659228D01*
X32455714Y108659228D02*
X32503333Y108611609D01*
X33360476Y108373514D02*
X33360476Y107706847D01*
X33122381Y108754466D02*
X32884286Y108040181D01*
X32884286Y108040181D02*
X33503333Y108040181D01*
X34624819Y19345000D02*
X34148628Y19011667D01*
X34624819Y18773572D02*
X33624819Y18773572D01*
X33624819Y18773572D02*
X33624819Y19154524D01*
X33624819Y19154524D02*
X33672438Y19249762D01*
X33672438Y19249762D02*
X33720057Y19297381D01*
X33720057Y19297381D02*
X33815295Y19345000D01*
X33815295Y19345000D02*
X33958152Y19345000D01*
X33958152Y19345000D02*
X34053390Y19297381D01*
X34053390Y19297381D02*
X34101009Y19249762D01*
X34101009Y19249762D02*
X34148628Y19154524D01*
X34148628Y19154524D02*
X34148628Y18773572D01*
X33720057Y19725953D02*
X33672438Y19773572D01*
X33672438Y19773572D02*
X33624819Y19868810D01*
X33624819Y19868810D02*
X33624819Y20106905D01*
X33624819Y20106905D02*
X33672438Y20202143D01*
X33672438Y20202143D02*
X33720057Y20249762D01*
X33720057Y20249762D02*
X33815295Y20297381D01*
X33815295Y20297381D02*
X33910533Y20297381D01*
X33910533Y20297381D02*
X34053390Y20249762D01*
X34053390Y20249762D02*
X34624819Y19678334D01*
X34624819Y19678334D02*
X34624819Y20297381D01*
X20136666Y51636847D02*
X20136666Y50922562D01*
X20136666Y50922562D02*
X20089047Y50779705D01*
X20089047Y50779705D02*
X19993809Y50684466D01*
X19993809Y50684466D02*
X19850952Y50636847D01*
X19850952Y50636847D02*
X19755714Y50636847D01*
X20612857Y50636847D02*
X20612857Y51636847D01*
X20612857Y51636847D02*
X20993809Y51636847D01*
X20993809Y51636847D02*
X21089047Y51589228D01*
X21089047Y51589228D02*
X21136666Y51541609D01*
X21136666Y51541609D02*
X21184285Y51446371D01*
X21184285Y51446371D02*
X21184285Y51303514D01*
X21184285Y51303514D02*
X21136666Y51208276D01*
X21136666Y51208276D02*
X21089047Y51160657D01*
X21089047Y51160657D02*
X20993809Y51113038D01*
X20993809Y51113038D02*
X20612857Y51113038D01*
X21565238Y51541609D02*
X21612857Y51589228D01*
X21612857Y51589228D02*
X21708095Y51636847D01*
X21708095Y51636847D02*
X21946190Y51636847D01*
X21946190Y51636847D02*
X22041428Y51589228D01*
X22041428Y51589228D02*
X22089047Y51541609D01*
X22089047Y51541609D02*
X22136666Y51446371D01*
X22136666Y51446371D02*
X22136666Y51351133D01*
X22136666Y51351133D02*
X22089047Y51208276D01*
X22089047Y51208276D02*
X21517619Y50636847D01*
X21517619Y50636847D02*
X22136666Y50636847D01*
X22646667Y51696847D02*
X23265714Y51696847D01*
X23265714Y51696847D02*
X22932381Y51315895D01*
X22932381Y51315895D02*
X23075238Y51315895D01*
X23075238Y51315895D02*
X23170476Y51268276D01*
X23170476Y51268276D02*
X23218095Y51220657D01*
X23218095Y51220657D02*
X23265714Y51125419D01*
X23265714Y51125419D02*
X23265714Y50887324D01*
X23265714Y50887324D02*
X23218095Y50792086D01*
X23218095Y50792086D02*
X23170476Y50744466D01*
X23170476Y50744466D02*
X23075238Y50696847D01*
X23075238Y50696847D02*
X22789524Y50696847D01*
X22789524Y50696847D02*
X22694286Y50744466D01*
X22694286Y50744466D02*
X22646667Y50792086D01*
X31215714Y50696847D02*
X30644286Y50696847D01*
X30930000Y50696847D02*
X30930000Y51696847D01*
X30930000Y51696847D02*
X30834762Y51553990D01*
X30834762Y51553990D02*
X30739524Y51458752D01*
X30739524Y51458752D02*
X30644286Y51411133D01*
X16068095Y108236847D02*
X16068095Y107427324D01*
X16068095Y107427324D02*
X16115714Y107332086D01*
X16115714Y107332086D02*
X16163333Y107284466D01*
X16163333Y107284466D02*
X16258571Y107236847D01*
X16258571Y107236847D02*
X16449047Y107236847D01*
X16449047Y107236847D02*
X16544285Y107284466D01*
X16544285Y107284466D02*
X16591904Y107332086D01*
X16591904Y107332086D02*
X16639523Y107427324D01*
X16639523Y107427324D02*
X16639523Y108236847D01*
X17068095Y108141609D02*
X17115714Y108189228D01*
X17115714Y108189228D02*
X17210952Y108236847D01*
X17210952Y108236847D02*
X17449047Y108236847D01*
X17449047Y108236847D02*
X17544285Y108189228D01*
X17544285Y108189228D02*
X17591904Y108141609D01*
X17591904Y108141609D02*
X17639523Y108046371D01*
X17639523Y108046371D02*
X17639523Y107951133D01*
X17639523Y107951133D02*
X17591904Y107808276D01*
X17591904Y107808276D02*
X17020476Y107236847D01*
X17020476Y107236847D02*
X17639523Y107236847D01*
X8333333Y108382086D02*
X8285714Y108334466D01*
X8285714Y108334466D02*
X8142857Y108286847D01*
X8142857Y108286847D02*
X8047619Y108286847D01*
X8047619Y108286847D02*
X7904762Y108334466D01*
X7904762Y108334466D02*
X7809524Y108429705D01*
X7809524Y108429705D02*
X7761905Y108524943D01*
X7761905Y108524943D02*
X7714286Y108715419D01*
X7714286Y108715419D02*
X7714286Y108858276D01*
X7714286Y108858276D02*
X7761905Y109048752D01*
X7761905Y109048752D02*
X7809524Y109143990D01*
X7809524Y109143990D02*
X7904762Y109239228D01*
X7904762Y109239228D02*
X8047619Y109286847D01*
X8047619Y109286847D02*
X8142857Y109286847D01*
X8142857Y109286847D02*
X8285714Y109239228D01*
X8285714Y109239228D02*
X8333333Y109191609D01*
X8714286Y109191609D02*
X8761905Y109239228D01*
X8761905Y109239228D02*
X8857143Y109286847D01*
X8857143Y109286847D02*
X9095238Y109286847D01*
X9095238Y109286847D02*
X9190476Y109239228D01*
X9190476Y109239228D02*
X9238095Y109191609D01*
X9238095Y109191609D02*
X9285714Y109096371D01*
X9285714Y109096371D02*
X9285714Y109001133D01*
X9285714Y109001133D02*
X9238095Y108858276D01*
X9238095Y108858276D02*
X8666667Y108286847D01*
X8666667Y108286847D02*
X9285714Y108286847D01*
X3713333Y95902086D02*
X3665714Y95854466D01*
X3665714Y95854466D02*
X3522857Y95806847D01*
X3522857Y95806847D02*
X3427619Y95806847D01*
X3427619Y95806847D02*
X3284762Y95854466D01*
X3284762Y95854466D02*
X3189524Y95949705D01*
X3189524Y95949705D02*
X3141905Y96044943D01*
X3141905Y96044943D02*
X3094286Y96235419D01*
X3094286Y96235419D02*
X3094286Y96378276D01*
X3094286Y96378276D02*
X3141905Y96568752D01*
X3141905Y96568752D02*
X3189524Y96663990D01*
X3189524Y96663990D02*
X3284762Y96759228D01*
X3284762Y96759228D02*
X3427619Y96806847D01*
X3427619Y96806847D02*
X3522857Y96806847D01*
X3522857Y96806847D02*
X3665714Y96759228D01*
X3665714Y96759228D02*
X3713333Y96711609D01*
X4189524Y95806847D02*
X4380000Y95806847D01*
X4380000Y95806847D02*
X4475238Y95854466D01*
X4475238Y95854466D02*
X4522857Y95902086D01*
X4522857Y95902086D02*
X4618095Y96044943D01*
X4618095Y96044943D02*
X4665714Y96235419D01*
X4665714Y96235419D02*
X4665714Y96616371D01*
X4665714Y96616371D02*
X4618095Y96711609D01*
X4618095Y96711609D02*
X4570476Y96759228D01*
X4570476Y96759228D02*
X4475238Y96806847D01*
X4475238Y96806847D02*
X4284762Y96806847D01*
X4284762Y96806847D02*
X4189524Y96759228D01*
X4189524Y96759228D02*
X4141905Y96711609D01*
X4141905Y96711609D02*
X4094286Y96616371D01*
X4094286Y96616371D02*
X4094286Y96378276D01*
X4094286Y96378276D02*
X4141905Y96283038D01*
X4141905Y96283038D02*
X4189524Y96235419D01*
X4189524Y96235419D02*
X4284762Y96187800D01*
X4284762Y96187800D02*
X4475238Y96187800D01*
X4475238Y96187800D02*
X4570476Y96235419D01*
X4570476Y96235419D02*
X4618095Y96283038D01*
X4618095Y96283038D02*
X4665714Y96378276D01*
X2653333Y39056847D02*
X2320000Y39533038D01*
X2081905Y39056847D02*
X2081905Y40056847D01*
X2081905Y40056847D02*
X2462857Y40056847D01*
X2462857Y40056847D02*
X2558095Y40009228D01*
X2558095Y40009228D02*
X2605714Y39961609D01*
X2605714Y39961609D02*
X2653333Y39866371D01*
X2653333Y39866371D02*
X2653333Y39723514D01*
X2653333Y39723514D02*
X2605714Y39628276D01*
X2605714Y39628276D02*
X2558095Y39580657D01*
X2558095Y39580657D02*
X2462857Y39533038D01*
X2462857Y39533038D02*
X2081905Y39533038D01*
X3510476Y39723514D02*
X3510476Y39056847D01*
X3272381Y40104466D02*
X3034286Y39390181D01*
X3034286Y39390181D02*
X3653333Y39390181D01*
X2653333Y36002086D02*
X2605714Y35954466D01*
X2605714Y35954466D02*
X2462857Y35906847D01*
X2462857Y35906847D02*
X2367619Y35906847D01*
X2367619Y35906847D02*
X2224762Y35954466D01*
X2224762Y35954466D02*
X2129524Y36049705D01*
X2129524Y36049705D02*
X2081905Y36144943D01*
X2081905Y36144943D02*
X2034286Y36335419D01*
X2034286Y36335419D02*
X2034286Y36478276D01*
X2034286Y36478276D02*
X2081905Y36668752D01*
X2081905Y36668752D02*
X2129524Y36763990D01*
X2129524Y36763990D02*
X2224762Y36859228D01*
X2224762Y36859228D02*
X2367619Y36906847D01*
X2367619Y36906847D02*
X2462857Y36906847D01*
X2462857Y36906847D02*
X2605714Y36859228D01*
X2605714Y36859228D02*
X2653333Y36811609D01*
X3605714Y35906847D02*
X3034286Y35906847D01*
X3320000Y35906847D02*
X3320000Y36906847D01*
X3320000Y36906847D02*
X3224762Y36763990D01*
X3224762Y36763990D02*
X3129524Y36668752D01*
X3129524Y36668752D02*
X3034286Y36621133D01*
X4224762Y36906847D02*
X4320000Y36906847D01*
X4320000Y36906847D02*
X4415238Y36859228D01*
X4415238Y36859228D02*
X4462857Y36811609D01*
X4462857Y36811609D02*
X4510476Y36716371D01*
X4510476Y36716371D02*
X4558095Y36525895D01*
X4558095Y36525895D02*
X4558095Y36287800D01*
X4558095Y36287800D02*
X4510476Y36097324D01*
X4510476Y36097324D02*
X4462857Y36002086D01*
X4462857Y36002086D02*
X4415238Y35954466D01*
X4415238Y35954466D02*
X4320000Y35906847D01*
X4320000Y35906847D02*
X4224762Y35906847D01*
X4224762Y35906847D02*
X4129524Y35954466D01*
X4129524Y35954466D02*
X4081905Y36002086D01*
X4081905Y36002086D02*
X4034286Y36097324D01*
X4034286Y36097324D02*
X3986667Y36287800D01*
X3986667Y36287800D02*
X3986667Y36525895D01*
X3986667Y36525895D02*
X4034286Y36716371D01*
X4034286Y36716371D02*
X4081905Y36811609D01*
X4081905Y36811609D02*
X4129524Y36859228D01*
X4129524Y36859228D02*
X4224762Y36906847D01*
X29963333Y107802086D02*
X29915714Y107754466D01*
X29915714Y107754466D02*
X29772857Y107706847D01*
X29772857Y107706847D02*
X29677619Y107706847D01*
X29677619Y107706847D02*
X29534762Y107754466D01*
X29534762Y107754466D02*
X29439524Y107849705D01*
X29439524Y107849705D02*
X29391905Y107944943D01*
X29391905Y107944943D02*
X29344286Y108135419D01*
X29344286Y108135419D02*
X29344286Y108278276D01*
X29344286Y108278276D02*
X29391905Y108468752D01*
X29391905Y108468752D02*
X29439524Y108563990D01*
X29439524Y108563990D02*
X29534762Y108659228D01*
X29534762Y108659228D02*
X29677619Y108706847D01*
X29677619Y108706847D02*
X29772857Y108706847D01*
X29772857Y108706847D02*
X29915714Y108659228D01*
X29915714Y108659228D02*
X29963333Y108611609D01*
X30296667Y108706847D02*
X30915714Y108706847D01*
X30915714Y108706847D02*
X30582381Y108325895D01*
X30582381Y108325895D02*
X30725238Y108325895D01*
X30725238Y108325895D02*
X30820476Y108278276D01*
X30820476Y108278276D02*
X30868095Y108230657D01*
X30868095Y108230657D02*
X30915714Y108135419D01*
X30915714Y108135419D02*
X30915714Y107897324D01*
X30915714Y107897324D02*
X30868095Y107802086D01*
X30868095Y107802086D02*
X30820476Y107754466D01*
X30820476Y107754466D02*
X30725238Y107706847D01*
X30725238Y107706847D02*
X30439524Y107706847D01*
X30439524Y107706847D02*
X30344286Y107754466D01*
X30344286Y107754466D02*
X30296667Y107802086D01*
X32953333Y43012086D02*
X32905714Y42964466D01*
X32905714Y42964466D02*
X32762857Y42916847D01*
X32762857Y42916847D02*
X32667619Y42916847D01*
X32667619Y42916847D02*
X32524762Y42964466D01*
X32524762Y42964466D02*
X32429524Y43059705D01*
X32429524Y43059705D02*
X32381905Y43154943D01*
X32381905Y43154943D02*
X32334286Y43345419D01*
X32334286Y43345419D02*
X32334286Y43488276D01*
X32334286Y43488276D02*
X32381905Y43678752D01*
X32381905Y43678752D02*
X32429524Y43773990D01*
X32429524Y43773990D02*
X32524762Y43869228D01*
X32524762Y43869228D02*
X32667619Y43916847D01*
X32667619Y43916847D02*
X32762857Y43916847D01*
X32762857Y43916847D02*
X32905714Y43869228D01*
X32905714Y43869228D02*
X32953333Y43821609D01*
X33524762Y43488276D02*
X33429524Y43535895D01*
X33429524Y43535895D02*
X33381905Y43583514D01*
X33381905Y43583514D02*
X33334286Y43678752D01*
X33334286Y43678752D02*
X33334286Y43726371D01*
X33334286Y43726371D02*
X33381905Y43821609D01*
X33381905Y43821609D02*
X33429524Y43869228D01*
X33429524Y43869228D02*
X33524762Y43916847D01*
X33524762Y43916847D02*
X33715238Y43916847D01*
X33715238Y43916847D02*
X33810476Y43869228D01*
X33810476Y43869228D02*
X33858095Y43821609D01*
X33858095Y43821609D02*
X33905714Y43726371D01*
X33905714Y43726371D02*
X33905714Y43678752D01*
X33905714Y43678752D02*
X33858095Y43583514D01*
X33858095Y43583514D02*
X33810476Y43535895D01*
X33810476Y43535895D02*
X33715238Y43488276D01*
X33715238Y43488276D02*
X33524762Y43488276D01*
X33524762Y43488276D02*
X33429524Y43440657D01*
X33429524Y43440657D02*
X33381905Y43393038D01*
X33381905Y43393038D02*
X33334286Y43297800D01*
X33334286Y43297800D02*
X33334286Y43107324D01*
X33334286Y43107324D02*
X33381905Y43012086D01*
X33381905Y43012086D02*
X33429524Y42964466D01*
X33429524Y42964466D02*
X33524762Y42916847D01*
X33524762Y42916847D02*
X33715238Y42916847D01*
X33715238Y42916847D02*
X33810476Y42964466D01*
X33810476Y42964466D02*
X33858095Y43012086D01*
X33858095Y43012086D02*
X33905714Y43107324D01*
X33905714Y43107324D02*
X33905714Y43297800D01*
X33905714Y43297800D02*
X33858095Y43393038D01*
X33858095Y43393038D02*
X33810476Y43440657D01*
X33810476Y43440657D02*
X33715238Y43488276D01*
X7753333Y100906847D02*
X7420000Y101383038D01*
X7181905Y100906847D02*
X7181905Y101906847D01*
X7181905Y101906847D02*
X7562857Y101906847D01*
X7562857Y101906847D02*
X7658095Y101859228D01*
X7658095Y101859228D02*
X7705714Y101811609D01*
X7705714Y101811609D02*
X7753333Y101716371D01*
X7753333Y101716371D02*
X7753333Y101573514D01*
X7753333Y101573514D02*
X7705714Y101478276D01*
X7705714Y101478276D02*
X7658095Y101430657D01*
X7658095Y101430657D02*
X7562857Y101383038D01*
X7562857Y101383038D02*
X7181905Y101383038D01*
X8086667Y101906847D02*
X8705714Y101906847D01*
X8705714Y101906847D02*
X8372381Y101525895D01*
X8372381Y101525895D02*
X8515238Y101525895D01*
X8515238Y101525895D02*
X8610476Y101478276D01*
X8610476Y101478276D02*
X8658095Y101430657D01*
X8658095Y101430657D02*
X8705714Y101335419D01*
X8705714Y101335419D02*
X8705714Y101097324D01*
X8705714Y101097324D02*
X8658095Y101002086D01*
X8658095Y101002086D02*
X8610476Y100954466D01*
X8610476Y100954466D02*
X8515238Y100906847D01*
X8515238Y100906847D02*
X8229524Y100906847D01*
X8229524Y100906847D02*
X8134286Y100954466D01*
X8134286Y100954466D02*
X8086667Y101002086D01*
X25746666Y108196847D02*
X25746666Y107482562D01*
X25746666Y107482562D02*
X25699047Y107339705D01*
X25699047Y107339705D02*
X25603809Y107244466D01*
X25603809Y107244466D02*
X25460952Y107196847D01*
X25460952Y107196847D02*
X25365714Y107196847D01*
X26222857Y107196847D02*
X26222857Y108196847D01*
X26222857Y108196847D02*
X26603809Y108196847D01*
X26603809Y108196847D02*
X26699047Y108149228D01*
X26699047Y108149228D02*
X26746666Y108101609D01*
X26746666Y108101609D02*
X26794285Y108006371D01*
X26794285Y108006371D02*
X26794285Y107863514D01*
X26794285Y107863514D02*
X26746666Y107768276D01*
X26746666Y107768276D02*
X26699047Y107720657D01*
X26699047Y107720657D02*
X26603809Y107673038D01*
X26603809Y107673038D02*
X26222857Y107673038D01*
X27746666Y107196847D02*
X27175238Y107196847D01*
X27460952Y107196847D02*
X27460952Y108196847D01*
X27460952Y108196847D02*
X27365714Y108053990D01*
X27365714Y108053990D02*
X27270476Y107958752D01*
X27270476Y107958752D02*
X27175238Y107911133D01*
X30015714Y109924347D02*
X29444286Y109924347D01*
X29730000Y109924347D02*
X29730000Y110924347D01*
X29730000Y110924347D02*
X29634762Y110781490D01*
X29634762Y110781490D02*
X29539524Y110686252D01*
X29539524Y110686252D02*
X29444286Y110638633D01*
X22646667Y110924347D02*
X23265714Y110924347D01*
X23265714Y110924347D02*
X22932381Y110543395D01*
X22932381Y110543395D02*
X23075238Y110543395D01*
X23075238Y110543395D02*
X23170476Y110495776D01*
X23170476Y110495776D02*
X23218095Y110448157D01*
X23218095Y110448157D02*
X23265714Y110352919D01*
X23265714Y110352919D02*
X23265714Y110114824D01*
X23265714Y110114824D02*
X23218095Y110019586D01*
X23218095Y110019586D02*
X23170476Y109971966D01*
X23170476Y109971966D02*
X23075238Y109924347D01*
X23075238Y109924347D02*
X22789524Y109924347D01*
X22789524Y109924347D02*
X22694286Y109971966D01*
X22694286Y109971966D02*
X22646667Y110019586D01*
D11*
%TO.C,C1*%
X5065600Y105411618D02*
X5065600Y104889114D01*
X6535600Y105411618D02*
X6535600Y104889114D01*
%TO.C,C5*%
X5763200Y46212218D02*
X5763200Y45689714D01*
X7233200Y46212218D02*
X7233200Y45689714D01*
%TO.C,R1*%
X36315000Y112192102D02*
X36315000Y112646230D01*
X37785000Y112192102D02*
X37785000Y112646230D01*
%TO.C,C6*%
X9039800Y46212218D02*
X9039800Y45689714D01*
X10509800Y46212218D02*
X10509800Y45689714D01*
%TO.C,U3*%
X16160000Y36234166D02*
X16160000Y36489166D01*
X16160000Y46499166D02*
X16160000Y46754166D01*
X16160000Y46754166D02*
X23880000Y46754166D01*
X23880000Y36234166D02*
X16160000Y36234166D01*
X23880000Y36489166D02*
X23880000Y36234166D01*
X23880000Y46754166D02*
X23880000Y46499166D01*
X15370000Y46504166D02*
X15030000Y46974166D01*
X15710000Y46974166D01*
X15370000Y46504166D01*
G36*
X15370000Y46504166D02*
G01*
X15030000Y46974166D01*
X15710000Y46974166D01*
X15370000Y46504166D01*
G37*
%TO.C,C7*%
X29055000Y46212218D02*
X29055000Y45689714D01*
X30525000Y46212218D02*
X30525000Y45689714D01*
%TO.C,C4*%
X31941600Y105411618D02*
X31941600Y104889114D01*
X33411600Y105411618D02*
X33411600Y104889114D01*
%TO.C,R2*%
X36395000Y19292102D02*
X36395000Y19746230D01*
X37865000Y19292102D02*
X37865000Y19746230D01*
%TO.C,JP2*%
X24250000Y50159166D02*
X24250000Y52109166D01*
X24250000Y52109166D02*
X29750000Y52109166D01*
X29750000Y50159166D02*
X24250000Y50159166D01*
X29750000Y52109166D02*
X29750000Y50159166D01*
%TO.C,U2*%
X15110000Y95544166D02*
X15110000Y95799166D01*
X15110000Y105809166D02*
X15110000Y106064166D01*
X15110000Y106064166D02*
X22830000Y106064166D01*
X22830000Y95544166D02*
X15110000Y95544166D01*
X22830000Y95799166D02*
X22830000Y95544166D01*
X22830000Y106064166D02*
X22830000Y105809166D01*
X14320000Y105814166D02*
X13980000Y106284166D01*
X14660000Y106284166D01*
X14320000Y105814166D01*
G36*
X14320000Y105814166D02*
G01*
X13980000Y106284166D01*
X14660000Y106284166D01*
X14320000Y105814166D01*
G37*
%TO.C,C2*%
X8065600Y105411618D02*
X8065600Y104889114D01*
X9535600Y105411618D02*
X9535600Y104889114D01*
%TO.C,C9*%
X7721148Y95565966D02*
X8243652Y95565966D01*
X7721148Y97035966D02*
X8243652Y97035966D01*
%TO.C,R4*%
X7309464Y38855766D02*
X6855336Y38855766D01*
X7309464Y40325766D02*
X6855336Y40325766D01*
%TO.C,C10*%
X6841148Y35680766D02*
X7363652Y35680766D01*
X6841148Y37150766D02*
X7363652Y37150766D01*
%TO.C,C3*%
X28935000Y105411618D02*
X28935000Y104889114D01*
X30405000Y105411618D02*
X30405000Y104889114D01*
%TO.C,C8*%
X32458600Y46212218D02*
X32458600Y45689714D01*
X33928600Y46212218D02*
X33928600Y45689714D01*
%TO.C,R3*%
X8189464Y98156766D02*
X7735336Y98156766D01*
X8189464Y99626766D02*
X7735336Y99626766D01*
%TO.C,JP1*%
X23630000Y109379166D02*
X23630000Y111329166D01*
X23630000Y111329166D02*
X29130000Y111329166D01*
X29130000Y109379166D02*
X23630000Y109379166D01*
X29130000Y111329166D02*
X29130000Y109379166D01*
%TD*%
M02*
