%TF.GenerationSoftware,KiCad,Pcbnew,9.0.5*%
%TF.CreationDate,2026-05-12T13:11:20+02:00*%
%TF.ProjectId,DMX_NODE,444d585f-4e4f-4444-952e-6b696361645f,0.8*%
%TF.SameCoordinates,PX5cfbb60PYb220960*%
%TF.FileFunction,AssemblyDrawing,Top*%
%FSLAX46Y46*%
G04 Gerber Fmt 4.6, Leading zero omitted, Abs format (unit mm)*
G04 Created by KiCad (PCBNEW 9.0.5) date 2026-05-12 13:11:20*
%MOMM*%
%LPD*%
G01*
G04 APERTURE LIST*
%ADD10C,0.150000*%
%ADD11C,0.080000*%
%ADD12C,0.100000*%
G04 APERTURE END LIST*
D10*
X4575419Y104078938D02*
X4575419Y103507510D01*
X4575419Y103793224D02*
X3575419Y103793224D01*
X3575419Y103793224D02*
X3718276Y103697986D01*
X3718276Y103697986D02*
X3813514Y103602748D01*
X3813514Y103602748D02*
X3861133Y103507510D01*
X3575419Y104697986D02*
X3575419Y104793224D01*
X3575419Y104793224D02*
X3623038Y104888462D01*
X3623038Y104888462D02*
X3670657Y104936081D01*
X3670657Y104936081D02*
X3765895Y104983700D01*
X3765895Y104983700D02*
X3956371Y105031319D01*
X3956371Y105031319D02*
X4194466Y105031319D01*
X4194466Y105031319D02*
X4384942Y104983700D01*
X4384942Y104983700D02*
X4480180Y104936081D01*
X4480180Y104936081D02*
X4527800Y104888462D01*
X4527800Y104888462D02*
X4575419Y104793224D01*
X4575419Y104793224D02*
X4575419Y104697986D01*
X4575419Y104697986D02*
X4527800Y104602748D01*
X4527800Y104602748D02*
X4480180Y104555129D01*
X4480180Y104555129D02*
X4384942Y104507510D01*
X4384942Y104507510D02*
X4194466Y104459891D01*
X4194466Y104459891D02*
X3956371Y104459891D01*
X3956371Y104459891D02*
X3765895Y104507510D01*
X3765895Y104507510D02*
X3670657Y104555129D01*
X3670657Y104555129D02*
X3623038Y104602748D01*
X3623038Y104602748D02*
X3575419Y104697986D01*
X3908752Y105888462D02*
X4575419Y105888462D01*
X3908752Y105459891D02*
X4432561Y105459891D01*
X4432561Y105459891D02*
X4527800Y105507510D01*
X4527800Y105507510D02*
X4575419Y105602748D01*
X4575419Y105602748D02*
X4575419Y105745605D01*
X4575419Y105745605D02*
X4527800Y105840843D01*
X4527800Y105840843D02*
X4480180Y105888462D01*
X4051609Y106697986D02*
X4051609Y106364653D01*
X4575419Y106364653D02*
X3575419Y106364653D01*
X3575419Y106364653D02*
X3575419Y106840843D01*
D11*
X5980130Y105067033D02*
X6003940Y105043224D01*
X6003940Y105043224D02*
X6027749Y104971795D01*
X6027749Y104971795D02*
X6027749Y104924176D01*
X6027749Y104924176D02*
X6003940Y104852748D01*
X6003940Y104852748D02*
X5956320Y104805129D01*
X5956320Y104805129D02*
X5908701Y104781319D01*
X5908701Y104781319D02*
X5813463Y104757510D01*
X5813463Y104757510D02*
X5742035Y104757510D01*
X5742035Y104757510D02*
X5646797Y104781319D01*
X5646797Y104781319D02*
X5599178Y104805129D01*
X5599178Y104805129D02*
X5551559Y104852748D01*
X5551559Y104852748D02*
X5527749Y104924176D01*
X5527749Y104924176D02*
X5527749Y104971795D01*
X5527749Y104971795D02*
X5551559Y105043224D01*
X5551559Y105043224D02*
X5575368Y105067033D01*
X6027749Y105543224D02*
X6027749Y105257510D01*
X6027749Y105400367D02*
X5527749Y105400367D01*
X5527749Y105400367D02*
X5599178Y105352748D01*
X5599178Y105352748D02*
X5646797Y105305129D01*
X5646797Y105305129D02*
X5670606Y105257510D01*
D10*
X5273019Y44879538D02*
X5273019Y44308110D01*
X5273019Y44593824D02*
X4273019Y44593824D01*
X4273019Y44593824D02*
X4415876Y44498586D01*
X4415876Y44498586D02*
X4511114Y44403348D01*
X4511114Y44403348D02*
X4558733Y44308110D01*
X4273019Y45498586D02*
X4273019Y45593824D01*
X4273019Y45593824D02*
X4320638Y45689062D01*
X4320638Y45689062D02*
X4368257Y45736681D01*
X4368257Y45736681D02*
X4463495Y45784300D01*
X4463495Y45784300D02*
X4653971Y45831919D01*
X4653971Y45831919D02*
X4892066Y45831919D01*
X4892066Y45831919D02*
X5082542Y45784300D01*
X5082542Y45784300D02*
X5177780Y45736681D01*
X5177780Y45736681D02*
X5225400Y45689062D01*
X5225400Y45689062D02*
X5273019Y45593824D01*
X5273019Y45593824D02*
X5273019Y45498586D01*
X5273019Y45498586D02*
X5225400Y45403348D01*
X5225400Y45403348D02*
X5177780Y45355729D01*
X5177780Y45355729D02*
X5082542Y45308110D01*
X5082542Y45308110D02*
X4892066Y45260491D01*
X4892066Y45260491D02*
X4653971Y45260491D01*
X4653971Y45260491D02*
X4463495Y45308110D01*
X4463495Y45308110D02*
X4368257Y45355729D01*
X4368257Y45355729D02*
X4320638Y45403348D01*
X4320638Y45403348D02*
X4273019Y45498586D01*
X4606352Y46689062D02*
X5273019Y46689062D01*
X4606352Y46260491D02*
X5130161Y46260491D01*
X5130161Y46260491D02*
X5225400Y46308110D01*
X5225400Y46308110D02*
X5273019Y46403348D01*
X5273019Y46403348D02*
X5273019Y46546205D01*
X5273019Y46546205D02*
X5225400Y46641443D01*
X5225400Y46641443D02*
X5177780Y46689062D01*
X4749209Y47498586D02*
X4749209Y47165253D01*
X5273019Y47165253D02*
X4273019Y47165253D01*
X4273019Y47165253D02*
X4273019Y47641443D01*
D11*
X6677730Y45867633D02*
X6701540Y45843824D01*
X6701540Y45843824D02*
X6725349Y45772395D01*
X6725349Y45772395D02*
X6725349Y45724776D01*
X6725349Y45724776D02*
X6701540Y45653348D01*
X6701540Y45653348D02*
X6653920Y45605729D01*
X6653920Y45605729D02*
X6606301Y45581919D01*
X6606301Y45581919D02*
X6511063Y45558110D01*
X6511063Y45558110D02*
X6439635Y45558110D01*
X6439635Y45558110D02*
X6344397Y45581919D01*
X6344397Y45581919D02*
X6296778Y45605729D01*
X6296778Y45605729D02*
X6249159Y45653348D01*
X6249159Y45653348D02*
X6225349Y45724776D01*
X6225349Y45724776D02*
X6225349Y45772395D01*
X6225349Y45772395D02*
X6249159Y45843824D01*
X6249159Y45843824D02*
X6272968Y45867633D01*
X6225349Y46320014D02*
X6225349Y46081919D01*
X6225349Y46081919D02*
X6463444Y46058110D01*
X6463444Y46058110D02*
X6439635Y46081919D01*
X6439635Y46081919D02*
X6415825Y46129538D01*
X6415825Y46129538D02*
X6415825Y46248586D01*
X6415825Y46248586D02*
X6439635Y46296205D01*
X6439635Y46296205D02*
X6463444Y46320014D01*
X6463444Y46320014D02*
X6511063Y46343824D01*
X6511063Y46343824D02*
X6630111Y46343824D01*
X6630111Y46343824D02*
X6677730Y46320014D01*
X6677730Y46320014D02*
X6701540Y46296205D01*
X6701540Y46296205D02*
X6725349Y46248586D01*
X6725349Y46248586D02*
X6725349Y46129538D01*
X6725349Y46129538D02*
X6701540Y46081919D01*
X6701540Y46081919D02*
X6677730Y46058110D01*
D10*
X39154819Y111300119D02*
X38678628Y110966786D01*
X39154819Y110728691D02*
X38154819Y110728691D01*
X38154819Y110728691D02*
X38154819Y111109643D01*
X38154819Y111109643D02*
X38202438Y111204881D01*
X38202438Y111204881D02*
X38250057Y111252500D01*
X38250057Y111252500D02*
X38345295Y111300119D01*
X38345295Y111300119D02*
X38488152Y111300119D01*
X38488152Y111300119D02*
X38583390Y111252500D01*
X38583390Y111252500D02*
X38631009Y111204881D01*
X38631009Y111204881D02*
X38678628Y111109643D01*
X38678628Y111109643D02*
X38678628Y110728691D01*
X39154819Y112252500D02*
X39154819Y111681072D01*
X39154819Y111966786D02*
X38154819Y111966786D01*
X38154819Y111966786D02*
X38297676Y111871548D01*
X38297676Y111871548D02*
X38392914Y111776310D01*
X38392914Y111776310D02*
X38440533Y111681072D01*
X38250057Y112633453D02*
X38202438Y112681072D01*
X38202438Y112681072D02*
X38154819Y112776310D01*
X38154819Y112776310D02*
X38154819Y113014405D01*
X38154819Y113014405D02*
X38202438Y113109643D01*
X38202438Y113109643D02*
X38250057Y113157262D01*
X38250057Y113157262D02*
X38345295Y113204881D01*
X38345295Y113204881D02*
X38440533Y113204881D01*
X38440533Y113204881D02*
X38583390Y113157262D01*
X38583390Y113157262D02*
X39154819Y112585834D01*
X39154819Y112585834D02*
X39154819Y113204881D01*
X38154819Y113823929D02*
X38154819Y113919167D01*
X38154819Y113919167D02*
X38202438Y114014405D01*
X38202438Y114014405D02*
X38250057Y114062024D01*
X38250057Y114062024D02*
X38345295Y114109643D01*
X38345295Y114109643D02*
X38535771Y114157262D01*
X38535771Y114157262D02*
X38773866Y114157262D01*
X38773866Y114157262D02*
X38964342Y114109643D01*
X38964342Y114109643D02*
X39059580Y114062024D01*
X39059580Y114062024D02*
X39107200Y114014405D01*
X39107200Y114014405D02*
X39154819Y113919167D01*
X39154819Y113919167D02*
X39154819Y113823929D01*
X39154819Y113823929D02*
X39107200Y113728691D01*
X39107200Y113728691D02*
X39059580Y113681072D01*
X39059580Y113681072D02*
X38964342Y113633453D01*
X38964342Y113633453D02*
X38773866Y113585834D01*
X38773866Y113585834D02*
X38535771Y113585834D01*
X38535771Y113585834D02*
X38345295Y113633453D01*
X38345295Y113633453D02*
X38250057Y113681072D01*
X38250057Y113681072D02*
X38202438Y113728691D01*
X38202438Y113728691D02*
X38154819Y113823929D01*
D11*
X37277149Y112335833D02*
X37039054Y112169167D01*
X37277149Y112050119D02*
X36777149Y112050119D01*
X36777149Y112050119D02*
X36777149Y112240595D01*
X36777149Y112240595D02*
X36800959Y112288214D01*
X36800959Y112288214D02*
X36824768Y112312024D01*
X36824768Y112312024D02*
X36872387Y112335833D01*
X36872387Y112335833D02*
X36943816Y112335833D01*
X36943816Y112335833D02*
X36991435Y112312024D01*
X36991435Y112312024D02*
X37015244Y112288214D01*
X37015244Y112288214D02*
X37039054Y112240595D01*
X37039054Y112240595D02*
X37039054Y112050119D01*
X37277149Y112812024D02*
X37277149Y112526310D01*
X37277149Y112669167D02*
X36777149Y112669167D01*
X36777149Y112669167D02*
X36848578Y112621548D01*
X36848578Y112621548D02*
X36896197Y112573929D01*
X36896197Y112573929D02*
X36920006Y112526310D01*
D10*
X8549619Y44403347D02*
X8549619Y43831919D01*
X8549619Y44117633D02*
X7549619Y44117633D01*
X7549619Y44117633D02*
X7692476Y44022395D01*
X7692476Y44022395D02*
X7787714Y43927157D01*
X7787714Y43927157D02*
X7835333Y43831919D01*
X7549619Y45022395D02*
X7549619Y45117633D01*
X7549619Y45117633D02*
X7597238Y45212871D01*
X7597238Y45212871D02*
X7644857Y45260490D01*
X7644857Y45260490D02*
X7740095Y45308109D01*
X7740095Y45308109D02*
X7930571Y45355728D01*
X7930571Y45355728D02*
X8168666Y45355728D01*
X8168666Y45355728D02*
X8359142Y45308109D01*
X8359142Y45308109D02*
X8454380Y45260490D01*
X8454380Y45260490D02*
X8502000Y45212871D01*
X8502000Y45212871D02*
X8549619Y45117633D01*
X8549619Y45117633D02*
X8549619Y45022395D01*
X8549619Y45022395D02*
X8502000Y44927157D01*
X8502000Y44927157D02*
X8454380Y44879538D01*
X8454380Y44879538D02*
X8359142Y44831919D01*
X8359142Y44831919D02*
X8168666Y44784300D01*
X8168666Y44784300D02*
X7930571Y44784300D01*
X7930571Y44784300D02*
X7740095Y44831919D01*
X7740095Y44831919D02*
X7644857Y44879538D01*
X7644857Y44879538D02*
X7597238Y44927157D01*
X7597238Y44927157D02*
X7549619Y45022395D01*
X7549619Y45974776D02*
X7549619Y46070014D01*
X7549619Y46070014D02*
X7597238Y46165252D01*
X7597238Y46165252D02*
X7644857Y46212871D01*
X7644857Y46212871D02*
X7740095Y46260490D01*
X7740095Y46260490D02*
X7930571Y46308109D01*
X7930571Y46308109D02*
X8168666Y46308109D01*
X8168666Y46308109D02*
X8359142Y46260490D01*
X8359142Y46260490D02*
X8454380Y46212871D01*
X8454380Y46212871D02*
X8502000Y46165252D01*
X8502000Y46165252D02*
X8549619Y46070014D01*
X8549619Y46070014D02*
X8549619Y45974776D01*
X8549619Y45974776D02*
X8502000Y45879538D01*
X8502000Y45879538D02*
X8454380Y45831919D01*
X8454380Y45831919D02*
X8359142Y45784300D01*
X8359142Y45784300D02*
X8168666Y45736681D01*
X8168666Y45736681D02*
X7930571Y45736681D01*
X7930571Y45736681D02*
X7740095Y45784300D01*
X7740095Y45784300D02*
X7644857Y45831919D01*
X7644857Y45831919D02*
X7597238Y45879538D01*
X7597238Y45879538D02*
X7549619Y45974776D01*
X7882952Y46736681D02*
X8549619Y46736681D01*
X7978190Y46736681D02*
X7930571Y46784300D01*
X7930571Y46784300D02*
X7882952Y46879538D01*
X7882952Y46879538D02*
X7882952Y47022395D01*
X7882952Y47022395D02*
X7930571Y47117633D01*
X7930571Y47117633D02*
X8025809Y47165252D01*
X8025809Y47165252D02*
X8549619Y47165252D01*
X8025809Y47974776D02*
X8025809Y47641443D01*
X8549619Y47641443D02*
X7549619Y47641443D01*
X7549619Y47641443D02*
X7549619Y48117633D01*
D11*
X9954330Y45867633D02*
X9978140Y45843824D01*
X9978140Y45843824D02*
X10001949Y45772395D01*
X10001949Y45772395D02*
X10001949Y45724776D01*
X10001949Y45724776D02*
X9978140Y45653348D01*
X9978140Y45653348D02*
X9930520Y45605729D01*
X9930520Y45605729D02*
X9882901Y45581919D01*
X9882901Y45581919D02*
X9787663Y45558110D01*
X9787663Y45558110D02*
X9716235Y45558110D01*
X9716235Y45558110D02*
X9620997Y45581919D01*
X9620997Y45581919D02*
X9573378Y45605729D01*
X9573378Y45605729D02*
X9525759Y45653348D01*
X9525759Y45653348D02*
X9501949Y45724776D01*
X9501949Y45724776D02*
X9501949Y45772395D01*
X9501949Y45772395D02*
X9525759Y45843824D01*
X9525759Y45843824D02*
X9549568Y45867633D01*
X9501949Y46296205D02*
X9501949Y46200967D01*
X9501949Y46200967D02*
X9525759Y46153348D01*
X9525759Y46153348D02*
X9549568Y46129538D01*
X9549568Y46129538D02*
X9620997Y46081919D01*
X9620997Y46081919D02*
X9716235Y46058110D01*
X9716235Y46058110D02*
X9906711Y46058110D01*
X9906711Y46058110D02*
X9954330Y46081919D01*
X9954330Y46081919D02*
X9978140Y46105729D01*
X9978140Y46105729D02*
X10001949Y46153348D01*
X10001949Y46153348D02*
X10001949Y46248586D01*
X10001949Y46248586D02*
X9978140Y46296205D01*
X9978140Y46296205D02*
X9954330Y46320014D01*
X9954330Y46320014D02*
X9906711Y46343824D01*
X9906711Y46343824D02*
X9787663Y46343824D01*
X9787663Y46343824D02*
X9740044Y46320014D01*
X9740044Y46320014D02*
X9716235Y46296205D01*
X9716235Y46296205D02*
X9692425Y46248586D01*
X9692425Y46248586D02*
X9692425Y46153348D01*
X9692425Y46153348D02*
X9716235Y46105729D01*
X9716235Y46105729D02*
X9740044Y46081919D01*
X9740044Y46081919D02*
X9787663Y46058110D01*
D10*
X16091428Y35034586D02*
X16043809Y34986966D01*
X16043809Y34986966D02*
X15900952Y34939347D01*
X15900952Y34939347D02*
X15805714Y34939347D01*
X15805714Y34939347D02*
X15662857Y34986966D01*
X15662857Y34986966D02*
X15567619Y35082205D01*
X15567619Y35082205D02*
X15520000Y35177443D01*
X15520000Y35177443D02*
X15472381Y35367919D01*
X15472381Y35367919D02*
X15472381Y35510776D01*
X15472381Y35510776D02*
X15520000Y35701252D01*
X15520000Y35701252D02*
X15567619Y35796490D01*
X15567619Y35796490D02*
X15662857Y35891728D01*
X15662857Y35891728D02*
X15805714Y35939347D01*
X15805714Y35939347D02*
X15900952Y35939347D01*
X15900952Y35939347D02*
X16043809Y35891728D01*
X16043809Y35891728D02*
X16091428Y35844109D01*
X16472381Y35225062D02*
X16948571Y35225062D01*
X16377143Y34939347D02*
X16710476Y35939347D01*
X16710476Y35939347D02*
X17043809Y34939347D01*
X17377143Y35320300D02*
X18139048Y35320300D01*
X18615238Y34939347D02*
X18615238Y35939347D01*
X19043809Y34986966D02*
X19186666Y34939347D01*
X19186666Y34939347D02*
X19424761Y34939347D01*
X19424761Y34939347D02*
X19519999Y34986966D01*
X19519999Y34986966D02*
X19567618Y35034586D01*
X19567618Y35034586D02*
X19615237Y35129824D01*
X19615237Y35129824D02*
X19615237Y35225062D01*
X19615237Y35225062D02*
X19567618Y35320300D01*
X19567618Y35320300D02*
X19519999Y35367919D01*
X19519999Y35367919D02*
X19424761Y35415538D01*
X19424761Y35415538D02*
X19234285Y35463157D01*
X19234285Y35463157D02*
X19139047Y35510776D01*
X19139047Y35510776D02*
X19091428Y35558395D01*
X19091428Y35558395D02*
X19043809Y35653633D01*
X19043809Y35653633D02*
X19043809Y35748871D01*
X19043809Y35748871D02*
X19091428Y35844109D01*
X19091428Y35844109D02*
X19139047Y35891728D01*
X19139047Y35891728D02*
X19234285Y35939347D01*
X19234285Y35939347D02*
X19472380Y35939347D01*
X19472380Y35939347D02*
X19615237Y35891728D01*
X19948571Y35939347D02*
X20567618Y35939347D01*
X20567618Y35939347D02*
X20234285Y35558395D01*
X20234285Y35558395D02*
X20377142Y35558395D01*
X20377142Y35558395D02*
X20472380Y35510776D01*
X20472380Y35510776D02*
X20519999Y35463157D01*
X20519999Y35463157D02*
X20567618Y35367919D01*
X20567618Y35367919D02*
X20567618Y35129824D01*
X20567618Y35129824D02*
X20519999Y35034586D01*
X20519999Y35034586D02*
X20472380Y34986966D01*
X20472380Y34986966D02*
X20377142Y34939347D01*
X20377142Y34939347D02*
X20091428Y34939347D01*
X20091428Y34939347D02*
X19996190Y34986966D01*
X19996190Y34986966D02*
X19948571Y35034586D01*
X21186666Y35939347D02*
X21281904Y35939347D01*
X21281904Y35939347D02*
X21377142Y35891728D01*
X21377142Y35891728D02*
X21424761Y35844109D01*
X21424761Y35844109D02*
X21472380Y35748871D01*
X21472380Y35748871D02*
X21519999Y35558395D01*
X21519999Y35558395D02*
X21519999Y35320300D01*
X21519999Y35320300D02*
X21472380Y35129824D01*
X21472380Y35129824D02*
X21424761Y35034586D01*
X21424761Y35034586D02*
X21377142Y34986966D01*
X21377142Y34986966D02*
X21281904Y34939347D01*
X21281904Y34939347D02*
X21186666Y34939347D01*
X21186666Y34939347D02*
X21091428Y34986966D01*
X21091428Y34986966D02*
X21043809Y35034586D01*
X21043809Y35034586D02*
X20996190Y35129824D01*
X20996190Y35129824D02*
X20948571Y35320300D01*
X20948571Y35320300D02*
X20948571Y35558395D01*
X20948571Y35558395D02*
X20996190Y35748871D01*
X20996190Y35748871D02*
X21043809Y35844109D01*
X21043809Y35844109D02*
X21091428Y35891728D01*
X21091428Y35891728D02*
X21186666Y35939347D01*
X21996190Y34939347D02*
X22186666Y34939347D01*
X22186666Y34939347D02*
X22281904Y34986966D01*
X22281904Y34986966D02*
X22329523Y35034586D01*
X22329523Y35034586D02*
X22424761Y35177443D01*
X22424761Y35177443D02*
X22472380Y35367919D01*
X22472380Y35367919D02*
X22472380Y35748871D01*
X22472380Y35748871D02*
X22424761Y35844109D01*
X22424761Y35844109D02*
X22377142Y35891728D01*
X22377142Y35891728D02*
X22281904Y35939347D01*
X22281904Y35939347D02*
X22091428Y35939347D01*
X22091428Y35939347D02*
X21996190Y35891728D01*
X21996190Y35891728D02*
X21948571Y35844109D01*
X21948571Y35844109D02*
X21900952Y35748871D01*
X21900952Y35748871D02*
X21900952Y35510776D01*
X21900952Y35510776D02*
X21948571Y35415538D01*
X21948571Y35415538D02*
X21996190Y35367919D01*
X21996190Y35367919D02*
X22091428Y35320300D01*
X22091428Y35320300D02*
X22281904Y35320300D01*
X22281904Y35320300D02*
X22377142Y35367919D01*
X22377142Y35367919D02*
X22424761Y35415538D01*
X22424761Y35415538D02*
X22472380Y35510776D01*
X22853333Y35844109D02*
X22900952Y35891728D01*
X22900952Y35891728D02*
X22996190Y35939347D01*
X22996190Y35939347D02*
X23234285Y35939347D01*
X23234285Y35939347D02*
X23329523Y35891728D01*
X23329523Y35891728D02*
X23377142Y35844109D01*
X23377142Y35844109D02*
X23424761Y35748871D01*
X23424761Y35748871D02*
X23424761Y35653633D01*
X23424761Y35653633D02*
X23377142Y35510776D01*
X23377142Y35510776D02*
X22805714Y34939347D01*
X22805714Y34939347D02*
X23424761Y34939347D01*
X23758095Y35939347D02*
X23996190Y34939347D01*
X23996190Y34939347D02*
X24186666Y35653633D01*
X24186666Y35653633D02*
X24377142Y34939347D01*
X24377142Y34939347D02*
X24615238Y35939347D01*
X19258095Y42039347D02*
X19258095Y41229824D01*
X19258095Y41229824D02*
X19305714Y41134586D01*
X19305714Y41134586D02*
X19353333Y41086966D01*
X19353333Y41086966D02*
X19448571Y41039347D01*
X19448571Y41039347D02*
X19639047Y41039347D01*
X19639047Y41039347D02*
X19734285Y41086966D01*
X19734285Y41086966D02*
X19781904Y41134586D01*
X19781904Y41134586D02*
X19829523Y41229824D01*
X19829523Y41229824D02*
X19829523Y42039347D01*
X20210476Y42039347D02*
X20829523Y42039347D01*
X20829523Y42039347D02*
X20496190Y41658395D01*
X20496190Y41658395D02*
X20639047Y41658395D01*
X20639047Y41658395D02*
X20734285Y41610776D01*
X20734285Y41610776D02*
X20781904Y41563157D01*
X20781904Y41563157D02*
X20829523Y41467919D01*
X20829523Y41467919D02*
X20829523Y41229824D01*
X20829523Y41229824D02*
X20781904Y41134586D01*
X20781904Y41134586D02*
X20734285Y41086966D01*
X20734285Y41086966D02*
X20639047Y41039347D01*
X20639047Y41039347D02*
X20353333Y41039347D01*
X20353333Y41039347D02*
X20258095Y41086966D01*
X20258095Y41086966D02*
X20210476Y41134586D01*
X28564819Y44403347D02*
X28564819Y43831919D01*
X28564819Y44117633D02*
X27564819Y44117633D01*
X27564819Y44117633D02*
X27707676Y44022395D01*
X27707676Y44022395D02*
X27802914Y43927157D01*
X27802914Y43927157D02*
X27850533Y43831919D01*
X27564819Y45022395D02*
X27564819Y45117633D01*
X27564819Y45117633D02*
X27612438Y45212871D01*
X27612438Y45212871D02*
X27660057Y45260490D01*
X27660057Y45260490D02*
X27755295Y45308109D01*
X27755295Y45308109D02*
X27945771Y45355728D01*
X27945771Y45355728D02*
X28183866Y45355728D01*
X28183866Y45355728D02*
X28374342Y45308109D01*
X28374342Y45308109D02*
X28469580Y45260490D01*
X28469580Y45260490D02*
X28517200Y45212871D01*
X28517200Y45212871D02*
X28564819Y45117633D01*
X28564819Y45117633D02*
X28564819Y45022395D01*
X28564819Y45022395D02*
X28517200Y44927157D01*
X28517200Y44927157D02*
X28469580Y44879538D01*
X28469580Y44879538D02*
X28374342Y44831919D01*
X28374342Y44831919D02*
X28183866Y44784300D01*
X28183866Y44784300D02*
X27945771Y44784300D01*
X27945771Y44784300D02*
X27755295Y44831919D01*
X27755295Y44831919D02*
X27660057Y44879538D01*
X27660057Y44879538D02*
X27612438Y44927157D01*
X27612438Y44927157D02*
X27564819Y45022395D01*
X27564819Y45974776D02*
X27564819Y46070014D01*
X27564819Y46070014D02*
X27612438Y46165252D01*
X27612438Y46165252D02*
X27660057Y46212871D01*
X27660057Y46212871D02*
X27755295Y46260490D01*
X27755295Y46260490D02*
X27945771Y46308109D01*
X27945771Y46308109D02*
X28183866Y46308109D01*
X28183866Y46308109D02*
X28374342Y46260490D01*
X28374342Y46260490D02*
X28469580Y46212871D01*
X28469580Y46212871D02*
X28517200Y46165252D01*
X28517200Y46165252D02*
X28564819Y46070014D01*
X28564819Y46070014D02*
X28564819Y45974776D01*
X28564819Y45974776D02*
X28517200Y45879538D01*
X28517200Y45879538D02*
X28469580Y45831919D01*
X28469580Y45831919D02*
X28374342Y45784300D01*
X28374342Y45784300D02*
X28183866Y45736681D01*
X28183866Y45736681D02*
X27945771Y45736681D01*
X27945771Y45736681D02*
X27755295Y45784300D01*
X27755295Y45784300D02*
X27660057Y45831919D01*
X27660057Y45831919D02*
X27612438Y45879538D01*
X27612438Y45879538D02*
X27564819Y45974776D01*
X27898152Y46736681D02*
X28564819Y46736681D01*
X27993390Y46736681D02*
X27945771Y46784300D01*
X27945771Y46784300D02*
X27898152Y46879538D01*
X27898152Y46879538D02*
X27898152Y47022395D01*
X27898152Y47022395D02*
X27945771Y47117633D01*
X27945771Y47117633D02*
X28041009Y47165252D01*
X28041009Y47165252D02*
X28564819Y47165252D01*
X28041009Y47974776D02*
X28041009Y47641443D01*
X28564819Y47641443D02*
X27564819Y47641443D01*
X27564819Y47641443D02*
X27564819Y48117633D01*
D11*
X29969530Y45867633D02*
X29993340Y45843824D01*
X29993340Y45843824D02*
X30017149Y45772395D01*
X30017149Y45772395D02*
X30017149Y45724776D01*
X30017149Y45724776D02*
X29993340Y45653348D01*
X29993340Y45653348D02*
X29945720Y45605729D01*
X29945720Y45605729D02*
X29898101Y45581919D01*
X29898101Y45581919D02*
X29802863Y45558110D01*
X29802863Y45558110D02*
X29731435Y45558110D01*
X29731435Y45558110D02*
X29636197Y45581919D01*
X29636197Y45581919D02*
X29588578Y45605729D01*
X29588578Y45605729D02*
X29540959Y45653348D01*
X29540959Y45653348D02*
X29517149Y45724776D01*
X29517149Y45724776D02*
X29517149Y45772395D01*
X29517149Y45772395D02*
X29540959Y45843824D01*
X29540959Y45843824D02*
X29564768Y45867633D01*
X29517149Y46034300D02*
X29517149Y46367633D01*
X29517149Y46367633D02*
X30017149Y46153348D01*
D10*
X31360819Y104078938D02*
X31360819Y103507510D01*
X31360819Y103793224D02*
X30360819Y103793224D01*
X30360819Y103793224D02*
X30503676Y103697986D01*
X30503676Y103697986D02*
X30598914Y103602748D01*
X30598914Y103602748D02*
X30646533Y103507510D01*
X30360819Y104697986D02*
X30360819Y104793224D01*
X30360819Y104793224D02*
X30408438Y104888462D01*
X30408438Y104888462D02*
X30456057Y104936081D01*
X30456057Y104936081D02*
X30551295Y104983700D01*
X30551295Y104983700D02*
X30741771Y105031319D01*
X30741771Y105031319D02*
X30979866Y105031319D01*
X30979866Y105031319D02*
X31170342Y104983700D01*
X31170342Y104983700D02*
X31265580Y104936081D01*
X31265580Y104936081D02*
X31313200Y104888462D01*
X31313200Y104888462D02*
X31360819Y104793224D01*
X31360819Y104793224D02*
X31360819Y104697986D01*
X31360819Y104697986D02*
X31313200Y104602748D01*
X31313200Y104602748D02*
X31265580Y104555129D01*
X31265580Y104555129D02*
X31170342Y104507510D01*
X31170342Y104507510D02*
X30979866Y104459891D01*
X30979866Y104459891D02*
X30741771Y104459891D01*
X30741771Y104459891D02*
X30551295Y104507510D01*
X30551295Y104507510D02*
X30456057Y104555129D01*
X30456057Y104555129D02*
X30408438Y104602748D01*
X30408438Y104602748D02*
X30360819Y104697986D01*
X30694152Y105888462D02*
X31360819Y105888462D01*
X30694152Y105459891D02*
X31217961Y105459891D01*
X31217961Y105459891D02*
X31313200Y105507510D01*
X31313200Y105507510D02*
X31360819Y105602748D01*
X31360819Y105602748D02*
X31360819Y105745605D01*
X31360819Y105745605D02*
X31313200Y105840843D01*
X31313200Y105840843D02*
X31265580Y105888462D01*
X30837009Y106697986D02*
X30837009Y106364653D01*
X31360819Y106364653D02*
X30360819Y106364653D01*
X30360819Y106364653D02*
X30360819Y106840843D01*
D11*
X32856130Y105067033D02*
X32879940Y105043224D01*
X32879940Y105043224D02*
X32903749Y104971795D01*
X32903749Y104971795D02*
X32903749Y104924176D01*
X32903749Y104924176D02*
X32879940Y104852748D01*
X32879940Y104852748D02*
X32832320Y104805129D01*
X32832320Y104805129D02*
X32784701Y104781319D01*
X32784701Y104781319D02*
X32689463Y104757510D01*
X32689463Y104757510D02*
X32618035Y104757510D01*
X32618035Y104757510D02*
X32522797Y104781319D01*
X32522797Y104781319D02*
X32475178Y104805129D01*
X32475178Y104805129D02*
X32427559Y104852748D01*
X32427559Y104852748D02*
X32403749Y104924176D01*
X32403749Y104924176D02*
X32403749Y104971795D01*
X32403749Y104971795D02*
X32427559Y105043224D01*
X32427559Y105043224D02*
X32451368Y105067033D01*
X32570416Y105495605D02*
X32903749Y105495605D01*
X32379940Y105376557D02*
X32737082Y105257510D01*
X32737082Y105257510D02*
X32737082Y105567033D01*
D10*
X39234819Y18400119D02*
X38758628Y18066786D01*
X39234819Y17828691D02*
X38234819Y17828691D01*
X38234819Y17828691D02*
X38234819Y18209643D01*
X38234819Y18209643D02*
X38282438Y18304881D01*
X38282438Y18304881D02*
X38330057Y18352500D01*
X38330057Y18352500D02*
X38425295Y18400119D01*
X38425295Y18400119D02*
X38568152Y18400119D01*
X38568152Y18400119D02*
X38663390Y18352500D01*
X38663390Y18352500D02*
X38711009Y18304881D01*
X38711009Y18304881D02*
X38758628Y18209643D01*
X38758628Y18209643D02*
X38758628Y17828691D01*
X39234819Y19352500D02*
X39234819Y18781072D01*
X39234819Y19066786D02*
X38234819Y19066786D01*
X38234819Y19066786D02*
X38377676Y18971548D01*
X38377676Y18971548D02*
X38472914Y18876310D01*
X38472914Y18876310D02*
X38520533Y18781072D01*
X38330057Y19733453D02*
X38282438Y19781072D01*
X38282438Y19781072D02*
X38234819Y19876310D01*
X38234819Y19876310D02*
X38234819Y20114405D01*
X38234819Y20114405D02*
X38282438Y20209643D01*
X38282438Y20209643D02*
X38330057Y20257262D01*
X38330057Y20257262D02*
X38425295Y20304881D01*
X38425295Y20304881D02*
X38520533Y20304881D01*
X38520533Y20304881D02*
X38663390Y20257262D01*
X38663390Y20257262D02*
X39234819Y19685834D01*
X39234819Y19685834D02*
X39234819Y20304881D01*
X38234819Y20923929D02*
X38234819Y21019167D01*
X38234819Y21019167D02*
X38282438Y21114405D01*
X38282438Y21114405D02*
X38330057Y21162024D01*
X38330057Y21162024D02*
X38425295Y21209643D01*
X38425295Y21209643D02*
X38615771Y21257262D01*
X38615771Y21257262D02*
X38853866Y21257262D01*
X38853866Y21257262D02*
X39044342Y21209643D01*
X39044342Y21209643D02*
X39139580Y21162024D01*
X39139580Y21162024D02*
X39187200Y21114405D01*
X39187200Y21114405D02*
X39234819Y21019167D01*
X39234819Y21019167D02*
X39234819Y20923929D01*
X39234819Y20923929D02*
X39187200Y20828691D01*
X39187200Y20828691D02*
X39139580Y20781072D01*
X39139580Y20781072D02*
X39044342Y20733453D01*
X39044342Y20733453D02*
X38853866Y20685834D01*
X38853866Y20685834D02*
X38615771Y20685834D01*
X38615771Y20685834D02*
X38425295Y20733453D01*
X38425295Y20733453D02*
X38330057Y20781072D01*
X38330057Y20781072D02*
X38282438Y20828691D01*
X38282438Y20828691D02*
X38234819Y20923929D01*
D11*
X37357149Y19435833D02*
X37119054Y19269167D01*
X37357149Y19150119D02*
X36857149Y19150119D01*
X36857149Y19150119D02*
X36857149Y19340595D01*
X36857149Y19340595D02*
X36880959Y19388214D01*
X36880959Y19388214D02*
X36904768Y19412024D01*
X36904768Y19412024D02*
X36952387Y19435833D01*
X36952387Y19435833D02*
X37023816Y19435833D01*
X37023816Y19435833D02*
X37071435Y19412024D01*
X37071435Y19412024D02*
X37095244Y19388214D01*
X37095244Y19388214D02*
X37119054Y19340595D01*
X37119054Y19340595D02*
X37119054Y19150119D01*
X36904768Y19626310D02*
X36880959Y19650119D01*
X36880959Y19650119D02*
X36857149Y19697738D01*
X36857149Y19697738D02*
X36857149Y19816786D01*
X36857149Y19816786D02*
X36880959Y19864405D01*
X36880959Y19864405D02*
X36904768Y19888214D01*
X36904768Y19888214D02*
X36952387Y19912024D01*
X36952387Y19912024D02*
X37000006Y19912024D01*
X37000006Y19912024D02*
X37071435Y19888214D01*
X37071435Y19888214D02*
X37357149Y19602500D01*
X37357149Y19602500D02*
X37357149Y19912024D01*
D10*
X22084523Y53629347D02*
X22417856Y52629347D01*
X22417856Y52629347D02*
X22751189Y53629347D01*
X23084523Y52629347D02*
X23084523Y53629347D01*
X23513094Y52676966D02*
X23655951Y52629347D01*
X23655951Y52629347D02*
X23894046Y52629347D01*
X23894046Y52629347D02*
X23989284Y52676966D01*
X23989284Y52676966D02*
X24036903Y52724586D01*
X24036903Y52724586D02*
X24084522Y52819824D01*
X24084522Y52819824D02*
X24084522Y52915062D01*
X24084522Y52915062D02*
X24036903Y53010300D01*
X24036903Y53010300D02*
X23989284Y53057919D01*
X23989284Y53057919D02*
X23894046Y53105538D01*
X23894046Y53105538D02*
X23703570Y53153157D01*
X23703570Y53153157D02*
X23608332Y53200776D01*
X23608332Y53200776D02*
X23560713Y53248395D01*
X23560713Y53248395D02*
X23513094Y53343633D01*
X23513094Y53343633D02*
X23513094Y53438871D01*
X23513094Y53438871D02*
X23560713Y53534109D01*
X23560713Y53534109D02*
X23608332Y53581728D01*
X23608332Y53581728D02*
X23703570Y53629347D01*
X23703570Y53629347D02*
X23941665Y53629347D01*
X23941665Y53629347D02*
X24084522Y53581728D01*
X24703570Y53629347D02*
X24894046Y53629347D01*
X24894046Y53629347D02*
X24989284Y53581728D01*
X24989284Y53581728D02*
X25084522Y53486490D01*
X25084522Y53486490D02*
X25132141Y53296014D01*
X25132141Y53296014D02*
X25132141Y52962681D01*
X25132141Y52962681D02*
X25084522Y52772205D01*
X25084522Y52772205D02*
X24989284Y52676966D01*
X24989284Y52676966D02*
X24894046Y52629347D01*
X24894046Y52629347D02*
X24703570Y52629347D01*
X24703570Y52629347D02*
X24608332Y52676966D01*
X24608332Y52676966D02*
X24513094Y52772205D01*
X24513094Y52772205D02*
X24465475Y52962681D01*
X24465475Y52962681D02*
X24465475Y53296014D01*
X24465475Y53296014D02*
X24513094Y53486490D01*
X24513094Y53486490D02*
X24608332Y53581728D01*
X24608332Y53581728D02*
X24703570Y53629347D01*
X26274999Y52676966D02*
X26370237Y52629347D01*
X26370237Y52629347D02*
X26560713Y52629347D01*
X26560713Y52629347D02*
X26655951Y52676966D01*
X26655951Y52676966D02*
X26703570Y52772205D01*
X26703570Y52772205D02*
X26703570Y52819824D01*
X26703570Y52819824D02*
X26655951Y52915062D01*
X26655951Y52915062D02*
X26560713Y52962681D01*
X26560713Y52962681D02*
X26417856Y52962681D01*
X26417856Y52962681D02*
X26322618Y53010300D01*
X26322618Y53010300D02*
X26274999Y53105538D01*
X26274999Y53105538D02*
X26274999Y53153157D01*
X26274999Y53153157D02*
X26322618Y53248395D01*
X26322618Y53248395D02*
X26417856Y53296014D01*
X26417856Y53296014D02*
X26560713Y53296014D01*
X26560713Y53296014D02*
X26655951Y53248395D01*
X27513094Y52676966D02*
X27417856Y52629347D01*
X27417856Y52629347D02*
X27227380Y52629347D01*
X27227380Y52629347D02*
X27132142Y52676966D01*
X27132142Y52676966D02*
X27084523Y52772205D01*
X27084523Y52772205D02*
X27084523Y53153157D01*
X27084523Y53153157D02*
X27132142Y53248395D01*
X27132142Y53248395D02*
X27227380Y53296014D01*
X27227380Y53296014D02*
X27417856Y53296014D01*
X27417856Y53296014D02*
X27513094Y53248395D01*
X27513094Y53248395D02*
X27560713Y53153157D01*
X27560713Y53153157D02*
X27560713Y53057919D01*
X27560713Y53057919D02*
X27084523Y52962681D01*
X28132142Y52629347D02*
X28036904Y52676966D01*
X28036904Y52676966D02*
X27989285Y52772205D01*
X27989285Y52772205D02*
X27989285Y53629347D01*
X28894047Y52676966D02*
X28798809Y52629347D01*
X28798809Y52629347D02*
X28608333Y52629347D01*
X28608333Y52629347D02*
X28513095Y52676966D01*
X28513095Y52676966D02*
X28465476Y52772205D01*
X28465476Y52772205D02*
X28465476Y53153157D01*
X28465476Y53153157D02*
X28513095Y53248395D01*
X28513095Y53248395D02*
X28608333Y53296014D01*
X28608333Y53296014D02*
X28798809Y53296014D01*
X28798809Y53296014D02*
X28894047Y53248395D01*
X28894047Y53248395D02*
X28941666Y53153157D01*
X28941666Y53153157D02*
X28941666Y53057919D01*
X28941666Y53057919D02*
X28465476Y52962681D01*
X29798809Y52676966D02*
X29703571Y52629347D01*
X29703571Y52629347D02*
X29513095Y52629347D01*
X29513095Y52629347D02*
X29417857Y52676966D01*
X29417857Y52676966D02*
X29370238Y52724586D01*
X29370238Y52724586D02*
X29322619Y52819824D01*
X29322619Y52819824D02*
X29322619Y53105538D01*
X29322619Y53105538D02*
X29370238Y53200776D01*
X29370238Y53200776D02*
X29417857Y53248395D01*
X29417857Y53248395D02*
X29513095Y53296014D01*
X29513095Y53296014D02*
X29703571Y53296014D01*
X29703571Y53296014D02*
X29798809Y53248395D01*
X30084524Y53296014D02*
X30465476Y53296014D01*
X30227381Y53629347D02*
X30227381Y52772205D01*
X30227381Y52772205D02*
X30275000Y52676966D01*
X30275000Y52676966D02*
X30370238Y52629347D01*
X30370238Y52629347D02*
X30465476Y52629347D01*
X15041428Y94344586D02*
X14993809Y94296966D01*
X14993809Y94296966D02*
X14850952Y94249347D01*
X14850952Y94249347D02*
X14755714Y94249347D01*
X14755714Y94249347D02*
X14612857Y94296966D01*
X14612857Y94296966D02*
X14517619Y94392205D01*
X14517619Y94392205D02*
X14470000Y94487443D01*
X14470000Y94487443D02*
X14422381Y94677919D01*
X14422381Y94677919D02*
X14422381Y94820776D01*
X14422381Y94820776D02*
X14470000Y95011252D01*
X14470000Y95011252D02*
X14517619Y95106490D01*
X14517619Y95106490D02*
X14612857Y95201728D01*
X14612857Y95201728D02*
X14755714Y95249347D01*
X14755714Y95249347D02*
X14850952Y95249347D01*
X14850952Y95249347D02*
X14993809Y95201728D01*
X14993809Y95201728D02*
X15041428Y95154109D01*
X15422381Y94535062D02*
X15898571Y94535062D01*
X15327143Y94249347D02*
X15660476Y95249347D01*
X15660476Y95249347D02*
X15993809Y94249347D01*
X16327143Y94630300D02*
X17089048Y94630300D01*
X17565238Y94249347D02*
X17565238Y95249347D01*
X17993809Y94296966D02*
X18136666Y94249347D01*
X18136666Y94249347D02*
X18374761Y94249347D01*
X18374761Y94249347D02*
X18469999Y94296966D01*
X18469999Y94296966D02*
X18517618Y94344586D01*
X18517618Y94344586D02*
X18565237Y94439824D01*
X18565237Y94439824D02*
X18565237Y94535062D01*
X18565237Y94535062D02*
X18517618Y94630300D01*
X18517618Y94630300D02*
X18469999Y94677919D01*
X18469999Y94677919D02*
X18374761Y94725538D01*
X18374761Y94725538D02*
X18184285Y94773157D01*
X18184285Y94773157D02*
X18089047Y94820776D01*
X18089047Y94820776D02*
X18041428Y94868395D01*
X18041428Y94868395D02*
X17993809Y94963633D01*
X17993809Y94963633D02*
X17993809Y95058871D01*
X17993809Y95058871D02*
X18041428Y95154109D01*
X18041428Y95154109D02*
X18089047Y95201728D01*
X18089047Y95201728D02*
X18184285Y95249347D01*
X18184285Y95249347D02*
X18422380Y95249347D01*
X18422380Y95249347D02*
X18565237Y95201728D01*
X18898571Y95249347D02*
X19517618Y95249347D01*
X19517618Y95249347D02*
X19184285Y94868395D01*
X19184285Y94868395D02*
X19327142Y94868395D01*
X19327142Y94868395D02*
X19422380Y94820776D01*
X19422380Y94820776D02*
X19469999Y94773157D01*
X19469999Y94773157D02*
X19517618Y94677919D01*
X19517618Y94677919D02*
X19517618Y94439824D01*
X19517618Y94439824D02*
X19469999Y94344586D01*
X19469999Y94344586D02*
X19422380Y94296966D01*
X19422380Y94296966D02*
X19327142Y94249347D01*
X19327142Y94249347D02*
X19041428Y94249347D01*
X19041428Y94249347D02*
X18946190Y94296966D01*
X18946190Y94296966D02*
X18898571Y94344586D01*
X20136666Y95249347D02*
X20231904Y95249347D01*
X20231904Y95249347D02*
X20327142Y95201728D01*
X20327142Y95201728D02*
X20374761Y95154109D01*
X20374761Y95154109D02*
X20422380Y95058871D01*
X20422380Y95058871D02*
X20469999Y94868395D01*
X20469999Y94868395D02*
X20469999Y94630300D01*
X20469999Y94630300D02*
X20422380Y94439824D01*
X20422380Y94439824D02*
X20374761Y94344586D01*
X20374761Y94344586D02*
X20327142Y94296966D01*
X20327142Y94296966D02*
X20231904Y94249347D01*
X20231904Y94249347D02*
X20136666Y94249347D01*
X20136666Y94249347D02*
X20041428Y94296966D01*
X20041428Y94296966D02*
X19993809Y94344586D01*
X19993809Y94344586D02*
X19946190Y94439824D01*
X19946190Y94439824D02*
X19898571Y94630300D01*
X19898571Y94630300D02*
X19898571Y94868395D01*
X19898571Y94868395D02*
X19946190Y95058871D01*
X19946190Y95058871D02*
X19993809Y95154109D01*
X19993809Y95154109D02*
X20041428Y95201728D01*
X20041428Y95201728D02*
X20136666Y95249347D01*
X20946190Y94249347D02*
X21136666Y94249347D01*
X21136666Y94249347D02*
X21231904Y94296966D01*
X21231904Y94296966D02*
X21279523Y94344586D01*
X21279523Y94344586D02*
X21374761Y94487443D01*
X21374761Y94487443D02*
X21422380Y94677919D01*
X21422380Y94677919D02*
X21422380Y95058871D01*
X21422380Y95058871D02*
X21374761Y95154109D01*
X21374761Y95154109D02*
X21327142Y95201728D01*
X21327142Y95201728D02*
X21231904Y95249347D01*
X21231904Y95249347D02*
X21041428Y95249347D01*
X21041428Y95249347D02*
X20946190Y95201728D01*
X20946190Y95201728D02*
X20898571Y95154109D01*
X20898571Y95154109D02*
X20850952Y95058871D01*
X20850952Y95058871D02*
X20850952Y94820776D01*
X20850952Y94820776D02*
X20898571Y94725538D01*
X20898571Y94725538D02*
X20946190Y94677919D01*
X20946190Y94677919D02*
X21041428Y94630300D01*
X21041428Y94630300D02*
X21231904Y94630300D01*
X21231904Y94630300D02*
X21327142Y94677919D01*
X21327142Y94677919D02*
X21374761Y94725538D01*
X21374761Y94725538D02*
X21422380Y94820776D01*
X21803333Y95154109D02*
X21850952Y95201728D01*
X21850952Y95201728D02*
X21946190Y95249347D01*
X21946190Y95249347D02*
X22184285Y95249347D01*
X22184285Y95249347D02*
X22279523Y95201728D01*
X22279523Y95201728D02*
X22327142Y95154109D01*
X22327142Y95154109D02*
X22374761Y95058871D01*
X22374761Y95058871D02*
X22374761Y94963633D01*
X22374761Y94963633D02*
X22327142Y94820776D01*
X22327142Y94820776D02*
X21755714Y94249347D01*
X21755714Y94249347D02*
X22374761Y94249347D01*
X22708095Y95249347D02*
X22946190Y94249347D01*
X22946190Y94249347D02*
X23136666Y94963633D01*
X23136666Y94963633D02*
X23327142Y94249347D01*
X23327142Y94249347D02*
X23565238Y95249347D01*
X18208095Y101349347D02*
X18208095Y100539824D01*
X18208095Y100539824D02*
X18255714Y100444586D01*
X18255714Y100444586D02*
X18303333Y100396966D01*
X18303333Y100396966D02*
X18398571Y100349347D01*
X18398571Y100349347D02*
X18589047Y100349347D01*
X18589047Y100349347D02*
X18684285Y100396966D01*
X18684285Y100396966D02*
X18731904Y100444586D01*
X18731904Y100444586D02*
X18779523Y100539824D01*
X18779523Y100539824D02*
X18779523Y101349347D01*
X19208095Y101254109D02*
X19255714Y101301728D01*
X19255714Y101301728D02*
X19350952Y101349347D01*
X19350952Y101349347D02*
X19589047Y101349347D01*
X19589047Y101349347D02*
X19684285Y101301728D01*
X19684285Y101301728D02*
X19731904Y101254109D01*
X19731904Y101254109D02*
X19779523Y101158871D01*
X19779523Y101158871D02*
X19779523Y101063633D01*
X19779523Y101063633D02*
X19731904Y100920776D01*
X19731904Y100920776D02*
X19160476Y100349347D01*
X19160476Y100349347D02*
X19779523Y100349347D01*
X7575419Y103602747D02*
X7575419Y103031319D01*
X7575419Y103317033D02*
X6575419Y103317033D01*
X6575419Y103317033D02*
X6718276Y103221795D01*
X6718276Y103221795D02*
X6813514Y103126557D01*
X6813514Y103126557D02*
X6861133Y103031319D01*
X6575419Y104221795D02*
X6575419Y104317033D01*
X6575419Y104317033D02*
X6623038Y104412271D01*
X6623038Y104412271D02*
X6670657Y104459890D01*
X6670657Y104459890D02*
X6765895Y104507509D01*
X6765895Y104507509D02*
X6956371Y104555128D01*
X6956371Y104555128D02*
X7194466Y104555128D01*
X7194466Y104555128D02*
X7384942Y104507509D01*
X7384942Y104507509D02*
X7480180Y104459890D01*
X7480180Y104459890D02*
X7527800Y104412271D01*
X7527800Y104412271D02*
X7575419Y104317033D01*
X7575419Y104317033D02*
X7575419Y104221795D01*
X7575419Y104221795D02*
X7527800Y104126557D01*
X7527800Y104126557D02*
X7480180Y104078938D01*
X7480180Y104078938D02*
X7384942Y104031319D01*
X7384942Y104031319D02*
X7194466Y103983700D01*
X7194466Y103983700D02*
X6956371Y103983700D01*
X6956371Y103983700D02*
X6765895Y104031319D01*
X6765895Y104031319D02*
X6670657Y104078938D01*
X6670657Y104078938D02*
X6623038Y104126557D01*
X6623038Y104126557D02*
X6575419Y104221795D01*
X6575419Y105174176D02*
X6575419Y105269414D01*
X6575419Y105269414D02*
X6623038Y105364652D01*
X6623038Y105364652D02*
X6670657Y105412271D01*
X6670657Y105412271D02*
X6765895Y105459890D01*
X6765895Y105459890D02*
X6956371Y105507509D01*
X6956371Y105507509D02*
X7194466Y105507509D01*
X7194466Y105507509D02*
X7384942Y105459890D01*
X7384942Y105459890D02*
X7480180Y105412271D01*
X7480180Y105412271D02*
X7527800Y105364652D01*
X7527800Y105364652D02*
X7575419Y105269414D01*
X7575419Y105269414D02*
X7575419Y105174176D01*
X7575419Y105174176D02*
X7527800Y105078938D01*
X7527800Y105078938D02*
X7480180Y105031319D01*
X7480180Y105031319D02*
X7384942Y104983700D01*
X7384942Y104983700D02*
X7194466Y104936081D01*
X7194466Y104936081D02*
X6956371Y104936081D01*
X6956371Y104936081D02*
X6765895Y104983700D01*
X6765895Y104983700D02*
X6670657Y105031319D01*
X6670657Y105031319D02*
X6623038Y105078938D01*
X6623038Y105078938D02*
X6575419Y105174176D01*
X6908752Y105936081D02*
X7575419Y105936081D01*
X7003990Y105936081D02*
X6956371Y105983700D01*
X6956371Y105983700D02*
X6908752Y106078938D01*
X6908752Y106078938D02*
X6908752Y106221795D01*
X6908752Y106221795D02*
X6956371Y106317033D01*
X6956371Y106317033D02*
X7051609Y106364652D01*
X7051609Y106364652D02*
X7575419Y106364652D01*
X7051609Y107174176D02*
X7051609Y106840843D01*
X7575419Y106840843D02*
X6575419Y106840843D01*
X6575419Y106840843D02*
X6575419Y107317033D01*
D11*
X8980130Y105067033D02*
X9003940Y105043224D01*
X9003940Y105043224D02*
X9027749Y104971795D01*
X9027749Y104971795D02*
X9027749Y104924176D01*
X9027749Y104924176D02*
X9003940Y104852748D01*
X9003940Y104852748D02*
X8956320Y104805129D01*
X8956320Y104805129D02*
X8908701Y104781319D01*
X8908701Y104781319D02*
X8813463Y104757510D01*
X8813463Y104757510D02*
X8742035Y104757510D01*
X8742035Y104757510D02*
X8646797Y104781319D01*
X8646797Y104781319D02*
X8599178Y104805129D01*
X8599178Y104805129D02*
X8551559Y104852748D01*
X8551559Y104852748D02*
X8527749Y104924176D01*
X8527749Y104924176D02*
X8527749Y104971795D01*
X8527749Y104971795D02*
X8551559Y105043224D01*
X8551559Y105043224D02*
X8575368Y105067033D01*
X8575368Y105257510D02*
X8551559Y105281319D01*
X8551559Y105281319D02*
X8527749Y105328938D01*
X8527749Y105328938D02*
X8527749Y105447986D01*
X8527749Y105447986D02*
X8551559Y105495605D01*
X8551559Y105495605D02*
X8575368Y105519414D01*
X8575368Y105519414D02*
X8622987Y105543224D01*
X8622987Y105543224D02*
X8670606Y105543224D01*
X8670606Y105543224D02*
X8742035Y105519414D01*
X8742035Y105519414D02*
X9027749Y105233700D01*
X9027749Y105233700D02*
X9027749Y105543224D01*
D10*
X6577638Y94832814D02*
X6577638Y94166147D01*
X6339543Y95213766D02*
X6101448Y94499481D01*
X6101448Y94499481D02*
X6720495Y94499481D01*
X7101448Y94261386D02*
X7149067Y94213766D01*
X7149067Y94213766D02*
X7101448Y94166147D01*
X7101448Y94166147D02*
X7053829Y94213766D01*
X7053829Y94213766D02*
X7101448Y94261386D01*
X7101448Y94261386D02*
X7101448Y94166147D01*
X7482400Y95166147D02*
X8149066Y95166147D01*
X8149066Y95166147D02*
X7720495Y94166147D01*
X8958590Y94832814D02*
X8958590Y94166147D01*
X8530019Y94832814D02*
X8530019Y94309005D01*
X8530019Y94309005D02*
X8577638Y94213766D01*
X8577638Y94213766D02*
X8672876Y94166147D01*
X8672876Y94166147D02*
X8815733Y94166147D01*
X8815733Y94166147D02*
X8910971Y94213766D01*
X8910971Y94213766D02*
X8958590Y94261386D01*
X9768114Y94689957D02*
X9434781Y94689957D01*
X9434781Y94166147D02*
X9434781Y95166147D01*
X9434781Y95166147D02*
X9910971Y95166147D01*
D11*
X7899066Y96121436D02*
X7875257Y96097626D01*
X7875257Y96097626D02*
X7803828Y96073817D01*
X7803828Y96073817D02*
X7756209Y96073817D01*
X7756209Y96073817D02*
X7684781Y96097626D01*
X7684781Y96097626D02*
X7637162Y96145246D01*
X7637162Y96145246D02*
X7613352Y96192865D01*
X7613352Y96192865D02*
X7589543Y96288103D01*
X7589543Y96288103D02*
X7589543Y96359531D01*
X7589543Y96359531D02*
X7613352Y96454769D01*
X7613352Y96454769D02*
X7637162Y96502388D01*
X7637162Y96502388D02*
X7684781Y96550007D01*
X7684781Y96550007D02*
X7756209Y96573817D01*
X7756209Y96573817D02*
X7803828Y96573817D01*
X7803828Y96573817D02*
X7875257Y96550007D01*
X7875257Y96550007D02*
X7899066Y96526198D01*
X8137162Y96073817D02*
X8232400Y96073817D01*
X8232400Y96073817D02*
X8280019Y96097626D01*
X8280019Y96097626D02*
X8303828Y96121436D01*
X8303828Y96121436D02*
X8351447Y96192865D01*
X8351447Y96192865D02*
X8375257Y96288103D01*
X8375257Y96288103D02*
X8375257Y96478579D01*
X8375257Y96478579D02*
X8351447Y96526198D01*
X8351447Y96526198D02*
X8327638Y96550007D01*
X8327638Y96550007D02*
X8280019Y96573817D01*
X8280019Y96573817D02*
X8184781Y96573817D01*
X8184781Y96573817D02*
X8137162Y96550007D01*
X8137162Y96550007D02*
X8113352Y96526198D01*
X8113352Y96526198D02*
X8089543Y96478579D01*
X8089543Y96478579D02*
X8089543Y96359531D01*
X8089543Y96359531D02*
X8113352Y96311912D01*
X8113352Y96311912D02*
X8137162Y96288103D01*
X8137162Y96288103D02*
X8184781Y96264293D01*
X8184781Y96264293D02*
X8280019Y96264293D01*
X8280019Y96264293D02*
X8327638Y96288103D01*
X8327638Y96288103D02*
X8351447Y96311912D01*
X8351447Y96311912D02*
X8375257Y96359531D01*
D10*
X5677638Y41690709D02*
X5725257Y41738328D01*
X5725257Y41738328D02*
X5820495Y41785947D01*
X5820495Y41785947D02*
X6058590Y41785947D01*
X6058590Y41785947D02*
X6153828Y41738328D01*
X6153828Y41738328D02*
X6201447Y41690709D01*
X6201447Y41690709D02*
X6249066Y41595471D01*
X6249066Y41595471D02*
X6249066Y41500233D01*
X6249066Y41500233D02*
X6201447Y41357376D01*
X6201447Y41357376D02*
X5630019Y40785947D01*
X5630019Y40785947D02*
X6249066Y40785947D01*
X6677638Y40881186D02*
X6725257Y40833566D01*
X6725257Y40833566D02*
X6677638Y40785947D01*
X6677638Y40785947D02*
X6630019Y40833566D01*
X6630019Y40833566D02*
X6677638Y40881186D01*
X6677638Y40881186D02*
X6677638Y40785947D01*
X7106209Y41690709D02*
X7153828Y41738328D01*
X7153828Y41738328D02*
X7249066Y41785947D01*
X7249066Y41785947D02*
X7487161Y41785947D01*
X7487161Y41785947D02*
X7582399Y41738328D01*
X7582399Y41738328D02*
X7630018Y41690709D01*
X7630018Y41690709D02*
X7677637Y41595471D01*
X7677637Y41595471D02*
X7677637Y41500233D01*
X7677637Y41500233D02*
X7630018Y41357376D01*
X7630018Y41357376D02*
X7058590Y40785947D01*
X7058590Y40785947D02*
X7677637Y40785947D01*
X8106209Y40785947D02*
X8106209Y41785947D01*
X8201447Y41166900D02*
X8487161Y40785947D01*
X8487161Y41452614D02*
X8106209Y41071662D01*
D11*
X6999066Y39363617D02*
X6832400Y39601712D01*
X6713352Y39363617D02*
X6713352Y39863617D01*
X6713352Y39863617D02*
X6903828Y39863617D01*
X6903828Y39863617D02*
X6951447Y39839807D01*
X6951447Y39839807D02*
X6975257Y39815998D01*
X6975257Y39815998D02*
X6999066Y39768379D01*
X6999066Y39768379D02*
X6999066Y39696950D01*
X6999066Y39696950D02*
X6975257Y39649331D01*
X6975257Y39649331D02*
X6951447Y39625522D01*
X6951447Y39625522D02*
X6903828Y39601712D01*
X6903828Y39601712D02*
X6713352Y39601712D01*
X7427638Y39696950D02*
X7427638Y39363617D01*
X7308590Y39887426D02*
X7189543Y39530284D01*
X7189543Y39530284D02*
X7499066Y39530284D01*
D10*
X5697638Y34947614D02*
X5697638Y34280947D01*
X5459543Y35328566D02*
X5221448Y34614281D01*
X5221448Y34614281D02*
X5840495Y34614281D01*
X6221448Y34376186D02*
X6269067Y34328566D01*
X6269067Y34328566D02*
X6221448Y34280947D01*
X6221448Y34280947D02*
X6173829Y34328566D01*
X6173829Y34328566D02*
X6221448Y34376186D01*
X6221448Y34376186D02*
X6221448Y34280947D01*
X6602400Y35280947D02*
X7269066Y35280947D01*
X7269066Y35280947D02*
X6840495Y34280947D01*
X8078590Y34947614D02*
X8078590Y34280947D01*
X7650019Y34947614D02*
X7650019Y34423805D01*
X7650019Y34423805D02*
X7697638Y34328566D01*
X7697638Y34328566D02*
X7792876Y34280947D01*
X7792876Y34280947D02*
X7935733Y34280947D01*
X7935733Y34280947D02*
X8030971Y34328566D01*
X8030971Y34328566D02*
X8078590Y34376186D01*
X8888114Y34804757D02*
X8554781Y34804757D01*
X8554781Y34280947D02*
X8554781Y35280947D01*
X8554781Y35280947D02*
X9030971Y35280947D01*
D11*
X6780971Y36236236D02*
X6757162Y36212426D01*
X6757162Y36212426D02*
X6685733Y36188617D01*
X6685733Y36188617D02*
X6638114Y36188617D01*
X6638114Y36188617D02*
X6566686Y36212426D01*
X6566686Y36212426D02*
X6519067Y36260046D01*
X6519067Y36260046D02*
X6495257Y36307665D01*
X6495257Y36307665D02*
X6471448Y36402903D01*
X6471448Y36402903D02*
X6471448Y36474331D01*
X6471448Y36474331D02*
X6495257Y36569569D01*
X6495257Y36569569D02*
X6519067Y36617188D01*
X6519067Y36617188D02*
X6566686Y36664807D01*
X6566686Y36664807D02*
X6638114Y36688617D01*
X6638114Y36688617D02*
X6685733Y36688617D01*
X6685733Y36688617D02*
X6757162Y36664807D01*
X6757162Y36664807D02*
X6780971Y36640998D01*
X7257162Y36188617D02*
X6971448Y36188617D01*
X7114305Y36188617D02*
X7114305Y36688617D01*
X7114305Y36688617D02*
X7066686Y36617188D01*
X7066686Y36617188D02*
X7019067Y36569569D01*
X7019067Y36569569D02*
X6971448Y36545760D01*
X7566685Y36688617D02*
X7614304Y36688617D01*
X7614304Y36688617D02*
X7661923Y36664807D01*
X7661923Y36664807D02*
X7685733Y36640998D01*
X7685733Y36640998D02*
X7709542Y36593379D01*
X7709542Y36593379D02*
X7733352Y36498141D01*
X7733352Y36498141D02*
X7733352Y36379093D01*
X7733352Y36379093D02*
X7709542Y36283855D01*
X7709542Y36283855D02*
X7685733Y36236236D01*
X7685733Y36236236D02*
X7661923Y36212426D01*
X7661923Y36212426D02*
X7614304Y36188617D01*
X7614304Y36188617D02*
X7566685Y36188617D01*
X7566685Y36188617D02*
X7519066Y36212426D01*
X7519066Y36212426D02*
X7495257Y36236236D01*
X7495257Y36236236D02*
X7471447Y36283855D01*
X7471447Y36283855D02*
X7447638Y36379093D01*
X7447638Y36379093D02*
X7447638Y36498141D01*
X7447638Y36498141D02*
X7471447Y36593379D01*
X7471447Y36593379D02*
X7495257Y36640998D01*
X7495257Y36640998D02*
X7519066Y36664807D01*
X7519066Y36664807D02*
X7566685Y36688617D01*
D10*
X28444819Y103602747D02*
X28444819Y103031319D01*
X28444819Y103317033D02*
X27444819Y103317033D01*
X27444819Y103317033D02*
X27587676Y103221795D01*
X27587676Y103221795D02*
X27682914Y103126557D01*
X27682914Y103126557D02*
X27730533Y103031319D01*
X27444819Y104221795D02*
X27444819Y104317033D01*
X27444819Y104317033D02*
X27492438Y104412271D01*
X27492438Y104412271D02*
X27540057Y104459890D01*
X27540057Y104459890D02*
X27635295Y104507509D01*
X27635295Y104507509D02*
X27825771Y104555128D01*
X27825771Y104555128D02*
X28063866Y104555128D01*
X28063866Y104555128D02*
X28254342Y104507509D01*
X28254342Y104507509D02*
X28349580Y104459890D01*
X28349580Y104459890D02*
X28397200Y104412271D01*
X28397200Y104412271D02*
X28444819Y104317033D01*
X28444819Y104317033D02*
X28444819Y104221795D01*
X28444819Y104221795D02*
X28397200Y104126557D01*
X28397200Y104126557D02*
X28349580Y104078938D01*
X28349580Y104078938D02*
X28254342Y104031319D01*
X28254342Y104031319D02*
X28063866Y103983700D01*
X28063866Y103983700D02*
X27825771Y103983700D01*
X27825771Y103983700D02*
X27635295Y104031319D01*
X27635295Y104031319D02*
X27540057Y104078938D01*
X27540057Y104078938D02*
X27492438Y104126557D01*
X27492438Y104126557D02*
X27444819Y104221795D01*
X27444819Y105174176D02*
X27444819Y105269414D01*
X27444819Y105269414D02*
X27492438Y105364652D01*
X27492438Y105364652D02*
X27540057Y105412271D01*
X27540057Y105412271D02*
X27635295Y105459890D01*
X27635295Y105459890D02*
X27825771Y105507509D01*
X27825771Y105507509D02*
X28063866Y105507509D01*
X28063866Y105507509D02*
X28254342Y105459890D01*
X28254342Y105459890D02*
X28349580Y105412271D01*
X28349580Y105412271D02*
X28397200Y105364652D01*
X28397200Y105364652D02*
X28444819Y105269414D01*
X28444819Y105269414D02*
X28444819Y105174176D01*
X28444819Y105174176D02*
X28397200Y105078938D01*
X28397200Y105078938D02*
X28349580Y105031319D01*
X28349580Y105031319D02*
X28254342Y104983700D01*
X28254342Y104983700D02*
X28063866Y104936081D01*
X28063866Y104936081D02*
X27825771Y104936081D01*
X27825771Y104936081D02*
X27635295Y104983700D01*
X27635295Y104983700D02*
X27540057Y105031319D01*
X27540057Y105031319D02*
X27492438Y105078938D01*
X27492438Y105078938D02*
X27444819Y105174176D01*
X27778152Y105936081D02*
X28444819Y105936081D01*
X27873390Y105936081D02*
X27825771Y105983700D01*
X27825771Y105983700D02*
X27778152Y106078938D01*
X27778152Y106078938D02*
X27778152Y106221795D01*
X27778152Y106221795D02*
X27825771Y106317033D01*
X27825771Y106317033D02*
X27921009Y106364652D01*
X27921009Y106364652D02*
X28444819Y106364652D01*
X27921009Y107174176D02*
X27921009Y106840843D01*
X28444819Y106840843D02*
X27444819Y106840843D01*
X27444819Y106840843D02*
X27444819Y107317033D01*
D11*
X29849530Y105067033D02*
X29873340Y105043224D01*
X29873340Y105043224D02*
X29897149Y104971795D01*
X29897149Y104971795D02*
X29897149Y104924176D01*
X29897149Y104924176D02*
X29873340Y104852748D01*
X29873340Y104852748D02*
X29825720Y104805129D01*
X29825720Y104805129D02*
X29778101Y104781319D01*
X29778101Y104781319D02*
X29682863Y104757510D01*
X29682863Y104757510D02*
X29611435Y104757510D01*
X29611435Y104757510D02*
X29516197Y104781319D01*
X29516197Y104781319D02*
X29468578Y104805129D01*
X29468578Y104805129D02*
X29420959Y104852748D01*
X29420959Y104852748D02*
X29397149Y104924176D01*
X29397149Y104924176D02*
X29397149Y104971795D01*
X29397149Y104971795D02*
X29420959Y105043224D01*
X29420959Y105043224D02*
X29444768Y105067033D01*
X29397149Y105233700D02*
X29397149Y105543224D01*
X29397149Y105543224D02*
X29587625Y105376557D01*
X29587625Y105376557D02*
X29587625Y105447986D01*
X29587625Y105447986D02*
X29611435Y105495605D01*
X29611435Y105495605D02*
X29635244Y105519414D01*
X29635244Y105519414D02*
X29682863Y105543224D01*
X29682863Y105543224D02*
X29801911Y105543224D01*
X29801911Y105543224D02*
X29849530Y105519414D01*
X29849530Y105519414D02*
X29873340Y105495605D01*
X29873340Y105495605D02*
X29897149Y105447986D01*
X29897149Y105447986D02*
X29897149Y105305129D01*
X29897149Y105305129D02*
X29873340Y105257510D01*
X29873340Y105257510D02*
X29849530Y105233700D01*
D10*
X31968419Y44879538D02*
X31968419Y44308110D01*
X31968419Y44593824D02*
X30968419Y44593824D01*
X30968419Y44593824D02*
X31111276Y44498586D01*
X31111276Y44498586D02*
X31206514Y44403348D01*
X31206514Y44403348D02*
X31254133Y44308110D01*
X30968419Y45498586D02*
X30968419Y45593824D01*
X30968419Y45593824D02*
X31016038Y45689062D01*
X31016038Y45689062D02*
X31063657Y45736681D01*
X31063657Y45736681D02*
X31158895Y45784300D01*
X31158895Y45784300D02*
X31349371Y45831919D01*
X31349371Y45831919D02*
X31587466Y45831919D01*
X31587466Y45831919D02*
X31777942Y45784300D01*
X31777942Y45784300D02*
X31873180Y45736681D01*
X31873180Y45736681D02*
X31920800Y45689062D01*
X31920800Y45689062D02*
X31968419Y45593824D01*
X31968419Y45593824D02*
X31968419Y45498586D01*
X31968419Y45498586D02*
X31920800Y45403348D01*
X31920800Y45403348D02*
X31873180Y45355729D01*
X31873180Y45355729D02*
X31777942Y45308110D01*
X31777942Y45308110D02*
X31587466Y45260491D01*
X31587466Y45260491D02*
X31349371Y45260491D01*
X31349371Y45260491D02*
X31158895Y45308110D01*
X31158895Y45308110D02*
X31063657Y45355729D01*
X31063657Y45355729D02*
X31016038Y45403348D01*
X31016038Y45403348D02*
X30968419Y45498586D01*
X31301752Y46689062D02*
X31968419Y46689062D01*
X31301752Y46260491D02*
X31825561Y46260491D01*
X31825561Y46260491D02*
X31920800Y46308110D01*
X31920800Y46308110D02*
X31968419Y46403348D01*
X31968419Y46403348D02*
X31968419Y46546205D01*
X31968419Y46546205D02*
X31920800Y46641443D01*
X31920800Y46641443D02*
X31873180Y46689062D01*
X31444609Y47498586D02*
X31444609Y47165253D01*
X31968419Y47165253D02*
X30968419Y47165253D01*
X30968419Y47165253D02*
X30968419Y47641443D01*
D11*
X33373130Y45867633D02*
X33396940Y45843824D01*
X33396940Y45843824D02*
X33420749Y45772395D01*
X33420749Y45772395D02*
X33420749Y45724776D01*
X33420749Y45724776D02*
X33396940Y45653348D01*
X33396940Y45653348D02*
X33349320Y45605729D01*
X33349320Y45605729D02*
X33301701Y45581919D01*
X33301701Y45581919D02*
X33206463Y45558110D01*
X33206463Y45558110D02*
X33135035Y45558110D01*
X33135035Y45558110D02*
X33039797Y45581919D01*
X33039797Y45581919D02*
X32992178Y45605729D01*
X32992178Y45605729D02*
X32944559Y45653348D01*
X32944559Y45653348D02*
X32920749Y45724776D01*
X32920749Y45724776D02*
X32920749Y45772395D01*
X32920749Y45772395D02*
X32944559Y45843824D01*
X32944559Y45843824D02*
X32968368Y45867633D01*
X33135035Y46153348D02*
X33111225Y46105729D01*
X33111225Y46105729D02*
X33087416Y46081919D01*
X33087416Y46081919D02*
X33039797Y46058110D01*
X33039797Y46058110D02*
X33015987Y46058110D01*
X33015987Y46058110D02*
X32968368Y46081919D01*
X32968368Y46081919D02*
X32944559Y46105729D01*
X32944559Y46105729D02*
X32920749Y46153348D01*
X32920749Y46153348D02*
X32920749Y46248586D01*
X32920749Y46248586D02*
X32944559Y46296205D01*
X32944559Y46296205D02*
X32968368Y46320014D01*
X32968368Y46320014D02*
X33015987Y46343824D01*
X33015987Y46343824D02*
X33039797Y46343824D01*
X33039797Y46343824D02*
X33087416Y46320014D01*
X33087416Y46320014D02*
X33111225Y46296205D01*
X33111225Y46296205D02*
X33135035Y46248586D01*
X33135035Y46248586D02*
X33135035Y46153348D01*
X33135035Y46153348D02*
X33158844Y46105729D01*
X33158844Y46105729D02*
X33182654Y46081919D01*
X33182654Y46081919D02*
X33230273Y46058110D01*
X33230273Y46058110D02*
X33325511Y46058110D01*
X33325511Y46058110D02*
X33373130Y46081919D01*
X33373130Y46081919D02*
X33396940Y46105729D01*
X33396940Y46105729D02*
X33420749Y46153348D01*
X33420749Y46153348D02*
X33420749Y46248586D01*
X33420749Y46248586D02*
X33396940Y46296205D01*
X33396940Y46296205D02*
X33373130Y46320014D01*
X33373130Y46320014D02*
X33325511Y46343824D01*
X33325511Y46343824D02*
X33230273Y46343824D01*
X33230273Y46343824D02*
X33182654Y46320014D01*
X33182654Y46320014D02*
X33158844Y46296205D01*
X33158844Y46296205D02*
X33135035Y46248586D01*
D10*
X6557638Y100991709D02*
X6605257Y101039328D01*
X6605257Y101039328D02*
X6700495Y101086947D01*
X6700495Y101086947D02*
X6938590Y101086947D01*
X6938590Y101086947D02*
X7033828Y101039328D01*
X7033828Y101039328D02*
X7081447Y100991709D01*
X7081447Y100991709D02*
X7129066Y100896471D01*
X7129066Y100896471D02*
X7129066Y100801233D01*
X7129066Y100801233D02*
X7081447Y100658376D01*
X7081447Y100658376D02*
X6510019Y100086947D01*
X6510019Y100086947D02*
X7129066Y100086947D01*
X7557638Y100182186D02*
X7605257Y100134566D01*
X7605257Y100134566D02*
X7557638Y100086947D01*
X7557638Y100086947D02*
X7510019Y100134566D01*
X7510019Y100134566D02*
X7557638Y100182186D01*
X7557638Y100182186D02*
X7557638Y100086947D01*
X7986209Y100991709D02*
X8033828Y101039328D01*
X8033828Y101039328D02*
X8129066Y101086947D01*
X8129066Y101086947D02*
X8367161Y101086947D01*
X8367161Y101086947D02*
X8462399Y101039328D01*
X8462399Y101039328D02*
X8510018Y100991709D01*
X8510018Y100991709D02*
X8557637Y100896471D01*
X8557637Y100896471D02*
X8557637Y100801233D01*
X8557637Y100801233D02*
X8510018Y100658376D01*
X8510018Y100658376D02*
X7938590Y100086947D01*
X7938590Y100086947D02*
X8557637Y100086947D01*
X8986209Y100086947D02*
X8986209Y101086947D01*
X9081447Y100467900D02*
X9367161Y100086947D01*
X9367161Y100753614D02*
X8986209Y100372662D01*
D11*
X7879066Y98664617D02*
X7712400Y98902712D01*
X7593352Y98664617D02*
X7593352Y99164617D01*
X7593352Y99164617D02*
X7783828Y99164617D01*
X7783828Y99164617D02*
X7831447Y99140807D01*
X7831447Y99140807D02*
X7855257Y99116998D01*
X7855257Y99116998D02*
X7879066Y99069379D01*
X7879066Y99069379D02*
X7879066Y98997950D01*
X7879066Y98997950D02*
X7855257Y98950331D01*
X7855257Y98950331D02*
X7831447Y98926522D01*
X7831447Y98926522D02*
X7783828Y98902712D01*
X7783828Y98902712D02*
X7593352Y98902712D01*
X8045733Y99164617D02*
X8355257Y99164617D01*
X8355257Y99164617D02*
X8188590Y98974141D01*
X8188590Y98974141D02*
X8260019Y98974141D01*
X8260019Y98974141D02*
X8307638Y98950331D01*
X8307638Y98950331D02*
X8331447Y98926522D01*
X8331447Y98926522D02*
X8355257Y98878903D01*
X8355257Y98878903D02*
X8355257Y98759855D01*
X8355257Y98759855D02*
X8331447Y98712236D01*
X8331447Y98712236D02*
X8307638Y98688426D01*
X8307638Y98688426D02*
X8260019Y98664617D01*
X8260019Y98664617D02*
X8117162Y98664617D01*
X8117162Y98664617D02*
X8069543Y98688426D01*
X8069543Y98688426D02*
X8045733Y98712236D01*
D10*
X21464523Y112849347D02*
X21797856Y111849347D01*
X21797856Y111849347D02*
X22131189Y112849347D01*
X22464523Y111849347D02*
X22464523Y112849347D01*
X22893094Y111896966D02*
X23035951Y111849347D01*
X23035951Y111849347D02*
X23274046Y111849347D01*
X23274046Y111849347D02*
X23369284Y111896966D01*
X23369284Y111896966D02*
X23416903Y111944586D01*
X23416903Y111944586D02*
X23464522Y112039824D01*
X23464522Y112039824D02*
X23464522Y112135062D01*
X23464522Y112135062D02*
X23416903Y112230300D01*
X23416903Y112230300D02*
X23369284Y112277919D01*
X23369284Y112277919D02*
X23274046Y112325538D01*
X23274046Y112325538D02*
X23083570Y112373157D01*
X23083570Y112373157D02*
X22988332Y112420776D01*
X22988332Y112420776D02*
X22940713Y112468395D01*
X22940713Y112468395D02*
X22893094Y112563633D01*
X22893094Y112563633D02*
X22893094Y112658871D01*
X22893094Y112658871D02*
X22940713Y112754109D01*
X22940713Y112754109D02*
X22988332Y112801728D01*
X22988332Y112801728D02*
X23083570Y112849347D01*
X23083570Y112849347D02*
X23321665Y112849347D01*
X23321665Y112849347D02*
X23464522Y112801728D01*
X24083570Y112849347D02*
X24274046Y112849347D01*
X24274046Y112849347D02*
X24369284Y112801728D01*
X24369284Y112801728D02*
X24464522Y112706490D01*
X24464522Y112706490D02*
X24512141Y112516014D01*
X24512141Y112516014D02*
X24512141Y112182681D01*
X24512141Y112182681D02*
X24464522Y111992205D01*
X24464522Y111992205D02*
X24369284Y111896966D01*
X24369284Y111896966D02*
X24274046Y111849347D01*
X24274046Y111849347D02*
X24083570Y111849347D01*
X24083570Y111849347D02*
X23988332Y111896966D01*
X23988332Y111896966D02*
X23893094Y111992205D01*
X23893094Y111992205D02*
X23845475Y112182681D01*
X23845475Y112182681D02*
X23845475Y112516014D01*
X23845475Y112516014D02*
X23893094Y112706490D01*
X23893094Y112706490D02*
X23988332Y112801728D01*
X23988332Y112801728D02*
X24083570Y112849347D01*
X25654999Y111896966D02*
X25750237Y111849347D01*
X25750237Y111849347D02*
X25940713Y111849347D01*
X25940713Y111849347D02*
X26035951Y111896966D01*
X26035951Y111896966D02*
X26083570Y111992205D01*
X26083570Y111992205D02*
X26083570Y112039824D01*
X26083570Y112039824D02*
X26035951Y112135062D01*
X26035951Y112135062D02*
X25940713Y112182681D01*
X25940713Y112182681D02*
X25797856Y112182681D01*
X25797856Y112182681D02*
X25702618Y112230300D01*
X25702618Y112230300D02*
X25654999Y112325538D01*
X25654999Y112325538D02*
X25654999Y112373157D01*
X25654999Y112373157D02*
X25702618Y112468395D01*
X25702618Y112468395D02*
X25797856Y112516014D01*
X25797856Y112516014D02*
X25940713Y112516014D01*
X25940713Y112516014D02*
X26035951Y112468395D01*
X26893094Y111896966D02*
X26797856Y111849347D01*
X26797856Y111849347D02*
X26607380Y111849347D01*
X26607380Y111849347D02*
X26512142Y111896966D01*
X26512142Y111896966D02*
X26464523Y111992205D01*
X26464523Y111992205D02*
X26464523Y112373157D01*
X26464523Y112373157D02*
X26512142Y112468395D01*
X26512142Y112468395D02*
X26607380Y112516014D01*
X26607380Y112516014D02*
X26797856Y112516014D01*
X26797856Y112516014D02*
X26893094Y112468395D01*
X26893094Y112468395D02*
X26940713Y112373157D01*
X26940713Y112373157D02*
X26940713Y112277919D01*
X26940713Y112277919D02*
X26464523Y112182681D01*
X27512142Y111849347D02*
X27416904Y111896966D01*
X27416904Y111896966D02*
X27369285Y111992205D01*
X27369285Y111992205D02*
X27369285Y112849347D01*
X28274047Y111896966D02*
X28178809Y111849347D01*
X28178809Y111849347D02*
X27988333Y111849347D01*
X27988333Y111849347D02*
X27893095Y111896966D01*
X27893095Y111896966D02*
X27845476Y111992205D01*
X27845476Y111992205D02*
X27845476Y112373157D01*
X27845476Y112373157D02*
X27893095Y112468395D01*
X27893095Y112468395D02*
X27988333Y112516014D01*
X27988333Y112516014D02*
X28178809Y112516014D01*
X28178809Y112516014D02*
X28274047Y112468395D01*
X28274047Y112468395D02*
X28321666Y112373157D01*
X28321666Y112373157D02*
X28321666Y112277919D01*
X28321666Y112277919D02*
X27845476Y112182681D01*
X29178809Y111896966D02*
X29083571Y111849347D01*
X29083571Y111849347D02*
X28893095Y111849347D01*
X28893095Y111849347D02*
X28797857Y111896966D01*
X28797857Y111896966D02*
X28750238Y111944586D01*
X28750238Y111944586D02*
X28702619Y112039824D01*
X28702619Y112039824D02*
X28702619Y112325538D01*
X28702619Y112325538D02*
X28750238Y112420776D01*
X28750238Y112420776D02*
X28797857Y112468395D01*
X28797857Y112468395D02*
X28893095Y112516014D01*
X28893095Y112516014D02*
X29083571Y112516014D01*
X29083571Y112516014D02*
X29178809Y112468395D01*
X29464524Y112516014D02*
X29845476Y112516014D01*
X29607381Y112849347D02*
X29607381Y111992205D01*
X29607381Y111992205D02*
X29655000Y111896966D01*
X29655000Y111896966D02*
X29750238Y111849347D01*
X29750238Y111849347D02*
X29845476Y111849347D01*
D12*
%TO.C,C1*%
X5175600Y104150366D02*
X5175600Y106150366D01*
X5175600Y106150366D02*
X6425600Y106150366D01*
X6425600Y104150366D02*
X5175600Y104150366D01*
X6425600Y106150366D02*
X6425600Y104150366D01*
%TO.C,C5*%
X5873200Y44950966D02*
X5873200Y46950966D01*
X5873200Y46950966D02*
X7123200Y46950966D01*
X7123200Y44950966D02*
X5873200Y44950966D01*
X7123200Y46950966D02*
X7123200Y44950966D01*
%TO.C,R1*%
X36425000Y111419166D02*
X36425000Y113419166D01*
X36425000Y113419166D02*
X37675000Y113419166D01*
X37675000Y111419166D02*
X36425000Y111419166D01*
X37675000Y113419166D02*
X37675000Y111419166D01*
%TO.C,C6*%
X9149800Y44950966D02*
X9149800Y46950966D01*
X9149800Y46950966D02*
X10399800Y46950966D01*
X10399800Y44950966D02*
X9149800Y44950966D01*
X10399800Y46950966D02*
X10399800Y44950966D01*
%TO.C,U3*%
X23770000Y36344166D02*
X16270000Y36344166D01*
X16270000Y45644166D01*
X17270000Y46644166D01*
X23770000Y46644166D01*
X23770000Y36344166D01*
%TO.C,C7*%
X29165000Y44950966D02*
X29165000Y46950966D01*
X29165000Y46950966D02*
X30415000Y46950966D01*
X30415000Y44950966D02*
X29165000Y44950966D01*
X30415000Y46950966D02*
X30415000Y44950966D01*
%TO.C,C4*%
X32051600Y104150366D02*
X32051600Y106150366D01*
X32051600Y106150366D02*
X33301600Y106150366D01*
X33301600Y104150366D02*
X32051600Y104150366D01*
X33301600Y106150366D02*
X33301600Y104150366D01*
%TO.C,R2*%
X36505000Y18519166D02*
X36505000Y20519166D01*
X36505000Y20519166D02*
X37755000Y20519166D01*
X37755000Y18519166D02*
X36505000Y18519166D01*
X37755000Y20519166D02*
X37755000Y18519166D01*
%TO.C,U2*%
X22720000Y95654166D02*
X15220000Y95654166D01*
X15220000Y104954166D01*
X16220000Y105954166D01*
X22720000Y105954166D01*
X22720000Y95654166D01*
%TO.C,C2*%
X8175600Y104150366D02*
X8175600Y106150366D01*
X8175600Y106150366D02*
X9425600Y106150366D01*
X9425600Y104150366D02*
X8175600Y104150366D01*
X9425600Y106150366D02*
X9425600Y104150366D01*
%TO.C,C9*%
X6982400Y95675966D02*
X6982400Y96925966D01*
X6982400Y96925966D02*
X8982400Y96925966D01*
X8982400Y95675966D02*
X6982400Y95675966D01*
X8982400Y96925966D02*
X8982400Y95675966D01*
%TO.C,R4*%
X6082400Y38965766D02*
X6082400Y40215766D01*
X6082400Y40215766D02*
X8082400Y40215766D01*
X8082400Y38965766D02*
X6082400Y38965766D01*
X8082400Y40215766D02*
X8082400Y38965766D01*
%TO.C,C10*%
X6102400Y35790766D02*
X6102400Y37040766D01*
X6102400Y37040766D02*
X8102400Y37040766D01*
X8102400Y35790766D02*
X6102400Y35790766D01*
X8102400Y37040766D02*
X8102400Y35790766D01*
%TO.C,C3*%
X29045000Y104150366D02*
X29045000Y106150366D01*
X29045000Y106150366D02*
X30295000Y106150366D01*
X30295000Y104150366D02*
X29045000Y104150366D01*
X30295000Y106150366D02*
X30295000Y104150366D01*
%TO.C,C8*%
X32568600Y44950966D02*
X32568600Y46950966D01*
X32568600Y46950966D02*
X33818600Y46950966D01*
X33818600Y44950966D02*
X32568600Y44950966D01*
X33818600Y46950966D02*
X33818600Y44950966D01*
%TO.C,R3*%
X6962400Y98266766D02*
X6962400Y99516766D01*
X6962400Y99516766D02*
X8962400Y99516766D01*
X8962400Y98266766D02*
X6962400Y98266766D01*
X8962400Y99516766D02*
X8962400Y98266766D01*
%TD*%
M02*
