%TF.GenerationSoftware,KiCad,Pcbnew,9.0.5*%
%TF.CreationDate,2026-05-12T13:11:20+02:00*%
%TF.ProjectId,DMX_NODE,444d585f-4e4f-4444-952e-6b696361645f,0.8*%
%TF.SameCoordinates,PX5cfbb60PYb220960*%
%TF.FileFunction,Paste,Top*%
%TF.FilePolarity,Positive*%
%FSLAX46Y46*%
G04 Gerber Fmt 4.6, Leading zero omitted, Abs format (unit mm)*
G04 Created by KiCad (PCBNEW 9.0.5) date 2026-05-12 13:11:20*
%MOMM*%
%LPD*%
G01*
G04 APERTURE LIST*
G04 Aperture macros list*
%AMRoundRect*
0 Rectangle with rounded corners*
0 $1 Rounding radius*
0 $2 $3 $4 $5 $6 $7 $8 $9 X,Y pos of 4 corners*
0 Add a 4 corners polygon primitive as box body*
4,1,4,$2,$3,$4,$5,$6,$7,$8,$9,$2,$3,0*
0 Add four circle primitives for the rounded corners*
1,1,$1+$1,$2,$3*
1,1,$1+$1,$4,$5*
1,1,$1+$1,$6,$7*
1,1,$1+$1,$8,$9*
0 Add four rect primitives between the rounded corners*
20,1,$1+$1,$2,$3,$4,$5,0*
20,1,$1+$1,$4,$5,$6,$7,0*
20,1,$1+$1,$6,$7,$8,$9,0*
20,1,$1+$1,$8,$9,$2,$3,0*%
G04 Aperture macros list end*
%ADD10RoundRect,0.250000X-0.475000X0.250000X-0.475000X-0.250000X0.475000X-0.250000X0.475000X0.250000X0*%
%ADD11RoundRect,0.250000X0.450000X-0.262500X0.450000X0.262500X-0.450000X0.262500X-0.450000X-0.262500X0*%
%ADD12RoundRect,0.150000X-0.875000X-0.150000X0.875000X-0.150000X0.875000X0.150000X-0.875000X0.150000X0*%
%ADD13RoundRect,0.250000X-0.250000X-0.475000X0.250000X-0.475000X0.250000X0.475000X-0.250000X0.475000X0*%
%ADD14RoundRect,0.250000X0.262500X0.450000X-0.262500X0.450000X-0.262500X-0.450000X0.262500X-0.450000X0*%
G04 APERTURE END LIST*
D10*
%TO.C,C1*%
X5800600Y106100366D03*
X5800600Y104200366D03*
%TD*%
%TO.C,C5*%
X6498200Y46900966D03*
X6498200Y45000966D03*
%TD*%
D11*
%TO.C,R1*%
X37050000Y111506666D03*
X37050000Y113331666D03*
%TD*%
D10*
%TO.C,C6*%
X9774800Y46900966D03*
X9774800Y45000966D03*
%TD*%
D12*
%TO.C,U3*%
X15370000Y45939166D03*
X15370000Y44669166D03*
X15370000Y43399166D03*
X15370000Y42129166D03*
X15370000Y40859166D03*
X15370000Y39589166D03*
X15370000Y38319166D03*
X15370000Y37049166D03*
X24670000Y37049166D03*
X24670000Y38319166D03*
X24670000Y39589166D03*
X24670000Y40859166D03*
X24670000Y42129166D03*
X24670000Y43399166D03*
X24670000Y44669166D03*
X24670000Y45939166D03*
%TD*%
D10*
%TO.C,C7*%
X29790000Y46900966D03*
X29790000Y45000966D03*
%TD*%
%TO.C,C4*%
X32676600Y106100366D03*
X32676600Y104200366D03*
%TD*%
D11*
%TO.C,R2*%
X37130000Y18606666D03*
X37130000Y20431666D03*
%TD*%
D12*
%TO.C,U2*%
X14320000Y105249166D03*
X14320000Y103979166D03*
X14320000Y102709166D03*
X14320000Y101439166D03*
X14320000Y100169166D03*
X14320000Y98899166D03*
X14320000Y97629166D03*
X14320000Y96359166D03*
X23620000Y96359166D03*
X23620000Y97629166D03*
X23620000Y98899166D03*
X23620000Y100169166D03*
X23620000Y101439166D03*
X23620000Y102709166D03*
X23620000Y103979166D03*
X23620000Y105249166D03*
%TD*%
D10*
%TO.C,C2*%
X8800600Y106100366D03*
X8800600Y104200366D03*
%TD*%
D13*
%TO.C,C9*%
X7032400Y96300966D03*
X8932400Y96300966D03*
%TD*%
D14*
%TO.C,R4*%
X7994900Y39590766D03*
X6169900Y39590766D03*
%TD*%
D13*
%TO.C,C10*%
X6152400Y36415766D03*
X8052400Y36415766D03*
%TD*%
D10*
%TO.C,C3*%
X29670000Y106100366D03*
X29670000Y104200366D03*
%TD*%
%TO.C,C8*%
X33193600Y46900966D03*
X33193600Y45000966D03*
%TD*%
D14*
%TO.C,R3*%
X8874900Y98891766D03*
X7049900Y98891766D03*
%TD*%
M02*
