%TF.GenerationSoftware,KiCad,Pcbnew,9.0.5*%
%TF.CreationDate,2026-05-12T13:11:20+02:00*%
%TF.ProjectId,DMX_NODE,444d585f-4e4f-4444-952e-6b696361645f,0.8*%
%TF.SameCoordinates,PX5cfbb60PYb220960*%
%TF.FileFunction,Soldermask,Top*%
%TF.FilePolarity,Negative*%
%FSLAX46Y46*%
G04 Gerber Fmt 4.6, Leading zero omitted, Abs format (unit mm)*
G04 Created by KiCad (PCBNEW 9.0.5) date 2026-05-12 13:11:20*
%MOMM*%
%LPD*%
G01*
G04 APERTURE LIST*
G04 Aperture macros list*
%AMRoundRect*
0 Rectangle with rounded corners*
0 $1 Rounding radius*
0 $2 $3 $4 $5 $6 $7 $8 $9 X,Y pos of 4 corners*
0 Add a 4 corners polygon primitive as box body*
4,1,4,$2,$3,$4,$5,$6,$7,$8,$9,$2,$3,0*
0 Add four circle primitives for the rounded corners*
1,1,$1+$1,$2,$3*
1,1,$1+$1,$4,$5*
1,1,$1+$1,$6,$7*
1,1,$1+$1,$8,$9*
0 Add four rect primitives between the rounded corners*
20,1,$1+$1,$2,$3,$4,$5,0*
20,1,$1+$1,$4,$5,$6,$7,0*
20,1,$1+$1,$6,$7,$8,$9,0*
20,1,$1+$1,$8,$9,$2,$3,0*%
%AMFreePoly0*
4,1,6,1.000000,0.000000,0.500000,-0.750000,-0.500000,-0.750000,-0.500000,0.750000,0.500000,0.750000,1.000000,0.000000,1.000000,0.000000,$1*%
G04 Aperture macros list end*
%ADD10C,1.982000*%
%ADD11C,2.200000*%
%ADD12C,1.800000*%
%ADD13R,1.800000X1.800000*%
%ADD14RoundRect,0.250000X-1.050000X1.050000X-1.050000X-1.050000X1.050000X-1.050000X1.050000X1.050000X0*%
%ADD15C,2.600000*%
%ADD16C,1.400000*%
%ADD17C,1.600000*%
%ADD18C,3.400000*%
%ADD19C,2.900000*%
%ADD20C,2.400000*%
%ADD21C,3.200000*%
%ADD22R,1.700000X1.700000*%
%ADD23C,1.700000*%
%ADD24RoundRect,0.250000X-0.475000X0.250000X-0.475000X-0.250000X0.475000X-0.250000X0.475000X0.250000X0*%
%ADD25RoundRect,0.250000X0.450000X-0.262500X0.450000X0.262500X-0.450000X0.262500X-0.450000X-0.262500X0*%
%ADD26RoundRect,0.150000X-0.875000X-0.150000X0.875000X-0.150000X0.875000X0.150000X-0.875000X0.150000X0*%
%ADD27FreePoly0,180.000000*%
%ADD28FreePoly0,0.000000*%
%ADD29RoundRect,0.250000X-0.250000X-0.475000X0.250000X-0.475000X0.250000X0.475000X-0.250000X0.475000X0*%
%ADD30RoundRect,0.250000X0.262500X0.450000X-0.262500X0.450000X-0.262500X-0.450000X0.262500X-0.450000X0*%
G04 APERTURE END LIST*
%TO.C,JP2*%
G36*
X29500000Y50409166D02*
G01*
X24500000Y50409166D01*
X24500000Y51909166D01*
X29500000Y51909166D01*
X29500000Y50409166D01*
G37*
%TO.C,JP1*%
G36*
X28880000Y109629166D02*
G01*
X23880000Y109629166D01*
X23880000Y111129166D01*
X28880000Y111129166D01*
X28880000Y109629166D01*
G37*
%TD*%
D10*
%TO.C,U1*%
X32580000Y89641666D03*
X32580000Y87101666D03*
X32580000Y84561666D03*
X32580000Y82021666D03*
X32580000Y79481666D03*
X32580000Y76941666D03*
X32580000Y74401666D03*
X32580000Y71861666D03*
X32580000Y69321666D03*
X32580000Y66781666D03*
X7180000Y89641666D03*
X7180000Y87101666D03*
X7180000Y84561666D03*
X7180000Y82021666D03*
X7180000Y79481666D03*
X7180000Y76941666D03*
X7180000Y74401666D03*
X7180000Y71861666D03*
X7180000Y69321666D03*
X7180000Y66781666D03*
D11*
X31300000Y61036666D03*
X13266000Y111074666D03*
X8440000Y61036666D03*
%TD*%
D12*
%TO.C,D2*%
X41560000Y31931666D03*
D13*
X41560000Y34471666D03*
%TD*%
D14*
%TO.C,J1*%
X41212500Y114766666D03*
D15*
X41212500Y104606666D03*
%TD*%
D14*
%TO.C,J2*%
X41202500Y21776666D03*
D15*
X41202500Y11616666D03*
%TD*%
D16*
%TO.C,JP13*%
X12130000Y63681666D03*
X12130000Y71301666D03*
%TD*%
%TO.C,JP12*%
X12160000Y45721666D03*
X12160000Y53341666D03*
%TD*%
D17*
%TO.C,J6*%
X49470000Y53491666D03*
X54550000Y45871666D03*
D18*
X41210000Y45871666D03*
D19*
X45025000Y49681666D03*
X41210000Y49681666D03*
X45025000Y56661666D03*
D18*
X41210000Y53491666D03*
D19*
X51380000Y41431666D03*
%TD*%
D16*
%TO.C,JP11*%
X11540000Y86021666D03*
X11540000Y78401666D03*
%TD*%
D20*
%TO.C,R5*%
X2500000Y124881666D03*
X32980000Y124881666D03*
%TD*%
D17*
%TO.C,J3*%
X49470000Y113491666D03*
X54550000Y105871666D03*
D18*
X45660000Y105871666D03*
X45025000Y113491666D03*
D19*
X41210000Y109681666D03*
%TD*%
D17*
%TO.C,J4*%
X49470000Y146491666D03*
X54550000Y138871666D03*
D18*
X41210000Y138871666D03*
D19*
X45025000Y142681666D03*
X41210000Y142681666D03*
X45025000Y149661666D03*
D18*
X41210000Y146491666D03*
D19*
X51380000Y134431666D03*
%TD*%
D21*
%TO.C,MH3*%
X47500000Y80871666D03*
%TD*%
D13*
%TO.C,D1*%
X41580000Y127451666D03*
D12*
X41580000Y124911666D03*
%TD*%
D21*
%TO.C,MH1*%
X8500000Y150871666D03*
%TD*%
D20*
%TO.C,JP8*%
X15510000Y122641666D03*
X15510000Y92161666D03*
%TD*%
D17*
%TO.C,JP6*%
X11570000Y105111666D03*
X11570000Y120351666D03*
%TD*%
D21*
%TO.C,MH2*%
X8500000Y9871666D03*
%TD*%
D22*
%TO.C,J8*%
X23168400Y142314566D03*
D23*
X20628400Y142314566D03*
X18088400Y142314566D03*
X15548400Y142314566D03*
%TD*%
D16*
%TO.C,JP3*%
X12180000Y37041666D03*
X12180000Y44661666D03*
%TD*%
%TO.C,JP9*%
X18340000Y88601666D03*
X18340000Y80981666D03*
%TD*%
%TO.C,JP4*%
X11590000Y103951666D03*
X11590000Y96331666D03*
%TD*%
%TO.C,JP5*%
X11440000Y93771666D03*
X8900000Y93771666D03*
%TD*%
D17*
%TO.C,J5*%
X49470000Y20491666D03*
X54550000Y12871666D03*
D18*
X45660000Y12871666D03*
X45025000Y20491666D03*
D19*
X41210000Y16681666D03*
%TD*%
D22*
%TO.C,J7*%
X23168400Y130841166D03*
D23*
X20628400Y130841166D03*
X18088400Y130841166D03*
X15548400Y130841166D03*
X13008400Y130841166D03*
%TD*%
D17*
%TO.C,JP7*%
X15510000Y127411666D03*
X30750000Y127411666D03*
%TD*%
%TO.C,JP10*%
X17830000Y55801666D03*
X25450000Y55801666D03*
%TD*%
D24*
%TO.C,C1*%
X5800600Y106100366D03*
X5800600Y104200366D03*
%TD*%
%TO.C,C5*%
X6498200Y46900966D03*
X6498200Y45000966D03*
%TD*%
D25*
%TO.C,R1*%
X37050000Y111506666D03*
X37050000Y113331666D03*
%TD*%
D24*
%TO.C,C6*%
X9774800Y46900966D03*
X9774800Y45000966D03*
%TD*%
D26*
%TO.C,U3*%
X15370000Y45939166D03*
X15370000Y44669166D03*
X15370000Y43399166D03*
X15370000Y42129166D03*
X15370000Y40859166D03*
X15370000Y39589166D03*
X15370000Y38319166D03*
X15370000Y37049166D03*
X24670000Y37049166D03*
X24670000Y38319166D03*
X24670000Y39589166D03*
X24670000Y40859166D03*
X24670000Y42129166D03*
X24670000Y43399166D03*
X24670000Y44669166D03*
X24670000Y45939166D03*
%TD*%
D24*
%TO.C,C7*%
X29790000Y46900966D03*
X29790000Y45000966D03*
%TD*%
%TO.C,C4*%
X32676600Y106100366D03*
X32676600Y104200366D03*
%TD*%
D25*
%TO.C,R2*%
X37130000Y18606666D03*
X37130000Y20431666D03*
%TD*%
D27*
%TO.C,JP2*%
X29000000Y51159166D03*
D28*
X25000000Y51159166D03*
%TD*%
D26*
%TO.C,U2*%
X14320000Y105249166D03*
X14320000Y103979166D03*
X14320000Y102709166D03*
X14320000Y101439166D03*
X14320000Y100169166D03*
X14320000Y98899166D03*
X14320000Y97629166D03*
X14320000Y96359166D03*
X23620000Y96359166D03*
X23620000Y97629166D03*
X23620000Y98899166D03*
X23620000Y100169166D03*
X23620000Y101439166D03*
X23620000Y102709166D03*
X23620000Y103979166D03*
X23620000Y105249166D03*
%TD*%
D24*
%TO.C,C2*%
X8800600Y106100366D03*
X8800600Y104200366D03*
%TD*%
D29*
%TO.C,C9*%
X7032400Y96300966D03*
X8932400Y96300966D03*
%TD*%
D30*
%TO.C,R4*%
X7994900Y39590766D03*
X6169900Y39590766D03*
%TD*%
D29*
%TO.C,C10*%
X6152400Y36415766D03*
X8052400Y36415766D03*
%TD*%
D24*
%TO.C,C3*%
X29670000Y106100366D03*
X29670000Y104200366D03*
%TD*%
%TO.C,C8*%
X33193600Y46900966D03*
X33193600Y45000966D03*
%TD*%
D30*
%TO.C,R3*%
X8874900Y98891766D03*
X7049900Y98891766D03*
%TD*%
D27*
%TO.C,JP1*%
X28380000Y110379166D03*
D28*
X24380000Y110379166D03*
%TD*%
M02*
