%TF.GenerationSoftware,KiCad,Pcbnew,9.0.5*%
%TF.CreationDate,2026-05-12T13:11:20+02:00*%
%TF.ProjectId,DMX_NODE,444d585f-4e4f-4444-952e-6b696361645f,0.8*%
%TF.SameCoordinates,PX5cfbb60PYb220960*%
%TF.FileFunction,Other,User*%
%FSLAX46Y46*%
G04 Gerber Fmt 4.6, Leading zero omitted, Abs format (unit mm)*
G04 Created by KiCad (PCBNEW 9.0.5) date 2026-05-12 13:11:20*
%MOMM*%
%LPD*%
G01*
G04 APERTURE LIST*
%ADD10C,0.050000*%
G04 APERTURE END LIST*
D10*
%TO.C,U1*%
X34130000Y119657666D02*
X34130000Y27179666D01*
X34130000Y27179666D02*
X5630000Y27179666D01*
X5630000Y119657666D02*
X34130000Y119657666D01*
X5630000Y27179666D02*
X5630000Y119657666D01*
%TO.C,D2*%
X44770000Y36411666D02*
X44770000Y29981666D01*
X44770000Y29981666D02*
X38350000Y29981666D01*
X38350000Y36411666D02*
X44770000Y36411666D01*
X38350000Y29981666D02*
X38350000Y36411666D01*
%TO.C,J1*%
X35502500Y101556666D02*
X35502500Y117806666D01*
X35502500Y117806666D02*
X46312500Y117806666D01*
X46312500Y101556666D02*
X35502500Y101556666D01*
X46312500Y117806666D02*
X46312500Y101556666D01*
%TO.C,J2*%
X35492500Y8566666D02*
X35492500Y24816666D01*
X35492500Y24816666D02*
X46302500Y24816666D01*
X46302500Y8566666D02*
X35492500Y8566666D01*
X46302500Y24816666D02*
X46302500Y8566666D01*
%TO.C,JP13*%
X13180000Y62731666D02*
X11080000Y62731666D01*
X11080000Y72251666D01*
X13180000Y72251666D01*
X13180000Y62731666D01*
%TO.C,JP12*%
X13210000Y44771666D02*
X11110000Y44771666D01*
X11110000Y54291666D01*
X13210000Y54291666D01*
X13210000Y44771666D01*
%TO.C,J6*%
X38360000Y36681666D02*
X38360000Y62981666D01*
X61560000Y36681666D02*
X38360000Y36681666D01*
X61560000Y36681666D02*
X61560000Y62981666D01*
X61560000Y62981666D02*
X38360000Y62981666D01*
%TO.C,JP11*%
X10490000Y86971666D02*
X12590000Y86971666D01*
X12590000Y77451666D01*
X10490000Y77451666D01*
X10490000Y86971666D01*
%TO.C,R5*%
X1050000Y122131666D02*
X34440000Y122131666D01*
X34440000Y127631666D01*
X1050000Y127631666D01*
X1050000Y122131666D01*
%TO.C,J3*%
X38360000Y96681666D02*
X38360000Y122681666D01*
X61560000Y96681666D02*
X38360000Y96681666D01*
X61560000Y96681666D02*
X61560000Y122681666D01*
X61560000Y122681666D02*
X38360000Y122681666D01*
%TO.C,J4*%
X38360000Y129681666D02*
X38360000Y155981666D01*
X61560000Y129681666D02*
X38360000Y129681666D01*
X61560000Y129681666D02*
X61560000Y155981666D01*
X61560000Y155981666D02*
X38360000Y155981666D01*
%TO.C,MH3*%
X50550000Y80871666D02*
G75*
G02*
X44450000Y80871666I-3050000J0D01*
G01*
X44450000Y80871666D02*
G75*
G02*
X50550000Y80871666I3050000J0D01*
G01*
%TO.C,D1*%
X38370000Y122961666D02*
X38370000Y129391666D01*
X38370000Y129391666D02*
X44790000Y129391666D01*
X44790000Y122961666D02*
X38370000Y122961666D01*
X44790000Y129391666D02*
X44790000Y122961666D01*
%TO.C,MH1*%
X11550000Y150871666D02*
G75*
G02*
X5450000Y150871666I-3050000J0D01*
G01*
X5450000Y150871666D02*
G75*
G02*
X11550000Y150871666I3050000J0D01*
G01*
%TO.C,JP8*%
X12760000Y124091666D02*
X18260000Y124091666D01*
X18260000Y90701666D01*
X12760000Y90701666D01*
X12760000Y124091666D01*
%TO.C,JP6*%
X13070000Y104061666D02*
X10070000Y104061666D01*
X10070000Y121401666D01*
X13070000Y121401666D01*
X13070000Y104061666D01*
%TO.C,MH2*%
X11550000Y9871666D02*
G75*
G02*
X5450000Y9871666I-3050000J0D01*
G01*
X5450000Y9871666D02*
G75*
G02*
X11550000Y9871666I3050000J0D01*
G01*
%TO.C,J8*%
X13778400Y140544566D02*
X13778400Y144084566D01*
X13778400Y144084566D02*
X24938400Y144084566D01*
X24938400Y140544566D02*
X13778400Y140544566D01*
X24938400Y144084566D02*
X24938400Y140544566D01*
%TO.C,JP3*%
X13230000Y36091666D02*
X11130000Y36091666D01*
X11130000Y45611666D01*
X13230000Y45611666D01*
X13230000Y36091666D01*
%TO.C,JP9*%
X17290000Y89551666D02*
X19390000Y89551666D01*
X19390000Y80031666D01*
X17290000Y80031666D01*
X17290000Y89551666D01*
%TO.C,JP4*%
X10540000Y104901666D02*
X12640000Y104901666D01*
X12640000Y95381666D01*
X10540000Y95381666D01*
X10540000Y104901666D01*
%TO.C,JP5*%
X12490000Y94821666D02*
X7950000Y94821666D01*
X7950000Y92721666D01*
X12490000Y92721666D01*
X12490000Y94821666D01*
%TO.C,J5*%
X38360000Y3681666D02*
X38360000Y29681666D01*
X61560000Y3681666D02*
X38360000Y3681666D01*
X61560000Y3681666D02*
X61560000Y29681666D01*
X61560000Y29681666D02*
X38360000Y29681666D01*
%TO.C,J7*%
X11238400Y129071166D02*
X11238400Y132611166D01*
X11238400Y132611166D02*
X24938400Y132611166D01*
X24938400Y129071166D02*
X11238400Y129071166D01*
X24938400Y132611166D02*
X24938400Y129071166D01*
%TO.C,JP7*%
X14460000Y125911666D02*
X31800000Y125911666D01*
X31800000Y128911666D01*
X14460000Y128911666D01*
X14460000Y125911666D01*
%TO.C,JP10*%
X16780000Y54301666D02*
X26500000Y54301666D01*
X26500000Y57301666D01*
X16780000Y57301666D01*
X16780000Y54301666D01*
%TD*%
M02*
